<?xml version="1.0" encoding="iso-8859-1"?>
<!-- Generator: Adobe Illustrator 26.1.0, SVG Export Plug-In . SVG Version: 6.00 Build 0)  -->
<svg version="1.1" id="Layer_1" xmlns="http://www.w3.org/2000/svg" xmlns:xlink="http://www.w3.org/1999/xlink" x="0px" y="0px"
	 viewBox="0 0 637 512" style="enable-background:new 0 0 637 512;" xml:space="preserve">
<g id="Supply_Demand-Stack" transform="translate(-11)">
	<path id="Logo" d="M623.8,507v5h-610v-5H623.8z M421.3,441.3c2,0.8,3.8,2,5.3,3.7c1.5,1.7,2.7,3.7,3.4,5.9c0.8,2.6,1.2,5.3,1.2,8
		c0,2.7-0.3,5.4-1.1,8c-0.7,2.2-1.8,4.2-3.4,5.9c-1.4,1.6-3.2,2.9-5.3,3.7c-4.5,1.7-9.4,1.7-13.9,0c-2-0.8-3.8-2.1-5.3-3.7
		c-1.5-1.7-2.7-3.7-3.4-5.9c-1.6-5.2-1.6-10.7,0-15.9c0.7-2.2,1.8-4.2,3.4-6c1.5-1.6,3.3-2.9,5.3-3.7
		C411.9,439.6,416.9,439.6,421.3,441.3z M162.8,440.9v5.2h-17.6v9.6H162v5.3h-16.8v10.6H164l-0.7,5.2h-24.2l-0.2-35.9H162.8z
		 M338,440.9l8.7,15.6l8.9-15.6h6.4l-12.1,21v15h-6.1v-15l-12.5-21L338,440.9z M201.8,440.8l6.8,0.1l6.7,27.3l6.7-27.1h6.5l6.9,27
		l6.4-27.2h6.5l-10.1,35.9h-5.9l-7.2-28.3l-7.2,28.3h-5.9L201.8,440.8z M73.7,440.9l16.5,26v-26h5.9v35.9h-5.6L74,451v25.9h-5.9
		v-35.9H73.7z M546.5,440.9v15.8l15.1-15.8h6.7l-12.4,13.4l13.7,22.4h-6.9l-11.1-18.5l-5.1,5.2v13.4h-6.1v-35.9L546.5,440.9z
		 M414.3,445.2c-1.6,0-3.1,0.3-4.6,0.9c-1.3,0.6-2.5,1.6-3.4,2.7c-0.9,1.3-1.6,2.7-2,4.3c-0.5,1.9-0.7,3.8-0.6,5.7
		c-0.2,3.5,0.7,7.1,2.6,10.1c1.9,2.5,4.9,3.9,8,3.7h0.1c3.1,0.2,6-1.2,7.9-3.7c1.9-3,2.9-6.5,2.7-10.1c0-1.9-0.2-3.8-0.7-5.7
		c-0.4-1.5-1.1-3-2-4.3c-0.9-1.2-2-2.1-3.4-2.7C417.5,445.5,415.9,445.2,414.3,445.2z M623.8,405.8v5h-610v-5L623.8,405.8z
		 M470.7,203.3l26.8,98.4v-98.4h23v164.4h-26.7l-32.2-119.1v119.1h-23.2V203.3H470.7z M237.6,203.3l19,116.8l17.6-116.7h35.9v164.4
		h-24.4V249.8L268,367.7h-24.5l-19.3-116.2v116.2h-22.6V203.3H237.6z M183.6,203.3v23.5H139v45.8h35.5v23.5H139v48.1h44.6v23.5
		h-70.4V203.3H183.6z M393.3,203.2l26.3,164.5h-26.1l-4.4-29.9h-31.7l-4.5,29.8h-23.7l26.3-164.4L393.3,203.2z M586.8,203.3
		c10.7-0.9,21.3,2.9,29,10.3c6.9,8.5,10.3,19.3,9.5,30.2V327c0.8,10.9-2.6,21.7-9.5,30.2c-7.8,7.3-18.3,11-29,10.3h-40.9V203.3
		H586.8z M55.9,203.3c10.7-0.9,21.2,2.9,29,10.3c6.9,8.5,10.3,19.3,9.5,30.2V327c0.8,10.9-2.6,21.7-9.5,30.2
		c-7.8,7.3-18.3,11.1-28.9,10.4H15V203.3H55.9z M40.8,226.8v117.4h14.6c3.6,0.2,7-1.1,9.6-3.5c2.7-3.5,4-8,3.5-12.5v-85.5
		c0.5-4.4-0.8-8.9-3.5-12.5c-2.6-2.4-6.1-3.6-9.6-3.4L40.8,226.8z M571.8,226.8v117.4h14.6c3.6,0.2,7-1.1,9.6-3.5
		c2.7-3.6,3.9-8,3.4-12.5v-85.5c0.4-4.4-0.8-8.8-3.4-12.5c-2.6-2.4-6.1-3.6-9.6-3.4L571.8,226.8z M373.1,232.4l-12.4,83.1h24.9
		L373.1,232.4z M615.9,39.8c2.9,0.6,5.5,2.1,7.6,4.3c1.9,2.2,3.2,4.8,3.8,7.6c0.6,3.1,0.7,6.3,0.3,9.4c-0.4,3.3-1.4,6.5-2.8,9.6
		c-1.4,3-3.3,5.7-5.6,8c-2.2,2.2-5,3.9-8,4.8c-3.3,0.9-6.8,0.8-10.1-0.2l-0.3-0.2c2.3-1.8,4.3-4.1,5.8-6.7c1.6-2.8,3-5.7,4-8.8
		c1-3,1.6-6.2,1.9-9.3c0.3-2.7,0.2-5.5-0.3-8.2c-0.3-2-1.3-3.9-2.7-5.3c-1.5-1.3-3.5-1.6-5.4-0.9c-2.4,0.7-4.5,2-6.3,3.7
		c-2.1,1.9-4,4-5.6,6.4c-1.7,2.6-3.2,5.4-4.4,8.3c-1.2,3-2.2,6-2.9,9.1c-0.6,3-0.9,6-0.8,9.1c0,2.7,0.5,5.5,1.5,8
		c0.9,2.3,2.3,4.4,4.2,6c2.1,1.7,4.7,2.7,7.4,2.9c-3.7,1-7.2,2.9-10.1,5.5c-3.1,2.7-5.7,5.9-7.8,9.4c-2.2,3.7-4.1,7.6-5.5,11.7
		c-1.4,4-2.5,8.2-3.1,12.5c-0.6,3.9-0.8,7.8-0.6,11.7c0.1,3.3,0.9,6.6,2.1,9.6c1,2.4,2.7,4.4,4.9,5.8c2.5,1.2,5.3,1.4,7.9,0.5
		c2.9-0.8,5.6-2.4,7.7-4.6c2.3-2.4,4.3-5,5.9-7.9c1.8-3.1,3.2-6.4,4.4-9.7c1.1-3.3,2.1-6.7,2.9-10.1c0.4-2.7,0.9-5.5,1.4-8.2
		l1.4-7.8c-2.3-0.1-4.7,0-7,0.2c-2.1,0.1-4.2,0.5-6.2,1c-1.8,0.5-3.6,1.4-5.1,2.5c-1.5,1.2-2.8,2.7-3.7,4.4c0.8-1.8,1.9-3.5,3.3-4.8
		c1.6-1.6,3.4-2.9,5.3-4.1c2.2-1.3,4.4-2.4,6.7-3.4c2.5-1,5.1-1.9,7.8-2.7c0.6-3.7,1-7.5,1.2-11.2c0.2-2.5-0.2-5-1.3-7.3
		c2.3,0.1,4.7,0.5,6.9,1.3c1.7,0.7,3.3,1.7,4.6,3c1.2,1.3,2.1,2.8,2.7,4.4c0.6,1.8,1,3.7,1.1,5.6l8.6-2.2c2.7-0.7,5.1-1.5,7.2-2.3
		c1.8-0.6,3.5-1.5,5-2.5c0.8-0.5,1.5-1.2,1.9-2l0.4-0.9l-0.1,2.2c-0.3,2.9-1.1,5.8-2.4,8.5c-1.3,2.5-3.1,4.7-5.4,6.4
		c-2.2,1.6-4.7,2.6-7.4,3.2c-2.9,0.6-5.8,0.9-8.8,1c-0.7,3.8-1.6,7.8-2.7,11.9c-1.2,4.1-2.3,8.3-3.4,12.4s-2.2,8.2-3.1,12.2
		c-0.9,3.7-1.4,7.4-1.6,11.2c-0.2,3.1,0,6.3,0.8,9.3c0.7,2.7,2.2,5,4.4,6.7c-2.6-0.9-4.9-2.4-6.9-4.3c-1.9-1.8-3.4-4-4.4-6.4
		c-1.1-2.5-2-5.2-2.4-8c-0.5-3-0.7-6.1-0.7-9.1c-2.1,3.6-4.7,6.9-7.8,9.7c-3.1,2.9-6.9,4.9-11,6c-4.7,1.5-9.7,1.9-14.6,1.1
		c-3.8-0.6-7.4-2.3-10.4-4.9c-2.8-2.5-4.9-5.7-6.2-9.2c-1.4-3.8-2.1-7.9-2.1-12c0-4.5,0.7-8.9,2-13.2c1.4-4.5,3.4-8.8,6-12.7
		c2.7-4.1,6.1-7.6,10.1-10.6c4.2-3.1,8.9-5.4,13.9-6.7c-3.7,0-7.2-1.3-10.1-3.7c-2.8-2.3-4.8-5.4-5.9-8.9c-1.2-3.9-1.5-8-0.8-12.1
		c0.7-4.7,2.5-9.2,5.2-13.2c3.2-4.7,7.3-8.8,12-12.1c6-4.1,12.7-7.2,19.7-9C607.9,39.4,612,39.1,615.9,39.8z M129.8,2v126.8
		c-0.5,4.5,0.9,8.9,3.7,12.5c5.6,4.7,13.8,4.7,19.5,0c2.8-3.5,4.1-8,3.7-12.5V2H181v125.2c0.8,11.1-2.7,22.1-9.8,30.7
		c-7.6,7.5-18.1,11.4-28.7,10.7c-10.7,0.8-21.2-3.1-28.8-10.7c-7-8.6-10.5-19.6-9.7-30.7V2H129.8z M49.8,0.1
		c10.6-0.8,21.1,3.1,28.5,10.7c6.8,8.7,10.2,19.6,9.5,30.6v5.2H63.4v-6.7c0.5-4.5-0.7-8.9-3.4-12.6c-5.4-4.9-13.6-4.9-19,0
		c-2.6,3.6-3.8,8.1-3.4,12.6c-0.1,5.2,1.2,10.4,3.8,14.9c2.6,4.4,5.8,8.5,9.4,12.2c3.8,3.8,7.8,7.7,12.1,11.5
		c4.4,3.9,8.4,8.1,12.1,12.6c3.9,4.7,7,9.9,9.4,15.5c2.6,6.5,3.9,13.4,3.8,20.4c0.8,11.1-2.7,22.1-9.8,30.7
		c-7.6,7.5-18.1,11.4-28.7,10.7c-10.7,0.8-21.2-3.1-28.8-10.7c-7-8.6-10.5-19.6-9.7-30.7V117h24.4v11.7c-0.5,4.5,0.9,8.9,3.7,12.5
		c5.6,4.7,13.8,4.7,19.5,0c2.8-3.5,4.1-8,3.7-12.5c0.1-5.2-1.2-10.4-3.8-14.9c-2.6-4.5-5.8-8.6-9.4-12.2c-3.8-3.9-7.8-7.7-12.1-11.5
		C32.7,86.2,28.7,82,25,77.5c-3.9-4.7-7-9.9-9.4-15.5c-2.7-6.5-4-13.5-3.9-20.6c-0.8-11,2.6-21.9,9.5-30.6
		C28.7,3.3,39.1-0.6,49.8,0.1z M466.2,2l19.7,75l19.7-75h24.7l-32.7,109.9v54.5h-25.8l0.2-54.5L439.3,2H466.2z M410.9,2v140.9h42.5
		v23.5h-68.3V2H410.9z M293.1,1.8l38,0.2c10.7-0.9,21.2,2.9,29,10.3c6.9,8.5,10.3,19.3,9.5,30.2v21.4c0.8,10.9-2.6,21.7-9.5,30.2
		c-7.7,7.4-18.3,11.2-29,10.3h-12.2v61.8h-25.8V1.8z M201.1,1.8l38,0.2c10.7-0.9,21.2,2.9,29,10.3c6.9,8.5,10.3,19.3,9.5,30.2v21.4
		c0.8,10.9-2.6,21.7-9.5,30.2c-7.7,7.4-18.3,11.2-29,10.3H227v61.8h-25.8L201.1,1.8z M239.2,25.3L227,25.5v55.7h12.2
		c3.5,0.2,6.8-1,9.4-3.3c2.6-3.5,3.8-7.9,3.4-12.2V40.9c0.5-4.4-0.7-8.7-3.4-12.2C246,26.4,242.6,25.1,239.2,25.3z M331.1,25.3
		l-12.2,0.1v55.7h12.2c3.5,0.2,6.8-1,9.4-3.3c2.6-3.5,3.8-7.9,3.3-12.2V40.9c0.5-4.4-0.7-8.7-3.4-12.2
		C337.9,26.3,334.5,25.1,331.1,25.3z M485.1,440.9c2.3-0.1,4.5,0.2,6.7,0.9c1.5,0.5,3,1.4,4.2,2.5c1,0.9,1.7,2.1,2.1,3.4
		c0.4,1.2,0.6,2.4,0.6,3.7c0.1,2.1-0.4,4.1-1.4,5.9c-1,1.7-2.6,3-4.4,3.8l7.4,15.7h-6.7l-6.2-14.2H479v14.2h-6v-35.8L485.1,440.9z
		 M484.9,446h-6.1v11.6h6.8c1.1,0,2.3-0.1,3.4-0.4c0.8-0.2,1.5-0.7,2.1-1.2c0.5-0.5,0.9-1.2,1.1-1.9c0.2-0.8,0.3-1.6,0.3-2.5
		c0-0.8-0.1-1.6-0.4-2.3c-0.3-0.7-0.7-1.3-1.3-1.8c-0.7-0.5-1.5-0.9-2.3-1.1C487.3,446.1,486.1,446,484.9,446L484.9,446z"/>
</g>
</svg>
