<?xml version="1.0" encoding="utf-8"?>
<!-- Generator: Adobe Illustrator 26.3.1, SVG Export Plug-In . SVG Version: 6.00 Build 0)  -->
<svg version="1.1" id="Warstwa_1" xmlns="http://www.w3.org/2000/svg" xmlns:xlink="http://www.w3.org/1999/xlink" x="0px" y="0px"
	 viewBox="0 0 3533 512" style="enable-background:new 0 0 3533 512;" xml:space="preserve">
<style type="text/css">
	.st0{fill:#161615;}
</style>
<g>
	<polygon points="143.6,368.3 131.7,290.5 71,-0.4 -0.2,-0.4 -0.2,510.8 53.2,510.8 53.2,142.1 63.6,210.4 125.8,510.8 197,510.8 
		197,-0.4 143.6,-0.4 	"/>
	<path d="M463.4-0.4L385,510.8h60l10.4-76.7h75.6l11.1,76.7h60L523.5-0.4H463.4z M463.4,379.2l20.7-144.4l8.9-90.1l9.6,90.8
		l20,143.7H463.4z"/>
	<polygon points="933.8,368.3 921.9,291 861.1,-0.4 790,-0.4 790,510.8 843.4,510.8 843.4,142.1 853.7,210.4 916,510.8 987.2,510.8 
		987.2,-0.4 933.8,-0.4 	"/>
	<polygon points="1342.6,368.3 1330.7,291 1269.9,-0.4 1198.7,-0.4 1198.7,510.8 1252.1,510.8 1252.1,142.1 1262.5,210.4 
		1324.8,510.8 1395.9,510.8 1395.9,-0.4 1342.6,-0.4 	"/>
	<polygon points="1702.4,157.5 1691.3,226.5 1680.2,157.5 1644.7,-0.4 1583.9,-0.4 1661.7,292.2 1661.7,510.8 1721,510.8 
		1721,292.2 1798.7,-0.4 1737.3,-0.4 	"/>
	<path d="M2046,149.6V80.1c0-19.6,8.3-29.4,24.9-29.4c16.6-0.1,24.9,9.8,24.9,29.4v78.6h59.3v-46.6c0.3-75-27.7-112.5-84-112.5
		c-56.3,0-84.5,37.5-84.5,112.5v32.6c2.8,45.1,22.3,87.5,54.9,118.9c30.7,28.2,50.2,66.6,54.9,108.1v58.8c0,19.6-8.3,29.4-24.9,29.4
		c-16.6,0-24.9-9.8-24.9-29.4V335h-59.3v63.6c0,75,28.2,112.5,84.5,112.5c56.3,0,84.3-37.5,83.9-112.5v-45.1
		c-5.1-41.3-24.5-79.5-54.8-108.1C2072.9,220.1,2053.7,186.6,2046,149.6z"/>
	<polygon points="2345.9,50.7 2405.2,50.7 2405.2,510.8 2464.4,510.8 2464.4,50.7 2523.7,50.7 2523.7,-0.4 2345.9,-0.4 	"/>
	<path d="M2741.4-0.4l-78.6,511.2h60l10.4-76.7h75.6l11.1,76.7h60L2801.5-0.4H2741.4z M2741.4,379.2l20.8-144.4l8.9-90.1l9.6,90.8
		l20,143.7H2741.4z"/>
	<polygon points="3020.6,50.7 3079.9,50.7 3079.9,510.8 3139.1,510.8 3139.1,50.7 3198.4,50.7 3198.4,-0.4 3020.6,-0.4 	"/>
	<polygon points="3539,50.7 3539,-0.5 3388.5,-0.5 3388.5,510.8 3539,510.8 3539,459.6 3447.6,459.6 3447.6,275.6 3499.4,275.6 
		3499.4,224.5 3447.6,224.5 3447.6,50.7 	"/>
</g>
</svg>
