<?xml version="1.0" encoding="iso-8859-1"?>
<!-- Generator: Adobe Illustrator 25.2.0, SVG Export Plug-In . SVG Version: 6.00 Build 0)  -->
<svg version="1.1" id="Layer_1" xmlns="http://www.w3.org/2000/svg" xmlns:xlink="http://www.w3.org/1999/xlink" x="0px" y="0px"
	 viewBox="0 0 447.62 511.99" style="enable-background:new 0 0 447.62 511.99;" xml:space="preserve">
<g id="Warstwa_2">
	<path d="M387.95,461.7c-10.6-2.38-15.54-2.92-15.54-7.3c0-3.1,2.74-4.58,8.42-4.58c5.52,0.17,10.81,2.24,14.98,5.86l0,0
		c3.73,3.79,9.82,3.84,13.61,0.11c3.79-3.73,3.84-9.82,0.11-13.61c-0.23-0.24-0.48-0.47-0.74-0.68
		c-6.37-6.5-15.36-10.65-28.16-10.65c-16.64,0-30.16,7.12-30.16,24.68c0,16.26,11.88,22.09,22.48,24.86
		c12.59,3.28,17.54,3.28,17.54,7.5c0,3.28-2.56,4.74-10.6,4.74c-6.23-0.06-12.26-2.26-17.07-6.22l0.2,0.2
		c-3.9-3.76-10.1-3.65-13.86,0.24c-3.01,3.11-3.61,7.83-1.5,11.61l0.23,0.38c0.17,0.3,0.36,0.59,0.56,0.87l0.49,0.59
		c0.2,0.2,0.36,0.44,0.56,0.64c0.2,0.2,0.33,0.26,0.51,0.41c6.76,6.09,16.56,10.65,31.41,10.65c24.5,0,32-11.7,32-25.96
		C413.55,469.58,399.29,464.26,387.95,461.7z"/>
	<path d="M42.62,452.38c5.74,0.06,11.12,2.79,14.57,7.37c0.05,0.12,0.12,0.23,0.2,0.33c0,0.18,0.28,0.36,0.38,0.54l0,0
		c2.13,2.69,5.38,4.24,8.81,4.22c6.25-0.02,11.3-5.1,11.28-11.35c-0.01-2.8-1.05-5.5-2.94-7.57c-7.68-9.6-17.05-15.08-32.33-15.08
		c-24.32,0-42.6,16.79-42.6,40.39s18.3,40.73,42.62,40.73c15.51,0,24.65-5.48,32.33-14.08l0,0c4.04-4.6,3.6-11.6-1-15.64
		c-2.02-1.77-4.61-2.76-7.29-2.76c-3.22-0.01-6.28,1.4-8.37,3.84c-3.9,4.61-9.63,7.26-15.67,7.24c-11.16,0-17.38-8.04-17.38-19.35
		S31.46,452.38,42.62,452.38z"/>
	<path d="M301.45,452.38c5.75,0.04,11.15,2.77,14.59,7.37l0.26,0.36c0,0.15,0.26,0.33,0.36,0.51l0,0
		c3.83,4.93,10.94,5.83,15.88,1.99c4.93-3.83,5.83-10.94,1.99-15.88c-0.22-0.28-0.45-0.55-0.69-0.81
		c-7.68-9.6-17.05-15.08-32.36-15.08c-24.29,0-42.57,16.79-42.57,40.39s18.25,40.73,42.55,40.73c15.54,0,24.68-5.48,32.36-14.08l0,0
		c4.2-4.46,3.99-11.47-0.47-15.67c-4.46-4.2-11.47-3.99-15.67,0.47c-0.19,0.21-0.38,0.42-0.56,0.64c-3.9,4.61-9.63,7.26-15.67,7.24
		c-11.14,0-17.36-8.04-17.36-19.35S290.44,452.38,301.45,452.38z"/>
	<path d="M203,430.83c-24.11,0-42.95,17-42.95,40.75c0,23.76,18.84,40.39,42.95,40.39s42.78-16.82,42.78-40.39
		C245.77,448,227.14,430.83,203,430.83z M203,491.14c-10.96,0-17.74-8.04-17.74-19.56c0-11.52,6.78-19.56,17.74-19.56
		c10.96,0,17.56,7.86,17.56,19.56C220.56,483.28,213.98,491.14,203,491.14z"/>
	<path d="M147.83,435.82c-3.71-1.98-7.99-2.67-12.13-1.95c-7.45,0.9-14.36,4.37-19.53,9.8v0.51c0.01-0.15,0.01-0.31,0-0.46l0,0l0,0
		c-0.44-6.96-6.43-12.24-13.39-11.8c-6.6,0.42-11.76,5.86-11.83,12.47v55.14c0.37,6.97,6.32,12.33,13.29,11.97
		c6.54-0.34,11.74-5.62,11.98-12.17v-15c0-20.48,11.83-25.6,18.46-25.75c1.74,0,6.25,1.66,9.75,1.05
		c6.87-1.24,11.44-7.82,10.2-14.69c-0.71-3.9-3.2-7.25-6.74-9.04L147.83,435.82z"/>
	<path d="M427.09,441.76h-0.77c-0.26,0.03-0.51,0.03-0.77,0c-0.27,0.02-0.53-0.06-0.74-0.23c-0.15-0.19-0.25-0.42-0.28-0.67
		c0-0.28,0-0.67,0-1.15v-5.91h0.61c0.5,0.03,1-0.06,1.46-0.26c0.34-0.17,0.54-0.52,0.51-0.9c0.01-0.32-0.12-0.63-0.36-0.84
		c-0.3-0.23-0.67-0.35-1.05-0.33h-1.18v-2.18c0.03-0.43,0.03-0.85,0-1.28c-0.17-0.71-0.81-1.21-1.54-1.2
		c-0.27-0.01-0.54,0.06-0.77,0.2c-0.23,0.12-0.42,0.3-0.54,0.54c-0.14,0.23-0.22,0.5-0.23,0.77c0,0.28,0,0.69,0,1.23v1.92H421
		c-0.39-0.02-0.78,0.1-1.1,0.33c-0.46,0.42-0.49,1.13-0.07,1.59c0.02,0.03,0.05,0.05,0.07,0.07c0.3,0.25,0.69,0.36,1.08,0.33h0.41
		v6.17c-0.02,0.8,0.06,1.6,0.23,2.38c0.15,0.58,0.52,1.08,1.02,1.41c0.7,0.38,1.49,0.56,2.28,0.51c0.83,0.03,1.66-0.11,2.43-0.41
		c0.51-0.18,0.86-0.66,0.87-1.2c0.01-0.29-0.11-0.58-0.33-0.77C427.65,441.73,427.36,441.68,427.09,441.76z"/>
	<path d="M447.34,433.39c-0.3-0.64-0.81-1.16-1.43-1.48c-1.36-0.68-2.97-0.68-4.33,0c-0.68,0.36-1.28,0.86-1.74,1.48
		c-0.33-0.61-0.83-1.12-1.43-1.46c-0.64-0.35-1.37-0.53-2.1-0.51c-0.74,0-1.46,0.17-2.12,0.49c-0.69,0.36-1.3,0.87-1.79,1.48v-0.31
		c0.04-0.45-0.12-0.9-0.44-1.23c-0.29-0.3-0.69-0.46-1.1-0.44c-0.42-0.02-0.82,0.15-1.1,0.46c-0.31,0.39-0.47,0.88-0.44,1.38v9.22
		c-0.04,0.55,0.13,1.09,0.49,1.51c0.3,0.33,0.73,0.52,1.18,0.51c0.46,0.02,0.9-0.17,1.2-0.51c0.33-0.43,0.5-0.97,0.46-1.51v-4.35
		c-0.06-1.07,0.11-2.13,0.51-3.12c0.39-0.75,1.21-1.18,2.05-1.08c0.44-0.03,0.87,0.13,1.18,0.44c0.25,0.32,0.4,0.7,0.44,1.1
		c0.03,0.62,0.03,1.25,0,1.87v5.12c-0.04,0.54,0.12,1.08,0.46,1.51c0.3,0.33,0.73,0.52,1.18,0.51c0.46,0.01,0.91-0.17,1.23-0.51
		c0.34-0.43,0.5-0.97,0.46-1.51v-4.27c-0.07-0.98,0.06-1.96,0.36-2.89c0.19-0.41,0.49-0.76,0.87-1c0.35-0.25,0.77-0.38,1.2-0.38
		c0.43-0.04,0.86,0.11,1.18,0.41c0.27,0.29,0.44,0.66,0.49,1.05c0.03,0.55,0.03,1.11,0,1.66v5.43c-0.04,0.54,0.13,1.08,0.46,1.51
		c0.3,0.34,0.75,0.53,1.2,0.51c0.46,0.01,0.89-0.18,1.2-0.51c0.34-0.43,0.5-0.97,0.46-1.51v-6.3
		C447.69,435.22,447.61,434.28,447.34,433.39z"/>
	<path d="M65.17,183.95c-0.8,0.4-1.67,0.65-2.56,0.72c-2.03,0.61-3.56,2.29-3.97,4.38c-0.49,1.59,0.56,2.1,1.77,2.23
		c0.55,0.4,1.19,0.66,1.87,0.74c2.07,0.41,4.76-3.69,4.76-3.69c1.74-1.66,0.36-3.38,0-2.84c-0.16,0.22-0.37,0.39-0.61,0.51
		c0.24-0.58,0.35-1.21,0.31-1.84C66.56,182.31,65.99,183.52,65.17,183.95z"/>
	<path d="M196.55,68.96c-3.11-1.99-6.79-2.9-10.47-2.56c-1.92,0.72-3.76,1.63-5.5,2.71c-7.45,5.66-7.42,20.48-3.43,24.86
		c1.84,2.56,4.59,4.31,7.68,4.91c3.75,0.46,7.56,0.11,11.16-1.05c2.87-1.37,5.09-3.82,6.17-6.81c1.86-5.02,1.79-10.55-0.2-15.51
		C200.77,72.89,198.9,70.62,196.55,68.96z M199.59,87.85c-0.13,0.46-1.05,2.82-2.25,2.56c-1.13-0.74-0.15-1.46,0-3.1
		c0.27-1.86-0.07-3.75-0.97-5.4c-0.32-0.34-0.66-0.65-1.02-0.95c-0.2-0.18-0.47-0.26-0.74-0.23c-0.33,0-0.51,0.36-0.54,0.74
		c0.03,1.19-0.09,2.37-0.36,3.53c0,1.02-0.5,1.97-1.33,2.56c-0.64,0.36-0.23-1.77-0.26-3.02c-0.05-1.19-0.31-2.36-0.77-3.46
		c-0.67-1.46-2.56-0.46-2.56-0.46l-1.61,0.77c-1.89,1.74-2.96,4.21-2.92,6.78c-0.21,2.56,1.05,5.01,3.25,6.32
		c0,0,0.41,0.56,0.28,1.08c-0.03,0.37-0.32,0.65-0.69,0.67c-6.27,0-9.78-5.99-9.78-13.36s5.12-13.36,11.37-13.36
		s11.37,5.99,11.37,13.36C200.05,84.55,199.89,86.22,199.59,87.85z"/>
	<path d="M199.98,24.27C104.04,24.18,26.2,101.89,26.11,197.83c-0.08,95.94,77.62,173.78,173.56,173.87
		c73.9,0.07,139.75-46.63,164.14-116.4c-6.33,8.05-15.38,13.51-25.45,15.36c-10.7,2.02-21.73,1.33-32.1-2
		c-2.81-0.96-5.87,0.54-6.83,3.35c-0.01,0.04-0.02,0.07-0.04,0.11c-1.08,2.3-1.99,4.68-2.71,7.12c-0.64,1.72-1.43,6.83-1.95,8.75
		c-1.25,4.74-1.74,12.26-9.22,14.51c-3.97,1.18-6.07-1.41-5.58-6.43c0.6-4.81,1.53-9.58,2.79-14.26c0.98-2.52,1.63-5.17,1.92-7.86
		c0,0,0-5.73-2.56-5.12c-2.56,0.61-4.1,2.82-5.53,6.86c-0.92,2.56-0.64,3.1-2.25,8.65c-0.67,3.46-1.53,6.87-2.56,10.24
		c-1.82,3.38-5.61,8.47-8.42,8.88s-4.66-2.76-5.12-6.02c-0.3-2.38-0.13-4.8,0.51-7.12c0.38-1.89,0.67-3.2,1.59-6.86
		c0.74-2.83,1.76-5.57,3.05-8.19c2.23-4.48,2.56-7.68-0.41-6.37c-2.48,1.66-4.72,3.64-6.68,5.89c-3.18,3.59-5.68,7.73-7.4,12.21
		c-1.64,4.84-7.19,8.55-10.24,7.24c-2.2-0.97-2.97-3.46-2.2-7.88c0.65-6.03,2.83-11.79,6.32-16.74
		c2.56-3.33,14.72-19.07,31.15-19.79s26.26,5.12,27.31,1.87c0.9-2.92-4.48-8.52-24.81-9.06c-4.17,0-14.72,1.48-19.94,4.97
		c-4.17,2.79-3.87,5.73-8.65,3.56c-4.79-2.18-6.12-4.51-5.43-13.82c0.69-9.32,1.38-17.92,0-21.5c-1.38-3.58-13.62-14.9-10.83-21.3
		s7.17-8.75,10.78-15.13c7.88-13.85,9.73-35.84,5.63-40.09s-5.48-1.43-5.48,2.15c0,3.58,0,28.64-12.18,38.68
		c-12.18,10.03-23.65,8.14-25.6,6.68c-1.95-1.46-3.87-0.2-3.23,2.59c0.64,2.79-0.59,6.89-4.71,10.47
		c-11.65,9.14-24.34,16.88-37.81,23.04c-3.15,1.51-8.19,2.56-11.62,3.99c-3.43,1.43-4.89,0-9.24,6.99
		c-2.05,3.23-12.39,7.99-16.51,7.4c-9.93-1.38-12.29-5.79-11.6-9.37c0.38-2,0-5.12,10.42-8.83c6.14-2.12,12.8-8.29,13.85-10.98
		c1.56-4.3,3.61-11.8,7.35-11.29c2.82,0.36,8.17,5.12,12.29,2.23c4.12-2.89,4.35-5.94,5.73-10.24c1.38-4.3,4.79-7.19,7.5-10.78
		c2.71-3.58,1.23-6.81,1.23-9.68c0-2.87,0.97-13,5.12-13s8.32,3.43,16.1,3.99c1.89,0,7.68-0.38,7.96-4.17
		c0.18-3.17-0.38-16.49,2.36-23.04c2.74-6.55,9.78-9.16,12.49-13.46c2.71-4.3,0-14.92-2.36-12.34c-1.74,1.97-5.12,9.68-8.73,11.42
		c-2.57,1.71-5.81,2.08-8.7,1c-2.74-0.72-4.51-4.97-7.14-1.87c-1.18,1.41,1.43,3.61,2.84,4.12c3.2,1.2,4.04,3.69,3.61,8.42
		c-0.69,7.17,3.4,20.79-8.22,20.79s-13.67-3.58-16.41-2.15c-2.74,1.43-3.43,2.15-3.43,5.73s0.15,13.39-1.89,18.41
		s-7.37,23.6-17.25,19.61c-8.32-3.38-7.94-3.79-8.52-4.61c-0.59-0.82-3.1-0.82-2.89,0.46c0.44,2.56,1.18,1.43,1.33,4.45
		c0.2,5.12-2.23,10.44-5.63,10.44c-3.4,0-5.48-1.43-8.22-1.43s-3.66,2.61-4.4,4.76c0,0-3.89,12.54-16.2,15.36s-16.9-1.28-18.18-3.48
		c-3.79-6.5-11.93-10.24-16.02-12.29c-4.1-2.05-16.97-7.83-13-17.92c1.82-4.66,0.18-3.51,2.76-7.53
		c4.04-6.3,19.81-14.74,23.22-17.59c3.4-2.84,6.71-8.63,9.57-17.92c2.87-9.29,10.96-16.49,15.05-20.07
		c4.1-3.58,14.36-8.6,17.79-13.62c3.73-6.4,6.53-13.29,8.32-20.48c0.19-1.01,0.59-1.97,1.18-2.82c0.82-1.05,1.56-0.38,1.97,0.82
		c0.37,1.1,0.98,2.11,1.77,2.97c0.84,1.07,1.96,1.91,3.23,2.41c5.02,2.23,10.82,1.86,15.51-1c5.66-4.68,5.71-9.06,6.17-13.54
		c0.23-4.83-2.14-9.41-6.22-12.01c-2.61-1.68-5.65-2.55-8.75-2.51c-8.17,0-11.08,10.62-12.62,4.94c-1.25-4.66,0.74-9.47,2.56-13.54
		c6.17-13.54,11.24-20.63,18.76-19.2c7.53,1.43,12.03,17.36,18.18,17.36c4.56-0.26,8.97-1.7,12.8-4.17
		c0.92-0.59,1.82-1.13,2.69-1.59c2.56-2.1,6.07-6.09,7.68-7.68c10.7-9.75,17.1-0.33,21.89,3.25c4.79,3.58,15.03,18.74,19.81,19.46
		c4.79,0.72,8.24-4.43,12.95-5.38c6.35-1.25,11.67-1.79,10.24,8.24c-1.43,10.03-2.05,12.21,0.69,12.21c2.74,0,8.88-2.89,10.93,2.15
		s-4.79,10.03-4.79,13.62s3.43,4.71,6.83,5.12c5.35,0.46,6.83,3.58,5.48,7.17s-4.79,5.12-3.4,7.88c1.09,2.81,3.9,4.58,6.91,4.33
		c3.4,0,8.19-1.43,9.57,2.87c1.38,4.3-2.05,12.8-6.17,15.77c-4.12,2.97-5.48,7.17-2.05,8.6c3.43,1.43,10.96,1.43,11.62,6.45
		c0.59,3.92-0.67,7.89-3.4,10.75c-2.05,2.18-0.69,6.45,2.74,7.91c3.43,1.46,13.67,3.58,10.93,10.73
		c-2.74,7.14,2.43,21.09-5.76,17.41c-4.76-2.18-15.18-1.08-24.01,1.25c-3.99,1.05-9.37,4.53-9.8,6.78c-0.56,2.92,2.3,2.28,3.07,2.02
		c7-2.27,14.24-3.73,21.58-4.35c7.07,0.2,14.03,1.81,20.48,4.74c3.9,2,7.08,5.17,9.09,9.06c0,0,15.54-3.46,27.65,0.44
		c10.52,3.35,20.07,6.91,20.91,16.84c23.34-93-33.13-187.31-126.12-210.65C228.56,26,214.29,24.25,199.98,24.27z M197.67,206.02
		c1.13-2.74,5.73-3.79,5.73-3.79s5.48-0.74,9.22-1.48s6.48-1.08,9.34-1.82s5.12,2,5.73,4.43c0.61,2.43,2.1,5.55-0.95,6.43
		c-1.2,0.36-6.5,0.79-10.55,1.41c-5.73,0.87-11.51,1.39-17.3,1.56c-4.48-0.13-2.3-4.33-1.23-6.86V206.02z M177.58,219.33
		c2.38-3.51,8.65-2.56,8.65-2.56c6.41,1.16,12.92,1.71,19.43,1.64c13.13,0.2,18.12-1.48,25.6-1.31c7.47,0.18,6.22,6.17,5.12,9.52
		c-1.1,3.35-8.52,2.23-11.19,2.05c-2.66-0.18-29.34,0.18-39.29-0.38s-10.39-6.04-8.32-9.09V219.33z M164.01,232.13
		c0,0,24.93,6.4,64.41,4.53c0,0,8.4-1.31,8.75,3.53c0.36,4.84-0.49,8.32-5.61,8.88c-5.12,0.56-5.53-0.51-9.06-0.36
		c-18.84,0.55-37.7-0.66-56.32-3.64c-2.05-0.8-4.15-1.43-6.3-1.89c-2.56-0.56-5.71-1.87-5.35-5.79s3.07-7.22,9.47-5.53V232.13z
		 M153.77,251.51c2.28,0.3,4.53,0.82,6.71,1.56c0,0,17.56,7.45,68.43,4.66c0,0,9.06-2.92,10.5,0.64c1.43,3.56-2.23,9.27-10.24,10.6
		c-1.89,0.31-5.53,0.69-5.53,0.69s-43.52,1.87-62.05-4.48c0,0-3.38-0.54-4.63-0.54s-10.03-0.36-9.86-6.71
		c-0.26-3.43,2.31-6.41,5.73-6.67c0.27-0.02,0.55-0.02,0.82-0.01L153.77,251.51z M55.19,277.44c0.8-5.23,2.65-10.24,5.43-14.74
		c1.92-3.46,13.41-16.97,29.13-17.66c11.65-0.49,24.6,2.1,33.94,3.4c7.99,0.46,10.24-1.38,11.98-2.12
		c4.22-1.95,8.27-8.99,10.24-6.53c1.97,2.46-0.74,7.24-3.94,10.62c-2.75,2.52-4.78,5.73-5.89,9.29c-1.27,4.78-5.9,7.86-10.8,7.19
		c-2.56-0.46-2.56-1.36-4.27-1.79c-2.08-0.59-4.31-0.45-6.3,0.41c-1.77,0.61-4.1,4.79-4.74,5.68c-1.59,2.63-2.83,5.45-3.71,8.4
		c-0.87,5.49-2.37,10.86-4.48,16c-0.92,2.18-6.04,5.81-9.01,2.87c-2.25-2.25-0.82-10.24,0.41-14.92c0.79-3.28,2.08-6.41,3.84-9.29
		c1.35-1.95,2.57-3.98,3.66-6.09c0,0,0.69-4.02-1.92-3.33c-2.61,0.69-2.56,1.38-5.12,3.46c-1.72,1.41-2.94,3.89-4.84,8.65
		c-1.1,2.74-2.56,6.02-4.3,9.68c-1.97,4.12-4.22,8.55-6.4,10.24c-2.51,1.53-5.79,0.74-7.32-1.77c-0.45-0.73-0.71-1.55-0.77-2.41
		c0.21-3.73,0.86-7.42,1.92-11.01c0.89-2.39,2.05-4.67,3.48-6.78c1.92-3.4,3.33-5.84,4.86-8.22c2.07-3.23-0.79-4.07-2.56-3.2
		c-1.33,0.64-1.51,0.44-4.56,3.48c-3.15,4.16-5.66,8.78-7.42,13.7c-1.56,4.63-4.68,6.27-7.68,5.12
		C56.06,284.73,54.47,280.89,55.19,277.44z M145.71,71.68c5.84,0,10.57,5.55,10.57,12.39c0.01,1.61-0.13,3.22-0.41,4.81
		c0,0.44-0.97,2.56-2.07,2.56c-1.08-0.69-0.15-1.38,0-2.89c0.25-1.77-0.09-3.57-0.97-5.12c-0.3-0.32-0.61-0.62-0.95-0.9
		c-0.2-0.14-0.44-0.22-0.69-0.2c-0.31,0-0.49,0.36-0.49,0.69c0.01,1.1-0.11,2.2-0.33,3.28c-0.04,0.91-0.51,1.74-1.25,2.25
		c-0.59,0.36-0.2-1.64-0.23-2.79c-0.05-1.11-0.3-2.2-0.72-3.23c-0.61-1.33-2.41-0.41-2.41-0.41l-1.48,0.69
		c-1.76,1.63-2.74,3.93-2.71,6.32c-0.1,2.26,1.04,4.4,2.97,5.58c0,0,0.38,0.54,0.26,1c-0.01,0.34-0.3,0.61-0.64,0.61
		c-5.81,0-9.09-5.55-9.09-12.42C135.06,77.05,139.9,71.68,145.71,71.68z M329.66,209.63c-1.09,0.43-2.26,0.62-3.43,0.56
		c-1.12,0.07-2.24-0.18-3.23-0.72c-0.71-0.45-1.22-1.16-1.43-1.97c-0.26-1.1-0.37-2.23-0.33-3.35v-8.75h-0.59
		c-0.54,0.04-1.08-0.13-1.51-0.46c-0.33-0.3-0.52-0.73-0.51-1.18c-0.01-0.45,0.19-0.87,0.54-1.15c0.46-0.34,1.02-0.5,1.59-0.46h0.41
		v-2.71c0-0.74,0-1.31,0-1.74c0.03-0.37,0.15-0.73,0.33-1.05c0.38-0.67,1.1-1.07,1.87-1.05c0.59-0.01,1.15,0.23,1.56,0.64
		c0.31,0.28,0.51,0.64,0.59,1.05c0.09,0.58,0.14,1.17,0.13,1.77v3.1h1.66c0.53-0.04,1.05,0.13,1.46,0.46
		c0.33,0.29,0.52,0.71,0.51,1.15c0.03,0.53-0.25,1.03-0.72,1.28c-0.66,0.27-1.36,0.39-2.07,0.36h-0.84v8.35
		c-0.03,0.55-0.03,1.09,0,1.64c0.03,0.34,0.17,0.67,0.41,0.92c0.28,0.27,0.66,0.4,1.05,0.36c0.36,0.03,0.72,0.03,1.08,0
		c0.34-0.09,0.7-0.14,1.05-0.15c0.38,0.01,0.73,0.17,1,0.44c0.28,0.29,0.43,0.67,0.44,1.08c-0.03,0.65-0.41,1.24-1,1.54V209.63z
		 M358.54,207.35c0.07,0.77-0.17,1.53-0.67,2.12c-0.43,0.48-1.05,0.75-1.69,0.72c-0.64,0.03-1.26-0.24-1.69-0.72
		c-0.48-0.6-0.71-1.36-0.67-2.12v-7.68c0.06-0.78,0.06-1.57,0-2.36c-0.06-0.55-0.29-1.06-0.67-1.46c-0.44-0.44-1.05-0.67-1.66-0.61
		c-0.6,0-1.19,0.19-1.69,0.54c-0.54,0.36-0.97,0.85-1.25,1.43c-0.41,1.31-0.57,2.68-0.49,4.04v6.09c0.06,0.76-0.16,1.52-0.64,2.12
		c-0.44,0.48-1.07,0.75-1.72,0.72c-0.63,0.03-1.25-0.24-1.66-0.72c-0.48-0.6-0.7-1.36-0.64-2.12v-7.32c0.04-0.85,0.04-1.71,0-2.56
		c-0.05-0.57-0.28-1.1-0.64-1.54c-0.42-0.44-1.03-0.67-1.64-0.61c-1.2-0.15-2.36,0.47-2.92,1.54c-0.54,1.39-0.78,2.88-0.72,4.38
		v6.12c0.05,0.76-0.17,1.51-0.61,2.12c-0.43,0.48-1.05,0.74-1.69,0.72c-0.64,0.02-1.26-0.24-1.69-0.72c-0.47-0.6-0.7-1.36-0.64-2.12
		v-13.03c-0.05-0.69,0.16-1.37,0.59-1.92c0.38-0.45,0.95-0.7,1.54-0.67c0.58-0.02,1.15,0.21,1.56,0.61
		c0.43,0.46,0.65,1.07,0.61,1.69v0.51c0.7-0.86,1.57-1.57,2.56-2.07c0.94-0.44,1.96-0.66,3-0.64c1.02-0.02,2.03,0.21,2.94,0.67
		c0.84,0.49,1.54,1.2,2.02,2.05c0.65-0.85,1.48-1.55,2.43-2.05c0.91-0.44,1.91-0.67,2.92-0.67c1.11-0.03,2.21,0.21,3.2,0.72
		c0.87,0.46,1.57,1.19,2,2.07c0.46,1.23,0.66,2.55,0.59,3.87L358.54,207.35z"/>
	<path d="M200.16,0C90.86,0.01,2.26,88.63,2.28,197.93c0.01,109.3,88.63,197.89,197.93,197.88
		c109.29-0.01,197.88-88.61,197.88-197.9C398.09,88.6,309.48,0,200.18,0C200.17,0,200.16,0,200.16,0z M199.98,381.55
		c-101.4,0-183.59-82.2-183.59-183.59S98.58,14.36,199.98,14.36s183.59,82.2,183.59,183.59l0,0
		C383.47,299.31,301.33,381.45,199.98,381.55z"/>
	<path d="M96.99,195.63c0,0-7.12,4.53-6.48,7.94c0.64,3.4,1.77,3,2.76,3.07c3.2,0.18,4.89-3.48,4.97-4.56
		c0.1-1.91,0.57-3.78,1.38-5.5C100.35,196.06,98.66,194.99,96.99,195.63z"/>
</g>
</svg>
