<?xml version="1.0" encoding="utf-8"?>
<!-- Generator: Adobe Illustrator 27.3.1, SVG Export Plug-In . SVG Version: 6.00 Build 0)  -->
<svg version="1.1" id="Layer_1" xmlns="http://www.w3.org/2000/svg" xmlns:xlink="http://www.w3.org/1999/xlink" x="0px" y="0px"
	 viewBox="0 0 1059.15 121.36" style="enable-background:new 0 0 1059.15 121.36;" xml:space="preserve">
<style type="text/css">
	.st0{fill:#1D1D1B;}
</style>
<g>
	<g>
		<polygon class="st0" points="846.85,121.36 825.62,68.7 801.94,68.7 801.94,103.44 		"/>
		<polygon class="st0" points="750.28,121.36 770.95,68.7 793.86,68.7 793.86,103.2 		"/>
		<polygon class="st0" points="797.91,0 773.89,61.21 822.6,61.21 		"/>
	</g>
	<g>
		<path class="st0" d="M65.26,16.12H5.68c-1.53,0-2.91,0.58-4,1.68c-1.1,1.1-1.68,2.48-1.68,4v8.55c0,1.55,0.56,2.9,1.68,4.01
			c1.1,1.09,2.48,1.68,4,1.68h19.24v63.53c0,1.55,0.56,2.9,1.67,4.01c1.09,1.09,2.48,1.67,4.01,1.67h9.75
			c1.53,0,2.91-0.58,4.01-1.68c1.11-1.11,1.67-2.45,1.67-4V36.03h19.24c1.51,0,2.9-0.58,4.01-1.68c1.11-1.12,1.67-2.47,1.67-4V21.8
			c0-1.51-0.58-2.9-1.67-4C68.18,16.7,66.79,16.12,65.26,16.12z"/>
		<path class="st0" d="M172.96,85.34h-37.42V70.21h33.81c1.51,0,2.9-0.58,4.02-1.68c1.1-1.11,1.66-2.45,1.66-4v-8.55
			c0-1.52-0.58-2.91-1.67-4c-1.1-1.09-2.48-1.68-4.01-1.68h-33.81V36.03H172c1.51,0,2.9-0.58,4.01-1.68c1.11-1.11,1.67-2.45,1.67-4
			V21.8c0-1.52-0.58-2.9-1.67-4c-1.09-1.1-2.48-1.68-4.01-1.68h-51.88c-1.53,0-2.91,0.58-4.01,1.68c-1.09,1.1-1.67,2.48-1.67,4
			v77.77c0,1.54,0.56,2.88,1.67,4.01c1.11,1.11,2.46,1.67,4.01,1.67h52.85c1.53,0,2.91-0.58,4-1.67c1.11-1.11,1.68-2.46,1.68-4.01
			v-8.55c0-1.54-0.56-2.88-1.68-4.01C175.86,85.91,174.48,85.34,172.96,85.34z"/>
		<path class="st0" d="M246.21,44.32c0.71-1.91,1.75-3.57,3.07-4.93c1.33-1.37,3.03-2.48,5.03-3.31c4.24-1.75,10.8-1.5,14.69-0.23
			c2.03,0.66,3.72,1.52,5.03,2.55c1.27,1,2.29,2.14,3.01,3.4c0.72,1.25,1.19,2.54,1.39,3.84c0.25,1.69,1.05,3.05,2.3,3.95
			c1.14,0.83,2.39,1.25,3.71,1.25h9.75c1.48,0,2.81-0.51,3.96-1.51c1.25-1.1,1.85-2.65,1.71-4.35c-0.26-3.45-1.15-7.01-2.65-10.58
			c-1.54-3.64-3.91-6.94-7.04-9.81c-3.09-2.84-7.04-5.18-11.72-6.98c-4.66-1.78-10.34-2.69-16.88-2.69
			c-5.81,0-11.04,0.89-15.56,2.64c-4.53,1.75-8.46,4.24-11.67,7.4c-3.2,3.16-5.71,6.97-7.47,11.35c-1.73,4.32-2.78,9.07-3.12,14.14
			c-0.16,3.04-0.24,6.49-0.24,10.24c0,3.8,0.08,7.16,0.25,10.27c0.33,5.05,1.38,9.79,3.12,14.11c1.77,4.39,4.28,8.21,7.47,11.35
			c3.19,3.15,7.12,5.64,11.66,7.4c4.51,1.75,9.75,2.63,15.56,2.63c6.54,0,12.22-0.9,16.87-2.69c4.68-1.78,8.62-4.13,11.73-6.98
			c3.13-2.86,5.5-6.14,7.03-9.74c1.5-3.52,2.4-7.09,2.65-10.62c0.15-1.75-0.45-3.26-1.72-4.38c-1.14-1.01-2.47-1.51-3.95-1.51h-9.75
			c-1.34,0-2.59,0.43-3.7,1.28c-1.19,0.91-1.93,2.23-2.19,3.91c-0.2,1.31-0.65,2.57-1.39,3.84c-0.71,1.23-1.74,2.37-3.05,3.38
			c-1.35,1.04-3.07,1.91-5.11,2.57c-3.91,1.26-10.46,1.52-14.69-0.24c-2-0.82-3.69-1.93-5.02-3.3c-1.32-1.36-2.36-3-3.08-4.88
			c-0.75-1.97-1.2-4.14-1.35-6.44c-0.16-2.98-0.24-6.24-0.24-9.98c0-3.74,0.08-7,0.23-9.95C245,48.49,245.46,46.34,246.21,44.32z"/>
		<path class="st0" d="M411.65,16.12h-9.75c-1.53,0-2.91,0.58-4,1.68c-1.1,1.1-1.68,2.48-1.68,4v28.51h-31.5V21.8
			c0-1.51-0.58-2.9-1.68-4c-1.1-1.09-2.48-1.68-4.01-1.68h-9.75c-1.53,0-2.91,0.58-4.01,1.68c-1.09,1.1-1.67,2.48-1.67,4v77.77
			c0,1.63,0.6,3.05,1.73,4.12c1.09,1.02,2.45,1.56,3.95,1.56h9.75c1.53,0,2.91-0.58,4.01-1.68c1.11-1.12,1.67-2.47,1.67-4V70.21
			h31.5v29.35c0,1.55,0.56,2.89,1.67,4c1.09,1.1,2.48,1.68,4.01,1.68h9.75c1.53,0,2.91-0.58,4.01-1.68c1.11-1.11,1.67-2.45,1.67-4
			V21.8c0-1.52-0.58-2.9-1.67-4C414.56,16.7,413.17,16.12,411.65,16.12z"/>
		<path class="st0" d="M528.43,16.47h-9.75c-1.53,0-2.91,0.58-4.01,1.68c-1.09,1.09-1.67,2.48-1.67,4v41.64l-29.38-43.64
			c-0.37-0.46-0.95-1.09-1.75-1.88c-1.2-1.19-2.82-1.8-4.85-1.8h-8.43c-1.53,0-2.91,0.58-4,1.68c-1.1,1.1-1.68,2.48-1.68,4v77.77
			c0,1.54,0.56,2.89,1.67,4.01c1.11,1.11,2.46,1.67,4.01,1.67h9.75c1.53,0,2.91-0.58,4.01-1.68c1.11-1.11,1.67-2.45,1.67-4V58.28
			l29.37,43.62c0.35,0.44,0.91,1.04,1.76,1.9c1.19,1.19,2.82,1.79,4.84,1.79h8.43c1.53,0,2.91-0.58,4.01-1.68
			c1.11-1.11,1.67-2.45,1.67-4V22.15c0-1.52-0.58-2.9-1.67-4C531.34,17.05,529.95,16.47,528.43,16.47z"/>
		<path class="st0" d="M594.55,16.12h-9.75c-1.53,0-2.91,0.58-4.01,1.68c-1.09,1.1-1.67,2.48-1.67,4v77.77
			c0,1.54,0.56,2.88,1.67,4.01c1.09,1.09,2.48,1.67,4.01,1.67h9.75c1.56,0,2.9-0.56,4.02-1.68c1.11-1.13,1.67-2.47,1.67-4V21.8
			c0-1.51-0.58-2.9-1.68-4C597.44,16.68,596.09,16.12,594.55,16.12z"/>
		<path class="st0" d="M668.39,44.32c0.71-1.91,1.75-3.57,3.07-4.93c1.33-1.37,3.02-2.48,5.03-3.31c4.22-1.75,10.76-1.5,14.68-0.23
			c2.03,0.66,3.72,1.52,5.03,2.54c1.28,1.02,2.3,2.16,3.01,3.41c0.73,1.25,1.2,2.54,1.38,3.83c0.26,1.69,1.06,3.06,2.3,3.95
			c1.14,0.83,2.38,1.25,3.71,1.25h9.75c1.48,0,2.81-0.51,3.95-1.51c1.26-1.1,1.87-2.65,1.73-4.35c-0.26-3.47-1.15-7.02-2.65-10.58
			c-1.54-3.63-3.91-6.93-7.04-9.81c-3.1-2.85-7.04-5.19-11.72-6.98c-4.66-1.78-10.34-2.69-16.88-2.69c-5.8,0-11.04,0.89-15.56,2.64
			c-4.53,1.74-8.45,4.23-11.67,7.4c-3.2,3.16-5.72,6.97-7.47,11.35c-1.74,4.31-2.79,9.07-3.12,14.14
			c-0.16,3.11-0.24,6.46-0.24,10.24c0,3.81,0.08,7.17,0.25,10.27c0.33,5.03,1.38,9.78,3.11,14.11c1.77,4.39,4.29,8.21,7.47,11.36
			c3.2,3.16,7.13,5.65,11.67,7.4c4.51,1.75,9.75,2.63,15.56,2.63c6.54,0,12.22-0.9,16.88-2.69c4.67-1.78,8.61-4.13,11.72-6.98
			c3.14-2.87,5.51-6.15,7.04-9.74c1.5-3.52,2.4-7.09,2.66-10.61c0.15-1.75-0.45-3.26-1.73-4.38c-1.14-1.01-2.47-1.51-3.95-1.51
			h-9.75c-1.34,0-2.58,0.43-3.7,1.28c-1.2,0.92-1.94,2.24-2.19,3.91c-0.19,1.29-0.66,2.59-1.38,3.84c-0.7,1.23-1.73,2.36-3.05,3.38
			c-1.36,1.04-3.08,1.91-5.1,2.57c-3.93,1.26-10.49,1.52-14.69-0.24c-2.02-0.83-3.71-1.94-5.03-3.29c-1.34-1.37-2.38-3.02-3.09-4.89
			c-0.75-1.97-1.21-4.14-1.35-6.43c-0.16-2.9-0.24-6.17-0.24-9.98c0-3.78,0.08-7.04,0.23-9.96
			C667.17,48.49,667.63,46.33,668.39,44.32z"/>
		<path class="st0" d="M933.43,85.34h-37.29V21.8c0-1.52-0.58-2.9-1.68-4c-1.12-1.11-2.47-1.68-4.01-1.68h-9.75
			c-1.53,0-2.91,0.58-4,1.68c-1.09,1.1-1.68,2.48-1.68,4v77.77c0,1.54,0.56,2.89,1.67,4c1.09,1.1,2.48,1.68,4.01,1.68h52.73
			c1.54,0,2.92-0.58,4.02-1.68c1.1-1.11,1.66-2.45,1.66-4v-8.55c0-1.52-0.56-2.88-1.68-4.02C936.33,85.91,934.95,85.34,933.43,85.34
			z"/>
		<path class="st0" d="M1057.33,69.13c-1.21-2.89-3.09-5.47-5.56-7.67c-2.39-2.14-5.51-3.99-9.26-5.51
			c-3.65-1.46-7.97-2.73-12.84-3.78c-4.39-0.96-8.06-1.8-11.02-2.52c-2.8-0.68-5.05-1.42-6.7-2.19c-1.38-0.64-2.35-1.37-2.85-2.13
			c-0.49-0.77-0.75-1.84-0.75-3.19c0-1.05,0.26-1.95,0.8-2.74c0.59-0.9,1.42-1.67,2.54-2.33c1.19-0.71,2.62-1.26,4.24-1.64
			c1.69-0.4,3.51-0.6,5.4-0.6c4.34,0,7.59,0.63,9.64,1.87c2.09,1.27,3.67,2.77,4.69,4.46c0.7,1.11,1.52,2.03,2.44,2.75
			c1.13,0.85,2.61,1.27,4.55,1.27h8.43c1.49,0,2.83-0.51,3.96-1.52c1.23-1.09,1.85-2.63,1.71-4.33c-0.19-2.66-1.07-5.48-2.64-8.38
			c-1.55-2.88-3.84-5.55-6.83-7.92c-2.93-2.32-6.61-4.27-10.93-5.8c-4.32-1.53-9.37-2.31-15.02-2.31c-4.72,0-9.19,0.66-13.32,1.98
			c-4.14,1.32-7.77,3.17-10.8,5.51c-3.07,2.38-5.52,5.27-7.28,8.62c-1.79,3.38-2.69,7.13-2.69,11.12c0,3.88,0.54,7.3,1.6,10.17
			c1.09,2.95,2.76,5.53,4.98,7.7c2.18,2.12,4.93,3.93,8.18,5.36c3.16,1.39,6.84,2.59,10.9,3.56c4.33,1.11,8.3,2.05,11.77,2.79
			c3.22,0.7,5.98,1.44,8.19,2.21c1.93,0.68,3.34,1.46,4.2,2.32c0.67,0.66,0.98,1.5,0.98,2.62c0,1.27-0.32,2.28-0.99,3.07
			c-0.82,0.98-1.94,1.82-3.33,2.52c-1.44,0.72-3.18,1.26-5.18,1.58c-4.74,0.75-10.22,0.68-13.65-0.2c-1.82-0.46-3.33-1.04-4.49-1.72
			c-1.09-0.65-1.95-1.38-2.55-2.16c-0.71-0.93-1.34-1.88-1.8-2.73c-0.66-1.33-1.55-2.38-2.64-3.1c-1.13-0.77-2.6-1.13-4.48-1.13
			h-8.42c-1.5,0-2.83,0.51-3.96,1.52c-1.25,1.11-1.85,2.65-1.71,4.32c0.27,3.94,1.49,7.58,3.65,10.82c2.09,3.15,4.9,5.87,8.35,8.1
			c3.38,2.18,7.28,3.86,11.6,5c4.27,1.13,8.82,1.7,13.5,1.7c5.59,0,10.72-0.68,15.25-2.02c4.57-1.35,8.51-3.24,11.71-5.61
			c3.25-2.42,5.8-5.37,7.58-8.78c1.78-3.43,2.67-7.18,2.67-11.17C1059.15,75.24,1058.53,71.97,1057.33,69.13z"/>
	</g>
</g>
</svg>
