<?xml version="1.0" encoding="iso-8859-1"?>
<!-- Generator: Adobe Illustrator 25.2.0, SVG Export Plug-In . SVG Version: 6.00 Build 0)  -->
<svg version="1.1" id="Layer_1" xmlns="http://www.w3.org/2000/svg" xmlns:xlink="http://www.w3.org/1999/xlink" x="0px" y="0px"
	 viewBox="0 0 3150.77 512" style="enable-background:new 0 0 3150.77 512;" xml:space="preserve">
<g>
	<path d="M2218.15,0h-255.2c-6.28,0-9.48,4.74-9.48,9.48v75.63c0,6.28,4.74,9.48,9.48,9.48h67.75c6.28,0,9.48,4.74,9.48,9.48v392.25
		c0,6.28,4.74,9.48,9.48,9.48h78.77c6.28,0,9.48-4.74,9.48-9.48V107.2c0-6.28,4.74-9.48,9.48-9.48h67.75c6.28,0,9.48-4.74,9.48-9.48
		V12.62C2227.57,4.74,2224.43,0,2218.15,0z"/>
	<path d="M1663.63,0h-74.09c-6.28,0-9.48,4.74-9.48,11.02v217.42c0,6.28-1.6,6.28-3.14,0L1487.14,9.48
		c-1.6-4.74-7.88-9.48-14.15-9.48h-70.89c-6.28,0-9.48,4.74-9.48,11.02v488.37c0,6.28,4.74,9.48,9.48,9.48h74.03
		c6.28,0,11.02-4.74,11.02-9.48V269.35c0-6.28,1.6-6.28,3.14,0l94.52,231.57c1.6,4.74,7.88,9.48,14.15,9.48h67.75
		c6.28,0,9.48-4.74,9.48-9.48V12.55C1674.65,4.74,1669.91,0,1663.63,0z"/>
	<path d="M1323.32,0h-215.82c-6.28,0-9.48,4.74-9.48,9.48v488.37c0,6.28,4.74,9.48,9.48,9.48h215.82c6.28,0,9.48-4.74,9.48-9.48
		v-75.63c0-6.28-4.74-11.02-9.48-11.02h-119.75c-6.28,0-6.28-1.6-6.28-6.28v-102.4c0-6.28,1.6-6.28,6.28-6.28h69.29
		c6.28,0,9.48-4.74,9.48-11.02v-74.15c0-6.28-4.74-9.48-9.48-9.48h-69.29c-6.28,0-6.28-1.6-6.28-6.28V102.4
		c0-6.28,1.6-6.28,6.28-6.28h119.75c6.28,0,9.48-3.14,9.48-9.48V11.02C1334.34,4.74,1329.6,0,1323.32,0z"/>
	<path d="M970.46,253.66c-1.6-4.74-1.6-14.15,0-18.89l86.65-223.69c1.6-4.74-1.6-9.48-6.28-9.48h-81.91
		c-6.28,0-11.02,4.74-14.15,9.48l-66.15,179.57c-1.6,4.74-3.14,4.74-3.14,0V11.08c0-6.28-4.74-9.48-9.48-9.48h-75.63
		c-6.28,0-9.48,4.74-9.48,9.48v488.37c0,6.28,4.74,9.48,9.48,9.48H876c6.28,0,9.48-4.74,9.48-9.48V307.26c0-6.28,1.6-6.28,3.14,0
		l75.63,192.18c1.6,4.74,7.88,9.48,14.15,9.48h81.91c6.28,0,9.48-4.74,6.28-9.48L970.46,253.66z"/>
	<path d="M3007.38,253.66c-1.6-4.74-1.6-14.15,0-18.89l86.65-223.69c1.6-4.74-1.6-9.48-6.28-9.48h-81.91
		c-6.28,0-12.62,4.74-14.15,9.48l-66.15,179.57c-1.6,4.74-3.14,4.74-3.14,0V11.08c0-6.28-4.74-9.48-9.48-9.48h-75.63
		c-6.28,0-9.48,4.74-9.48,9.48v488.37c0,6.28,4.74,9.48,9.48,9.48h75.63c6.28,0,9.48-4.74,9.48-9.48V307.26l0,0
		c0-6.28,1.6-6.28,3.14,0l75.63,192.18c1.6,4.74,7.88,9.48,14.15,9.48h81.91c6.28,0,9.48-4.74,6.28-9.48L3007.38,253.66z"/>
	<path d="M398.58,0h-75.63c-6.28,0-9.48,4.74-9.48,9.48v488.37c0,6.28,4.74,9.48,9.48,9.48h75.63c6.28,0,9.48-4.74,9.48-9.48V9.48
		C408,4.74,403.32,0,398.58,0z"/>
	<path d="M1811.69,135.51c0-18.89,15.75-37.78,36.25-37.78c4.74,0,40.98,0,56.74,0l0,0c6.28,0,11.02-4.74,11.02-11.02V12.68l0,0
		c0-6.28-4.74-11.02-11.02-11.02h-70.89c-77.17,0-121.29,53.54-119.75,130.77c0,61.42,36.25,105.54,88.25,151.26
		c28.37,26.77,52,48.86,52,83.51c0,28.37-17.35,45.66-44.12,45.66h-85.05c-6.28,0-9.48,4.74-9.48,11.02v75.63
		c0,6.28,4.74,11.02,11.02,11.02h111.88l0,0c85.05,1.6,116.55-69.29,116.55-143.38c0-70.89-36.25-105.54-80.37-149.66
		C1843.2,187.45,1811.69,162.28,1811.69,135.51z"/>
	<path d="M220.55,245.78c0,0-3.14-1.6-3.14-4.74c0-3.14,3.14-4.74,3.14-4.74c23.63-25.23,28.37-48.86,28.37-74.03V102.4
		c0-72.49-25.23-102.4-104-102.4H11.02C4.74,0,0,4.74,0,11.02v488.37c0,6.28,4.74,11.02,11.02,11.02H154.4
		c74.03,0,104-53.54,104-127.63v-42.52C256.8,289.85,248.92,266.22,220.55,245.78z M94.52,97.66c0-6.28,1.6-6.28,6.28-6.28h25.23
		c22.03,0,29.91,15.75,29.91,58.28c0,45.66-12.62,53.54-29.91,53.54H102.4c-6.28,0-6.28-1.6-6.28-6.28V97.66L94.52,97.66
		L94.52,97.66z M132.31,419.08H102.4c-6.28,0-6.28-1.6-6.28-6.28V305.66c0-6.28,1.6-6.28,6.28-6.28h29.91
		c23.63,0,28.37,20.49,29.91,58.28C162.28,406.46,154.4,419.08,132.31,419.08z"/>
	<path d="M666.4,299.32L666.4,299.32l9.48-3.14c25.23-12.62,50.4-39.38,50.4-91.38v-94.52c0-89.78-53.54-108.68-118.15-108.68
		H482.09c-6.28,0-11.02,4.74-11.02,11.02v488.37c0,6.28,4.74,11.02,11.02,11.02h74.03c6.28,0,11.02-4.74,11.02-11.02V308.8
		c0-6.28,1.6-6.28,3.14,0l77.17,192.18c1.6,4.74,7.88,9.48,14.15,9.48h78.77c6.28,0,9.48-4.74,7.88-9.48L666.4,299.32z
		 M603.38,212.68h-29.91c-6.28,0-6.28-1.6-6.28-6.28V97.72c0-6.28,1.6-6.28,6.28-6.28h29.91c23.63,0,28.37,20.49,29.91,58.28
		C633.29,201.66,625.42,212.68,603.38,212.68z"/>
	<path d="M2780.55,1.6h-33.11c-148.06,0-167.02,105.54-167.02,253.66s18.89,255.2,167.02,255.2l0,0h33.11
		c6.28,0,11.02-4.74,11.02-11.02v-75.63c0-6.28-4.74-11.02-11.02-11.02h-33.11c-58.28,0-67.75-26.77-67.75-159.14
		c0-130.77,9.48-157.54,67.75-157.54h33.11c6.28,0,11.02-4.74,11.02-11.02V9.48C2790.03,4.74,2785.29,1.6,2780.55,1.6z"/>
	<path d="M2389.85,0c-148.06,0-157.54,105.54-157.54,253.66s9.48,255.2,157.54,255.2c148.06,0,157.54-107.14,157.54-255.2
		S2537.97,0,2389.85,0z M2389.85,414.34c-58.28,0-59.88-28.37-59.88-160.68c0-130.77,1.6-163.82,59.88-163.82
		c58.28,0,59.88,31.51,59.88,163.82S2448.12,414.34,2389.85,414.34z"/>
	<path d="M3103.51,200.06c-26.77,0-47.26,20.49-47.26,47.26c0,26.77,20.49,47.26,47.26,47.26s47.26-20.49,47.26-47.26
		S3130.28,200.06,3103.51,200.06z M3103.51,286.71c-22.03,0-39.38-17.35-39.38-39.38c0-22.03,17.35-39.38,39.38-39.38
		s39.38,17.35,39.38,39.38C3142.89,269.42,3125.54,286.71,3103.51,286.71z"/>
	<path d="M3114.52,250.46c6.28-1.6,11.02-7.88,11.02-14.15c0-9.48-6.28-15.75-17.35-15.75h-20.49c-1.6,0-1.6,0-1.6,1.6v48.86
		c0,1.6,0,1.6,1.6,1.6l0,0l0,0h6.28c1.6,0,1.6,0,1.6-1.6v-18.89c0,0,0-1.6,1.6-1.6h9.48l9.48,18.89c0,1.6,1.6,1.6,1.6,1.6h6.28
		c1.6,0,1.6,0,1.6-1.6L3114.52,250.46z M3106.65,244.18h-11.02c0,0-1.6,0-1.6-1.6v-12.62c0,0,0-1.6,1.6-1.6h11.02
		c6.28,0,9.48,3.14,9.48,7.88C3116.12,241.05,3112.98,244.18,3106.65,244.18z"/>
</g>
</svg>
