<?xml version="1.0" encoding="iso-8859-1"?>
<!-- Generator: Adobe Illustrator 26.1.0, SVG Export Plug-In . SVG Version: 6.00 Build 0)  -->
<svg version="1.1" id="Layer_1" xmlns="http://www.w3.org/2000/svg" xmlns:xlink="http://www.w3.org/1999/xlink" x="0px" y="0px"
	 viewBox="0 0 1115.1 512" style="enable-background:new 0 0 1115.1 512;" xml:space="preserve">
<g id="TNF" transform="translate(0 -5)">
	<path id="Path_1274" d="M162,491.1h4.5c3.9,0,7.5-0.2,7.5-4.7c0-3.8-3.2-4.4-6.2-4.4H162V491.1z M157.5,478.6h11
		c6.8,0,9.9,2.6,9.9,8.1s-3.2,7.3-7.5,7.7l8.1,12.5h-4.7l-7.7-12.2H162v12.2h-4.5L157.5,478.6z M167,513.5c11.4,0.4,21-8.6,21.4-20
		c0.4-11.4-8.6-21-20-21.4s-21,8.6-21.4,20c0,0.2,0,0.4,0,0.6c-0.4,11.1,8.2,20.4,19.2,20.8C166.4,513.5,166.7,513.5,167,513.5z
		 M521.3,350.3c47.4,0,66.4,32.6,68.3,56h-33.2c-2.5-17-17.9-29-35-27.3c-15.8,0-39.3,10.6-39.3,55.3c0,28.4,11.3,54,39.3,54
		c17.7,0.8,32.9-12.2,35-29.8h33.1c-3.9,34.6-34,60.1-68.7,58.4c-42.1,0-72.2-28.3-72.2-83C448.5,378.6,480.4,350.3,521.3,350.3z
		 M167,468.5c13.3,0.2,24,11.1,23.8,24.5c-0.2,13.3-11.1,24-24.5,23.8s-24-11.1-23.8-24.5c0.1-6.4,2.7-12.4,7.2-16.9
		C154.3,471,160.5,468.4,167,468.5z M748.4,179.6c109.3,0.1,198,88.5,198.5,197.8l0,0v134.9H833.1v-89.6
		c0.1-46.8-37.9-84.9-84.7-84.9c-0.1,0-0.1,0-0.2,0H741V179.6H748.4z M324.6,353.9v28h-79.5v35.7h69.6v28.1h-69.6v66.5h-33V353.9
		H324.6z M399.2,353.9L455,512.2h-36l-10.1-32.6h-58.4l-11,32.6h-34.8l56.5-158.2H399.2z M748.2,353.9c37.9,0,68.6,30.7,68.6,68.5
		c0,0,0,0.1,0,0.1l0,0v89.6H741V353.9H748.2z M716.6,353.9v28h-83.1v33.2h73.2v28h-73.2v41h83.1v27.9H602.8V354L716.6,353.9z
		 M748.2,5c202.4-0.1,366.7,163.9,366.8,366.3c0,0.1,0,0.2,0,0.4l0,0l0.1,140.3H963.2V375.4l-0.1-4.5
		c-3.8-115.8-98.9-207.8-214.8-207.7H741V5H748.2z M380,389.7h-0.4l-20.3,62.6h40.3L380,389.7z M296,258.6c0,74.3-55.1,83.3-76,83.3
		s-76-9-76-83.3c0-72.9,53.1-82.9,74.8-83.3h1.2C240.8,175.3,296,184.3,296,258.6z M576.9,179.5v27.9h-47.7v130.3h-33V207.4h-47.9
		v-27.9H576.9z M621.8,179.5v59.9h61.7v-59.9h33.1v158.2h-33.1v-70.9h-61.7v70.9h-33.1V179.5L621.8,179.5z M34.9,179.5l62.7,110.1
		h0.5V179.5h30.8v158.2h-33L31.3,224.9h-0.4v112.8H0V179.5L34.9,179.5z M389.7,179.6c42.1,0,49.8,31.1,49.8,44.8
		c0.9,16.5-9,31.7-24.4,37.6c13,5.7,20,10.5,20,40.1v5.9c0.1,18.3,0.6,23.2,7.1,25.7v3.9h-36.6c-2.8-10.4-4-21.1-3.5-31.9
		c0-21.6-1.3-30-25.8-30h-34.1v61.9h-32.4V179.6H389.7z M219.9,203.3c-17.8,0-42.9,11.1-42.9,55.3s25.2,55.3,42.9,55.3
		c17.9,0,42.9-11,42.9-55.3S237.7,203.3,219.9,203.3z M383.4,206.8h-41.2v42.3h38.8c17.2,0,25.6-6,25.6-21.6
		C406.5,219.2,402.7,206.8,383.4,206.8L383.4,206.8z M449.1,5v28h-47.8v130.2h-32.9V33h-48V5H449.1z M493.9,5v59.9h61.7V5h33.1
		v158.2h-33.1v-71h-61.7v71h-33.1V5H493.9z M716.6,5v28h-83.1v33.3h73.2v27.9h-73.2v41h83.1v27.9H602.8V5H716.6z"/>
</g>
</svg>
