<?xml version="1.0" encoding="iso-8859-1"?>
<!-- Generator: Adobe Illustrator 25.2.0, SVG Export Plug-In . SVG Version: 6.00 Build 0)  -->
<svg version="1.1" id="Warstwa_1" xmlns="http://www.w3.org/2000/svg" xmlns:xlink="http://www.w3.org/1999/xlink" x="0px" y="0px"
	 viewBox="0 0 863.32 512" style="enable-background:new 0 0 863.32 512;" xml:space="preserve">
<g>
	<path d="M308.3,259.17h42.48c1-0.31,1.79-1.08,2.12-2.07c0,0,65.83-223.04,74.46-252.65c0.47-1.29-0.86-2.76-2.94-2.76L382.89,1.9
		c-1.02,0.31-1.83,1.08-2.2,2.07l-73.9,250.36C306.14,256.71,306.83,259.21,308.3,259.17z"/>
	<path d="M390.4,258.78l41.78-0.26c0.99-0.27,1.79-1.01,2.12-1.99l30.22-103.6c1.08-3.63,1.94-3.71,5.65-3.71
		c3.71,0,4.32,1.25,4.62,5.22l3.37,99.63c0,0,0,4.32,3.19,4.32c7.77,0,30.65,0,38.12,0c0.99,0,3.63,0,3.24-3.8
		c-1.47-23.48-8.63-136.06-8.63-136.14c-0.94-4.31,0.38-8.8,3.5-11.91L588.79,6.22c2.68-4.32,0.86-5.14-1.29-5.14
		c-11.87,0-36.39,0-36.39,0c-1.76,0.02-3.38,0.93-4.32,2.42l-48.82,69.07c-1.9,3.15-4.32,2.76-7.12,2.76
		c-2.81,0-3.37-0.39-3.24-2.33c0.29-1.79,0.73-3.55,1.29-5.27c0,0,13.34-42.86,18.69-59.96c1.12-4.32,2.12-6.3-2.85-6.3
		c-11.01,0-7.12,0-36.39,0c-5.57,0-6,2.46-6.39,3.58c0,0-61.81,209.87-73.12,248.16C387.98,256.15,388.5,258.78,390.4,258.78z"/>
	<g>
		<path d="M137.49,260.07l42.86-0.26c0.47,0,1.42,0,2.03-2.07l34.83-117.15c1.17-4.32,0.82-5.53,5.91-5.53
			c3.11,0,4.01-0.35,3.97,5.44c0,0.22-2.37,95.4-3.02,114.78c0,4.32,1.04,4.32,2.2,4.32l43.86-0.22c0.47,0,1.47,0,2.16-2.03
			L346.93,4.92c0.47-2.37-0.82-2.85-2.59-2.85h-41.27c-1.6,0-2.46,0.56-2.76,2.07l-31.99,106.49c-1.86,4.96-1.21,5.22-6,5.27
			c-4.79,0.04-4.01-1.12-3.88-5.27c0-0.35,4.32-86.33,5.09-104.16c0.22-3.5-0.95-3.97-2.76-3.97c-10.71,0-48.04,0.26-48.04,0.26
			c-1.17,0-1.73,0.86-1.99,2.03c0,0-64.75,219.11-74.25,251.74C135.59,259.81,136.54,260.07,137.49,260.07z"/>
		<path d="M861.34,174.35l-148.58,44.37l0,0l-31.6,9.45h0.39l-4.32,1.29l-27.97,8.33l5.53-20.5c0.52-2.42,0.39-4.32-3.11-4.32
			h-50.33c-4.75,0-4.83-1.81-4.62-2.81l19.04-63.84c1.38-4.58,2.2-5.22,6.78-5.22l40.4-0.47c2.04,0.05,3.85-1.33,4.32-3.32
			c0,0,6.39-21.97,9.02-31.3c0.46-1.55-0.42-3.19-1.98-3.65c-0.37-0.11-0.75-0.14-1.13-0.11l-40.19,0.39
			c-2.59,0-3.06-3.32-2.68-4.32l15.24-52.27c1.21-4.58,2.2-5.35,6.78-5.35h39.8c2.59,0,3.84-0.99,4.06-2.07
			c0,0,7.6-25.9,10.53-35.35c0.47-2.37,0-3.28-3.88-3.28C686,0,630.14,0.43,616.5,0.43c-3.15,0-4.32,1.17-5.05,4.32
			c-1.55,5.31-54.09,187.56-70.23,243.93c-1.55,5.09-1.9,7.86,1.77,8.63h39.76l-303.67,90.65
			c-60.43,18.09-108.95,34.53-137.66,15.32c-62.59-42.35-33.76-143.7-14.76-183.71c0,0,0.73-1.55-0.26-2.42
			c-0.59-0.53-1.48-0.53-2.07,0c-27.41,32.5-59.57,66.04-81.84,102.78C-2.62,353.7-12.42,422.81,16.02,464.77
			c41.7,61.77,128.55,63.02,258.17,3.37l587.92-290.42c0,0,1.47-0.82,1.17-2.16c-0.16-0.84-0.97-1.4-1.82-1.24
			C861.42,174.32,861.38,174.33,861.34,174.35z"/>
	</g>
</g>
</svg>
