<?xml version="1.0" encoding="iso-8859-1"?>
<!-- Generator: Adobe Illustrator 25.2.0, SVG Export Plug-In . SVG Version: 6.00 Build 0)  -->
<svg version="1.1" id="Warstwa_1" xmlns="http://www.w3.org/2000/svg" xmlns:xlink="http://www.w3.org/1999/xlink" x="0px" y="0px"
	 viewBox="0 0 817.09 512" style="enable-background:new 0 0 817.09 512;" xml:space="preserve">
<g>
	<polygon points="442.32,356.39 410.75,261.12 379.19,356.39 278.89,356.96 359.7,416.36 329.24,512 410.75,453.46 492.27,512 
		461.81,416.36 542.62,356.96 	"/>
	<path d="M391.27,167.69c13.43,0,17.15-7.08,19-19.16l13.39-87.78l0.41-1.64v-1.06c-0.05-0.33-0.05-0.66,0-0.98
		c0.18-0.89,0.28-1.79,0.29-2.7c0-4.71-1.72-12.61-13.51-12.61h-10.48l-19.32,125.93H391.27z"/>
	<path d="M314.63,316.92l-1.15,7.37h63.46l16.66-107.67h21.53c26.16,0,42.66-8.19,50.85-25.18l-19.36,125.48h8.93l-1.15,7.37h63.46
		L566.98,4.95h-11.5l0.74-4.79h-60.67l-6.02,38.93c-2.01-14.21-11.01-24.56-25.59-29.89C453.82,3.1,442.18,0,430.36,0.29h-75.74
		L305.5,317.04L314.63,316.92z M502.13,8.76h43.52l-1.15,7.37h0.78l-45.03,292.19h-44.38L502.13,8.76z M361.22,8.76h68.33
		c10.6,0,26.28,2.37,34.72,12.57l1.19,0.57c3.73,4.94,5.65,11.01,5.45,17.19c-0.08,4.36-0.54,8.7-1.39,12.98l-0.41,4.42
		l-16.66,106.44l-0.45,4.34c-3.81,23.7-17.15,33.37-46.1,33.37h-30.09l-16.38,107.67h-44.46L361.22,8.76z"/>
	<path d="M303.04,324.29L352.17,4.95h-11.34l0.78-4.79h-82.29l-11.83,47.37l2.66-42.54h-10.93l0.29-4.79h-82.17l-48.88,316.71h8.93
		l-1.15,7.37h58.95l5.32-33.98l-0.66,26.61h8.19v7.37h43.72l7.57-26.49l-2.74,19.12h8.88l-1.11,7.37H303.04z M215.06,308.32h-27.31
		l4.09-170.23l-7.82-0.74l-26.65,170.93h-39.51l46.1-299.52h65.5l-0.49,7.37h0.78l-8.52,135.92l7.74,1.19L265.25,8.76h65.5
		l-1.15,7.37h0.74l-45.03,292.19h-39.67l26.04-169.66l-7.66-1.68L215.06,308.32z"/>
	<path d="M626.92,41.76h-11.75L599.53,144.6h8.88c12.28,0,18.26-5.28,19.9-17.24l0.94-4.46l9.25-61.94l0.37-2.66
		c0.49-1.31,0.7-2.7,0.61-4.09c0.47-6.4-4.33-11.98-10.74-12.45C628.14,41.7,627.53,41.71,626.92,41.76z"/>
	<path d="M102.11,271.56l0.78-4.79H80.2l14.12-90.31h35.17l8.19-52.73h-12.94l0.74-4.79H102.8l9.54-61.41h35l8.19-52.73h-12.77
		L143.5,0H48.88L0,316.92h8.92l-1.15,7.37h99.2l8.19-52.73L102.11,271.56z M91.71,282.69l-4.09,25.63H9.25L55.52,8.76h77.21
		l-1.15,7.37h0.78l-4.09,25.63H94.65l-13.35,85.73h33.41l-0.94,7.37h0.78l-4.09,25.63H76.64L58.67,275.32h33.41l-1.15,7.37H91.71z"
		/>
	<path d="M808.9,57.73l8.19-52.73h-11.42l0.74-4.79h-94.7l-6.47,42c-0.25-15.32-10.33-28.74-24.97-33.24
		c-7.25-5.04-17.93-8.52-33.69-8.76h-77.13l-49.13,316.71h8.92l-1.15,7.37h63.5l1.15-7.37h7.21l-1.15,7.37h63.95l1.11-7.37h7.7
		l-1.15,7.37h97.64l8.19-52.73h-11.5l0.74-4.79h-22.44l14.12-90.31h33.73l8.19-52.73h-11.5l0.74-4.79h-22.68l9.54-61.41L808.9,57.73
		z M648.82,156.92l-0.86,8.19c3.11,1.41,6.1,3.08,8.93,4.99v0.53c1.34,0.99,2.54,2.16,3.56,3.48l1.31,0.7
		c1.6,2.33,2.4,5.12,2.29,7.94c0.01,2.24-0.1,4.48-0.33,6.71L645.26,308.2h-44.79l16.87-109.43l0.37-2.46c0.55-2,0.9-4.04,1.06-6.1
		c0-12.61-11.34-12.61-16.79-12.61h-7.53l-20.47,130.72h-44.22L576.03,8.76h69.6c16.38,0.29,27.72,4.09,33.94,11.91l1.19,0.57
		c3.68,5.04,5.54,11.17,5.28,17.4c-0.06,2.21-0.33,4.4-0.82,6.55l-0.49,5.28l-11.55,73.69l-0.49,2.87
		C669.37,149.64,666.92,152.71,648.82,156.92z M688.53,150.41l-5.69,36.07c-0.72-7.06-4.45-13.46-10.24-17.56
		C680.68,165.81,686.66,158.86,688.53,150.41z M753.06,127.49h24.56l-1.15,7.37h0.53l-4.09,25.63h-33.73l-17.93,114.84h33.41
		l-1.15,7.37h0.78l-4.09,25.63h-78.11L718.3,8.76h77.25l-1.15,7.37h0.78l-4.09,25.63H757.4l-13.14,85.73L753.06,127.49z"/>
</g>
</svg>
