<?xml version="1.0" encoding="iso-8859-1"?>
<!-- Generator: Adobe Illustrator 25.2.0, SVG Export Plug-In . SVG Version: 6.00 Build 0)  -->
<svg version="1.1" id="Layer_1" xmlns="http://www.w3.org/2000/svg" xmlns:xlink="http://www.w3.org/1999/xlink" x="0px" y="0px"
	 viewBox="0 0 1372.64 512" style="enable-background:new 0 0 1372.64 512;" xml:space="preserve">
<g>
	<path d="M914.16,0C752.18,0,620.42,131.1,620.42,293.75h587.49C1208.61,131.1,1076.81,0,914.16,0z M654.06,265.6
		c4.13-61.07,41.18-135.2,69.33-159.22c4.8-4.8,17.85-8.23,28.15,7.56c10.29,15.79,41.88,95.39,44.61,151.69
		C796.12,265.6,654.06,265.6,654.06,265.6z M813.98,265.6c-2.06-63.14-13.03-118.74-37.05-172.28c-3.43-7.56-6.17-24.72,5.5-33.62
		c29.52-20.59,77.56-35.01,132.46-35.01c54.21,0,96.78,12.36,131.77,35.01c12.36,10.99,8.93,25.39,5.5,33.62
		c-24.02,52.84-35.68,109.81-37.05,172.28L813.98,265.6L813.98,265.6z M1076.81,113.94c10.29-15.79,24.02-12.36,28.15-7.56
		c28.15,24.02,65.2,98.15,69.33,159.22h-142.06C1034.96,209.33,1066.52,129.7,1076.81,113.94z"/>
	<path d="M470.82,218.25c-23.32,6.86-61.77,7.56-83.05,7.56h-27.45v9.6h22.65v262.86h-22.65v9.6h133.13v-9.6h-22.65V218.25H470.82z"
		/>
	<path d="M328.06,218.25c-23.32,6.86-61.77,7.56-83.05,7.56h-27.45v9.6h22.65v262.86h-22.65v9.6h133.13v-9.6h-22.65V218.25H328.06z"
		/>
	<path d="M781.03,345.89c0-29.52,83.72-17.16,99.52,28.82h5.5v-56.97h-7.56c0,0-0.7,15.79-13.73,15.79s-31.58-14.42-72.06-14.42
		c-48.74,0-75.49,36.38-75.49,64.5c0,92.65,129.03,68.63,122.17,101.58c-5.5,28.15-71.37,13.03-91.96-13.73
		c-8.93-11.66-13.73-19.89-15.79-29.52h-7.56v70h8.23c0,0,4.8-15.79,14.42-15.79c10.29,0,45.31,15.09,73.43,15.09
		c78.93,0,86.49-45.98,86.49-67.26C908,360.31,781.03,379.54,781.03,345.89z"/>
	<path d="M976.63,345.89c0-29.52,83.72-17.16,99.52,28.82h5.5v-56.97h-7.56c0,0-0.7,15.79-13.73,15.79s-31.58-14.42-72.06-14.42
		c-48.74,0-75.49,36.38-75.49,64.5c0,92.65,129.03,68.63,122.84,101.58c-5.5,28.15-71.37,13.03-91.96-13.73
		c-8.93-11.66-13.73-19.89-15.79-29.52h-7.56v70h8.23c0,0,4.8-15.79,14.42-15.79c10.29,0,45.31,15.09,73.43,15.09
		c78.93,0,86.49-45.98,86.49-67.26C1102.9,360.31,976.63,379.54,976.63,345.89z"/>
	<path d="M622.48,496.21c-37.05,0-39.81-37.05-39.81-61.77v-10.99h124.9c0-28.15-10.99-105.68-107.08-105.68
		c-59.03,0-114.61,29.52-114.61,97.45c0,81.66,81.66,96.78,114.61,96.78c70,0,94.72-35.01,109.81-53.54l-6.86-6.86
		C680.15,481.12,652,496.21,622.48,496.21z M582.67,351.39c0-13.73,6.86-20.59,19.22-20.59s18.53,6.86,18.53,20.59v61.07h-37.75
		V351.39z"/>
	<path d="M1248.39,496.21c-37.05,0-39.81-37.05-39.81-61.77v-10.99h124.9c0-28.15-10.99-105.68-107.08-105.68
		c-59.03,0-114.61,29.52-114.61,97.45c0,81.66,81.66,96.78,114.61,96.78c70,0,94.72-35.01,109.81-53.54l-6.86-6.86
		C1305.36,481.12,1277.24,496.21,1248.39,496.21z M1208.61,351.39c0-13.73,6.86-20.59,19.22-20.59c11.66,0,18.53,6.86,18.53,20.59
		v61.07h-37.75L1208.61,351.39L1208.61,351.39z"/>
	<path d="M216.89,451.6c-23.32,29.52-51.47,44.61-80.29,44.61c-37.05,0-39.81-37.05-39.81-61.77v-10.99h124.9
		c0-28.15-10.99-105.68-107.08-105.68C55.6,317.77,0,347.28,0,415.22C0,496.88,81.66,512,114.61,512c70,0,94.72-35.01,109.81-53.54
		L216.89,451.6z M96.78,351.39c0-13.73,6.86-20.59,19.22-20.59s18.53,6.86,18.53,20.59v61.07H96.78V351.39z"/>
	<path d="M1335.58,266.96c-17.85,0-35.68,15.09-35.68,36.38c0,19.89,16.46,36.38,36.38,36.38c20.59,0,36.38-16.46,36.38-36.38
		C1372.63,284.82,1358.2,266.96,1335.58,266.96z M1336.25,334.93c-17.16,0-30.88-13.73-30.88-30.88c0-15.79,12.36-30.88,31.58-30.88
		c15.09,0,30.88,13.03,30.88,30.88C1367.13,320.5,1353.4,334.93,1336.25,334.93z"/>
	<path d="M1344.48,303.34L1344.48,303.34c4.8-1.37,6.86-5.5,6.86-9.6c0-6.17-4.8-10.29-11.66-10.29h-17.85v38.44h4.8v-16.46h12.36
		c4.8,0,6.17,3.43,6.17,6.86c0.7,3.43,0,7.56,1.37,9.6h5.5c-2.06-2.73-2.06-6.86-2.06-10.99
		C1349.97,308.14,1349.3,304.71,1344.48,303.34z M1337.61,301.28h-10.99v-13.03h13.03c4.8,0,6.86,2.73,6.86,6.17
		C1346.54,299.91,1342.44,301.28,1337.61,301.28z"/>
</g>
</svg>
