<?xml version="1.0" encoding="utf-8"?>
<!-- Generator: Adobe Illustrator 27.5.0, SVG Export Plug-In . SVG Version: 6.00 Build 0)  -->
<svg version="1.1" id="Warstwa_1" xmlns="http://www.w3.org/2000/svg" xmlns:xlink="http://www.w3.org/1999/xlink" x="0px" y="0px"
	 viewBox="0 0 1074.27 585.44" style="enable-background:new 0 0 1074.27 585.44;" xml:space="preserve">
<style type="text/css">
	.st0{fill:#17151A;}
	.st1{fill-rule:evenodd;clip-rule:evenodd;fill:#17151A;}
</style>
<g>
	<path class="st0" d="M2.87,582.18h23.95v-47.54c0-8.46,0-18.92,4.34-25.04c4.31-6.64,12.06-8.81,16.39-8.81
		c20.17,0,20.17,23.78,20.17,32.05v49.35h23.94v-54.02c0-7.76,0-24.49-9.19-35.47c-8.28-10.09-21.43-13.9-30.07-13.9
		c-15.14,0-23.42,8.31-27.38,12.09v-8.67H2.87V582.18"/>
	<path class="st1" d="M122.19,523.65c4.5-18.55,19.46-23.41,28.29-23.41c11.89,0,24.31,7.38,27,23.41H122.19 M200.56,542.93
		c0.69-3.23,1.44-7.37,1.44-12.05c0-25.2-20-52.62-51.7-52.62c-30.8,0-52.59,25.96-52.59,54.23c0,29.16,23.05,52.95,52.77,52.95
		c23.41,0,42.49-16.73,48.27-34.75h-25.23c-4.5,8.28-12.42,12.78-23.04,12.78c-17.11,0-26.48-14.05-27.56-20.54H200.56
		L200.56,542.93z"/>
	<polyline class="st0" points="232.72,582.18 247.46,582.18 266.4,517.35 266.74,517.35 285.49,582.18 300.26,582.18 336.82,482.22 
		311.24,482.22 292.86,543.28 292.51,543.28 276.28,482.22 257.21,482.22 240.8,543.28 240.46,543.28 222.26,482.22 196.71,482.22 
		232.72,582.18 	"/>
	<path class="st1" d="M405.65,530.87c0-14.59,11.35-30.08,29.72-30.08c15.14,0,29.19,11.69,29.19,31.17
		c0,19.42-13.15,31.5-28.82,31.5C421.7,563.46,405.65,553.02,405.65,530.87 M383.18,582.18h21.95v-12.07
		c5.94,6.68,14.42,15.32,33.7,15.32c36.55,0,49.7-33.68,49.7-53.68c0-26.45-19.8-52.96-50.24-52.96c-11.18,0-22.9,4.17-31.17,12.45
		v-42.33h-23.94L383.18,582.18L383.18,582.18z"/>
	<path class="st1" d="M577.66,531.96c0,18.54-12.62,31.5-29.2,31.5c-17.11,0-29.72-13.87-29.72-30.8
		c0-14.94,10.09-31.87,29.72-31.87C562.68,500.79,577.66,511.23,577.66,531.96 M600.35,482.22h-21.99v12.65h-0.37
		c-0.72-1.46-12.8-16.07-33.13-16.07c-27.72,0-50.07,22.16-50.07,52.8c0,33.31,22.89,53.84,48.64,53.84
		c12.59,0,27.38-6.68,34.93-15.64v12.39h21.99V482.22z"/>
	<rect x="613.08" y="448.91" class="st0" width="23.95" height="133.27"/>
	<path class="st1" d="M727.05,531.96c0,18.54-12.6,31.5-29.17,31.5c-17.12,0-29.72-13.87-29.72-30.8
		c0-14.94,10.09-31.87,29.72-31.87C712.11,500.79,727.05,511.23,727.05,531.96 M749.76,482.22h-21.97v12.65h-0.37
		c-0.72-1.46-12.8-16.07-33.13-16.07c-27.76,0-50.08,22.16-50.08,52.8c0,33.31,22.88,53.84,48.63,53.84
		c12.6,0,27.36-6.68,34.95-15.64v12.39h21.97V482.22z"/>
	<path class="st0" d="M762.51,582.18h23.94v-47.54c0-8.46,0-18.92,4.33-25.04c4.32-6.64,12.09-8.81,16.4-8.81
		c20.16,0,20.16,23.78,20.16,32.05v49.35h23.97v-54.02c0-7.76,0-24.49-9.21-35.47c-8.28-10.09-21.41-13.9-30.06-13.9
		c-15.15,0-23.41,8.31-27.39,12.09v-8.67h-22.15v99.96"/>
	<path class="st0" d="M936.41,549.59c-6.31,10.09-14.22,13.87-22.15,13.87c-18.03,0-30.08-14.23-30.08-31.34
		c0-20.54,14.42-31.33,28.99-31.33c14.77,0,20.36,9.54,23.23,14.58h27.03c-10.27-30.8-37.67-36.58-50.26-36.58
		c-27.57,0-52.94,22.36-52.94,52.96c0,33.14,27.53,53.68,53.13,53.68c23.41,0,41.95-13.51,50.08-35.84H936.41"/>
	<path class="st1" d="M991.62,523.65c4.52-18.55,19.46-23.41,28.28-23.41c11.9,0,24.31,7.38,27,23.41H991.62 M1069.97,542.93
		c0.71-3.23,1.43-7.37,1.43-12.05c0-25.2-19.98-52.62-51.68-52.62c-30.8,0-52.6,25.96-52.6,54.23c0,29.16,23.06,52.95,52.77,52.95
		c23.41,0,42.51-16.73,48.26-34.75h-25.21c-4.52,8.28-12.42,12.78-23.06,12.78c-17.12,0-26.49-14.05-27.54-20.54H1069.97
		L1069.97,542.93z"/>
	<path class="st1" d="M556.04,135.69l37.18-64.5l125.82-8.07l4.39-7.83l-116.39-8.13l27.22-47.27L850.1-0.13
		c66.37,0,115.47,23.74,96.39,93.52c-5.74,21.14-32.74,74.37-111.85,96.67c16.79,1.99,58.62,20.52,51.41,68.57
		c-12.8,85.2-123.11,125.76-184.47,125.78l-254.81,0.12l-12.56-49.29l133.47-9.41l4.53-7.81l-144.76-8.82l-15.59-58.44l205.97-12.02
		l4.48-7.75l-370.05-23.35l17.72-30.77l398.32-25.85l4.51-7.75L556.04,135.69 M722.71,148.48l36.81-0.24
		c24.51-0.13,50.06-11.34,59.41-34.08c8.62-21.09-2.96-39.05-18.33-38.99l-35.61-0.04L722.71,148.48z M680.43,221.96l-44.31,76.82
		h42.2c19.56,0,54.61-9.76,65.39-37.61c9.99-25.88-8.38-39.24-21.19-39.24L680.43,221.96z M359.01,340.5l-25.56,43.94l-183.09,0.2
		l17.73-30.77L359.01,340.5z M371.93-0.11L519.1,0l11.11,41.72L354.24,30.66L371.93-0.11z M538.61,74.68l16.05,61.01l-251.43-16.53
		l17.73-30.78L538.61,74.68z M410.53,250.83l-32.01,55.28l-177.19-9.97l17.74-30.79L410.53,250.83z"/>
</g>
</svg>
