<?xml version="1.0" encoding="iso-8859-1"?>
<!-- Generator: Adobe Illustrator 25.2.1, SVG Export Plug-In . SVG Version: 6.00 Build 0)  -->
<svg version="1.1" id="Layer_1" xmlns="http://www.w3.org/2000/svg" xmlns:xlink="http://www.w3.org/1999/xlink" x="0px" y="0px"
	 viewBox="0 0 1249.1 512" style="enable-background:new 0 0 1249.1 512;" xml:space="preserve">
<style type="text/css">
	.st0{fill:#1D1D1B;}
</style>
<path class="st0" d="M1102,31.3c3.1-0.2,5.9-0.9,8.4-1.9c2.4-1,4.4-2.7,5.8-4.9c1.5-2.2,2.2-5.3,2.2-9.3c0-3.3-0.7-6-2-8
	s-3-3.5-5-4.6c-2-1-4.4-1.8-7.1-2.1c-1.1-0.2-2.3-0.3-3.4-0.4h-25.1v31.6h16.2C1095.6,31.6,1098.9,31.5,1102,31.3z M1043.2,89.3
	c6.3,6.6,13.8,11.7,22.4,15.4c8.6,3.7,18,5.6,28,5.6c9.9,0,19.2-1.9,27.7-5.6s16-8.9,22.3-15.4c6.3-6.6,11.3-14.3,14.9-23.2
	s5.4-18.7,5.4-29.2c0-10.2-1.8-19.8-5.4-28.6c-1.2-2.9-2.6-5.6-4-8.3h-24.3c2.5,4.2,3.8,9.5,3.8,15.8c0,9-2.5,15.6-7.6,19.8
	c-5,4.2-11.3,6.7-18.8,7.4l28.6,44.2h-16.7l-27.2-43h-16.5v43h-15.5V0h-27.9c-1.5,2.6-2.8,5.4-4,8.3c-3.6,8.9-5.4,18.4-5.4,28.6
	c0,10.5,1.8,20.3,5.4,29.2C1031.9,75,1036.9,82.8,1043.2,89.3z M440.1,171.2c-21.7,0-33.2,16.9-33.4,34.3h69.7
	C476.4,185,463.5,171.2,440.1,171.2z M624.5,512c9.7-6,252.3-162.2,504.4,0L1249.1,0h-78c0.5,1.1,1.1,2.1,1.6,3.2
	c4.6,10.4,6.9,21.6,6.9,33.6c0,12.4-2.3,23.8-6.9,34.3c-4.6,10.4-10.7,19.5-18.5,27.2s-16.9,13.7-27.2,18
	c-10.4,4.3-21.4,6.4-33.2,6.4c-11.7,0-22.8-2.1-33.3-6.4s-19.6-10.3-27.5-18s-14.1-16.8-18.6-27.2c-4.6-10.5-6.9-21.9-6.9-34.3
	c0-12.1,2.3-23.2,6.9-33.6c0.5-1.1,1.1-2.1,1.6-3.2H0l120.1,512C372.3,349.8,614.8,506,624.5,512z M330.1,310.9H165.9v-171h73.8
	v124.5h90.4V310.9z M550.9,239.9H406.8c0,22.2,18.8,39.1,44,39.1c14.9,0,28.5-4.9,38.2-18.3h57.5c-18.8,43.1-55.2,55.4-104.9,55.4
	c-64.6,0-110.2-35-110.2-90.3c0-59.2,45-90.4,110.2-90.4c73,0,109.6,47.3,109.6,92.9C551.1,232,551.4,235.8,550.9,239.9z
	 M684.5,311.1h-62.2l-92.9-171.4h83.8l53.3,104.2l1.5,3.1l1.3-3.1l49.8-104.2h50.3L684.5,311.1z M848.5,310.8h-71.2V139.4h71.2
	V310.8z M902,160.9l-21.4,23.3h-8.9l9.8-25.4h-19.6v-33.9H902V160.9z M995.4,315.7c-76.1,0-89.9-43.9-89.9-54.8h55.1
	c0,6.4,8.7,14.1,16,17.2c6,2.6,12.7,3.1,19,3.1c15.5,0,28.2-3.8,28.2-12.8c0-11-13-13.4-27.4-15.5c-39.1-5.6-93.9-12.2-93.9-56
	c0-40.8,44.6-61.6,91.9-61.6c75.7,0,95.8,42,95.8,54.1h-56c0-3.6-2.8-10.6-10.4-14.6c-5.7-3-14-5.3-22-5.3
	c-20.9,0-32.7,4.3-32.7,13.9c0,7.8,10.6,11.7,25.8,14.3c39.8,6.8,100.8,9.2,100.8,57.6C1095.7,279.9,1074.4,315.7,995.4,315.7z"/>
</svg>
