<?xml version="1.0" encoding="iso-8859-1"?>
<!-- Generator: Adobe Illustrator 26.1.0, SVG Export Plug-In . SVG Version: 6.00 Build 0)  -->
<svg version="1.1" id="Layer_1" xmlns="http://www.w3.org/2000/svg" xmlns:xlink="http://www.w3.org/1999/xlink" x="0px" y="0px"
	 viewBox="0 0 585.8 512" style="enable-background:new 0 0 585.8 512;" xml:space="preserve">
<style type="text/css">
	.st0{fill:#FDFDFD;}
	.st1{fill:#F7BB2A;}
</style>
<g>
	<path class="st0" d="M292.3,130.2c5.9,0.5,11.9,0.6,17.8,1.7c5.5,1.1,11,2.6,16.1,4.9c0.6,0.3,1.2,0.8,2.1,0.5
		c0.4-3.2,0.9-6.5,1.4-9.7c0.3-2.2,0.5-4.4,0.8-6.6c0.3-2.1,0.3-2.1,2.3-2.6c11.5-2.7,23.1-5.5,34.6-8.2c22-5.2,43.9-10.4,65.9-15.6
		c4.5-1.1,8.7-3,13.1-4.3c9.3-2.8,18.8-4.8,28.4-6.3c10.1-1.6,20.3-2.7,30.5-2.4c14.8,0.4,29.2,2.8,42.5,9.7
		c17.5,9.1,28.9,23.2,34.5,42.1c3,10.4,3.6,21,3.1,31.7c-0.5,11.8-3.1,23.1-5.4,34.6c-2.2,11-5,21.8-9.2,32.2
		c-8.1,20.1-19.9,37.5-36.3,51.7c-11,9.5-23.3,16.9-36.7,22.4c-15.9,6.6-32.6,10.5-49.7,12.4c-7.5,0.8-15.1,1.4-22.7,1.6
		c-1.8,0-3.6,0-5.4-0.1c-1.3-0.1-2,0.1-2.2,1.6c-0.4,3.6-1,7.1-1.5,10.6l-2.8,19.5L410,378c-1.3,8.7-2.5,17.4-3.8,26.1
		c-0.7,4.5-1.2,8.9-1.9,13.4c-0.3,2.2-0.4,2.2-2.5,2.1c-8.9-0.3-17.7-0.6-26.6-1c-10.9-0.4-21.8-0.8-32.7-1.3
		c-1.7-0.1-3.4-0.6-5.1,0c-6.5-0.3-13-0.6-19.4-0.9c-8.3-0.4-16.5-0.7-24.8-1c-2.4-0.1-2.4-0.1-2.2-2.7c0-0.2,0-0.4,0-0.5
		c1.2-9,2.4-18.1,3.7-27.1c0.4-3,0.4-3-2.5-3h-1c-6.6,0.1-13.3-0.1-19.9,0.2c-5.7,0.3-11.4-0.7-16.8-2.7c-1.1-0.4-2.1-0.5-3.2-0.1
		c-6.7,2.4-13.7,2.8-20.7,2.4c-9.2-0.5-18.4-0.3-27.6-0.3c-0.9,0-1.9-0.1-2.8-0.1c-6.7,0-13.4,0.4-20.2,0c-11.4-0.5-22.7-0.3-34-0.4
		c-2.9,0-2.7-0.5-3,2.7c-0.2,2.1-0.5,4.2-0.6,6.4c-0.1,1.1-0.5,1.7-1.7,1.6c-6.2-0.4-12.4-0.3-18.7-0.4c-4.8-0.1-9.6-0.1-14.3-0.2
		c-2.5,0-5.1-0.2-7.7-0.3c0.4-4.2,0.8-8.3,1.2-12.4c0.6-6.6,1.2-13.2,1.9-19.9c0.8-7.6,1.5-15.3,2.3-22.9c0.2-1.8,0.2-1.8-1.6-1.8
		H96c0.2-2.5,0.4-5.2,0.5-7.8c-0.8-0.4-1.2,0.2-1.7,0.5c-9.2,5.4-19.1,8.5-29.6,9.8c-7.5,0.9-14.9,1.1-22.4,0
		c-19.2-2.8-32.1-13.3-38.6-31.5c-2.2-6.3-3.4-12.8-3.9-19.5c-0.7-8.8,0.1-17.5,0.7-26.3c0.6-8.6,2-17.1,4.6-25.4
		c7.7-24.7,23.7-41.4,48.2-49.9c10-3.5,20.2-5.6,30.8-5.6c8.2,0,16.1,1.6,23.3,5.8c0.5,0.3,1.1,0.5,1.6,0.8c0.1,0.1,0.3,0,0.7,0.1
		c0.6-2.1,0.5-4.3,0.8-6.5c0.3-1.9,0.3-3.7,0.5-5.6c0.3-2.3,0.3-2.3,2.4-2.8c10-2.4,20.1-4.8,30.1-7.1c7.5-1.8,14.9-3.5,22.4-5.3
		c0.3-0.1,0.6-0.3,0.9-0.4c5.7-1.2,11.2-3,16.7-4.8c10.7-3.4,21.8-5.4,32.9-7c6.6-0.9,13-2.1,19.3-4.5
		C254.3,134.5,273,130.7,292.3,130.2L292.3,130.2z M165.9,332.8L165.9,332.8c0.4,0.2,0.2,0.5,0,0.8c-2.3,4.5-2.7,9.3-2.7,14.2
		c0.1,6,3.4,9.9,9.3,11.2c5,1.1,10,0.9,14.9-0.6c5.4-1.7,9.1-5.2,10.9-10.7c1.3-4.2,1.7-8.5,1.5-12.9c0-0.9-0.1-1.5,1.1-1.5
		c1.2,0,0.9,0.8,0.8,1.4c-0.6,4.7-1.2,9.3-1.7,14c-0.4,3.3-0.8,6.7-1.2,10.2c4.1-0.1,7.9,0.1,11.8-0.2c0.9-0.1,1.2-0.4,1.2-1.2
		c0-0.4,0.1-0.8,0.2-1.2c0.9-7.3,1.8-14.6,2.7-21.9c0.2-1.8,0.2-1.8,2.4-1.4c-1.5,3.3-1.8,6.9-2.1,10.5c-0.7,7.9,2.6,12.8,10.1,14.5
		c2.8,0.6,5.6,0.8,8.4,0.7c6.5-0.2,12.7-1.7,17.4-6.7c0.1-0.1,0.3-0.1,0.5-0.1c2.4,3.3,5.7,5,9.6,5.7c4.7,0.8,9.3,0.7,14,0
		c3.3-0.5,6.5-1.5,9.3-3.3c3.8-2.4,6.4-5.7,7.7-10.1c-0.3-0.2-0.4-0.3-0.6-0.3c-5.3,0.1-10.5,0.3-15.8,0.4c-1.1,0-1.2,0.7-1.4,1.5
		c-0.3,1.3-0.8,2.4-1.7,3.4c-1.2,1.2-2.7,1.4-4.3,0.9c-1.5-0.5-1.9-1.9-1.9-3.3c0-0.5,0-1,0.1-1.5c0.5-4.1,1.1-8.3,1.6-12.4
		c0.2-1.2,0.5-2.3,1.2-3.3c1.1-1.5,3-2.2,4.8-1.6c1.7,0.6,2,2,2,3.5v0.3c-0.3,1.5,0.6,1.7,1.8,1.6c1.4-0.1,2.9-0.1,4.3-0.2
		c3.8-0.2,7.6-0.1,11.4-0.6c0-2.9,0-2.9,2.1-2.8c-1.3,9.3-2.6,18.5-4,28.1c4.9-0.4,9.4,0,14-0.4c1.2-0.1,1.6-0.4,1.7-1.6
		c0.6-4.4,1.3-8.8,1.9-13.2c0.6-3.9,1.1-7.8,1.7-11.7c0.4-2.2,0.4-2.3,2.7-2.4c1.5-0.1,3.1-0.1,4.6-0.1c0.8,0,1.1-0.3,1.2-1
		c0.3-3.2,1.2-6.3,1.3-9.7c-2.1-0.2-4.1,0.1-6,0.2c-1.6,0.1-1.8,0-1.6-1.6c0.2-1.3,0.5-2.7,0.6-4.1c0.1-1.6,0.7-3.3,0.5-5.1
		c-4.9,0.3-9.7,0.6-14.4,0.8c-1,0-1.3,0.5-1.4,1.4c-0.2,1.7-0.4,3.4-0.8,5.1c-0.3,1.4,0.2,3.2-0.8,4.1c-1.1,0.9-2.9,0.5-4.5,0.6
		c-2.8,0.1-2.8,0.1-3.4,3c0,0.1-0.2,0.2-0.4,0.4c-5.6-3.1-11.7-3.2-17.9-2.5c-6.4,0.7-12.1,2.7-16.6,7.6c-1.6-2-3.2-3.6-5.5-4.4
		c-2.3-0.8-4.6-1.4-7-1.5c-6.9-0.2-13.4,0.5-19.4,4.5c-0.4-1.2,0.3-2.2,0-3.2h-3.2c-0.4,0-0.7,0.1-1,0.1c-2.2,0.2-2.2,0.2-1.9-2
		c0.3-2.5,0.6-5,1-7.8c-4.3,0.3-8.2,0.5-12.2,0.7c-1,0-0.9,0.9-1,1.5c-0.3,1.9-0.5,3.7-0.7,5.6c-0.3,2.6-0.3,2.6-2.9,2.9
		c-0.1,0-0.2,0-0.3,0c-1,0.1-2.1-0.1-3,0.3c-1.2,0.5-0.2,2.1-1.2,3c-1.8-1.3-4-2.2-6.2-2.5c-4.5-0.6-8.8-0.4-13.2,0.8
		c-1.1,0.3-2.4,1.5-3.3-0.4c0-0.1-0.5-0.1-0.7-0.1c-2,0.1-4.1,0-6.1,0.6c-1.3,0.4-2.6,1.6-4.1,0.2c-3.2,0.2-6.5,0.4-9.7,0.6
		c-0.9,0-1.1,0.4-1.2,1.2c-0.4,2.2-0.2,4.5-1,6.8c-1.9-4.5-3.5-6.1-6.9-7.1c-2.5-0.7-5.1-0.8-7.6-0.2c-1.6,0.4-3.1,0.8-4.9,0.5
		c-2.5-0.4-5.3,0-7.9,0.3c-1.2,0.1-1.6,0.4-1.7,1.6c-0.1,1.8-0.4,3.6-0.5,5.3c-1,9.7-2,19.4-3,29c-0.2,2.2-0.4,4.4-0.6,6.7
		c3.1,0,6-0.1,8.9,0c1.5,0,1.9-0.4,2-1.9c0.2-3.2,0.7-6.4,1-9.6c8.2,2.3,14.7,0.4,19.3-7.3c0.1,2-0.2,3.5-0.4,5
		c-0.4,2.9-0.3,3.1,2.7,2.8c2-0.2,3.9-0.2,5.9-0.2c3.1,0,2.5,0.4,2.9-2.5c0.7-5.3,1.2-10.7,1.8-16c0.2-1.9,0.4-3.7,1.3-5.4
		C163.3,334.3,164,332.9,165.9,332.8L165.9,332.8z M421.6,126.6c-4.3,0.9-8.5,1.8-12.6,2.7c-18.1,3.8-36.2,7.6-54.3,11.4
		c-2.2,0.5-2.3,0.5-2.6,2.7c-0.9,6.4-1.8,12.8-2.7,19.3c-2,13.9-3.9,27.9-5.8,41.8c-2.1,15.1-4.3,30.2-6.4,45.4
		c-2.1,15.1-4.2,30.3-6.3,45.4c-1.6,11.5-3.3,23-4.9,34.5c-2.5,18.1-5.1,36.1-7.6,54.3c-0.3,2.4-0.9,4.8-0.9,7.5
		c5.9,0,11.6-0.1,17.3,0c4.3,0.1,8.5,0.1,12.8,0.2c10.6,0.2,21.3,0.4,32,0.6c0.8,0,1.3-0.2,1.3-1.1c0-0.7,0.2-1.3,0.3-2
		c0.8-5.4,1.5-10.8,2.2-16.2c1.8-12.8,3.7-25.5,5.4-38.3c2.1-15.1,4.2-30.3,6.3-45.4c0.1-0.6,0-1.3,0.7-1.8
		c8.8,3.5,17.9,4.7,27.3,4.5c4.9-0.1,9.9-0.5,14.8-1.1c14.2-1.6,27.9-4.6,41.2-9.8c15.5-6.1,29.1-15,40.2-27.4
		c10.5-11.8,17.7-25.5,22.1-40.6c3.8-13.2,6.3-26.8,8.1-40.4c1.1-8.4,1-16.9-0.9-25.2c-3.4-14.9-12.1-25.2-26.4-30.5
		c-7.7-2.9-15.8-4-24.1-4.2c-11.2-0.3-22.3,1.1-33.3,3.1c-15.1,2.7-29.3,7.6-42.3,15.9c-0.4,0.3-0.8,0.8-1.4,0.4
		C421,130.4,421.8,128.7,421.6,126.6L421.6,126.6z M327.8,248.3c-0.4,0-0.7,0-1,0c-10.8,1.3-21.7,2.6-32.5,3.9
		c-10.7,1.2-21.3,2.5-32,3.7c-1.2,0.1-1.8,0.6-1.9,1.8c-0.3,2.2-0.9,4.4-1.7,6.4c-3,7.7-8.8,11.6-16.7,11.4
		c-4.2-0.1-7.1-2.2-8.4-6.2c-0.6-2-1-4-1-6.1c-0.1-5.7,1.2-11.4,1.7-17c0.1-1,0.6-1.4,1.6-1.5c4.3-0.5,8.6-1.1,13-1.6l37-4.9
		c14.9-2,29.7-3.9,44.6-5.8c2.2-0.3,2.1-0.3,2.4-2.4c0.8-5.2,1.6-10.5,2.4-15.7c1.2-8.2,1.6-16.5,0.2-24.7
		c-2.7-15.8-11.5-26.3-27-30.8c-9.8-2.8-19.9-2.9-29.9-2c-10.7,1-21.2,3.1-31.6,6.1c-12.9,3.7-25.1,8.8-36.1,16.5
		c-0.4,0.3-0.8,0.7-1.4,0.4c0.2-3,0.9-6,0.9-9.2c-7.5,1.2-14.7,2.5-21.8,4.3c-7.2,1.9-13.8,5.3-20.1,9.6v-4.3
		c-4,0.8-7.9,1.6-11.8,2.5c-9.8,2.1-19.7,4.1-29.5,6.2c-1.1,0.2-1.7,0.5-1.9,1.9c-0.5,6.5-1.3,12.9-2,19.4
		c-0.9,9.3-1.8,18.5-2.7,27.7c-1.3,12.7-2.6,25.5-3.9,38.2c-1,9.8-2,19.7-2.9,29.5c-0.2,2.4-0.7,4.8-0.5,7.3
		c3.9-0.3,7.5-0.5,11.1-0.8c9.3-0.7,18.7-1.3,28-2c2-0.1,2-0.2,2.2-2.1c1.2-11.1,2.4-22.2,3.7-33.3c1.3-12.1,2.7-24.3,4-36.4
		c0.6-5.5,1.3-11,3.1-16.3c3.9-12.1,11.3-18.1,23.3-18.9c0,0.7-0.5,1.2-0.8,1.8c-2.9,5.3-5.1,10.8-6.8,16.6
		c-2,6.8-3.1,13.6-3.7,20.6c-0.7,7.5-1.8,14.9-1.4,22.4c0.4,6.9,1.7,13.5,5,19.7c4.7,8.9,12.2,14.3,21.5,17.5
		c8.5,2.9,17.3,3.8,26.2,3.9c6.6,0,13.3-0.4,19.9-1.2c10.7-1.3,21.2-3.5,31.3-7.4c22.1-8.5,38.2-23.3,47.2-45.5
		C327.4,250.4,328,249.5,327.8,248.3z M112.7,270.6c-1-0.4-1.6-0.1-2.3,0c-3.6,0.4-7.1,0.9-10.7,1.3c-10,1.2-20,2.4-30,3.6
		c-1,0.1-1.2,0.4-1.4,1.4c-0.2,2-0.5,3.9-1,5.8c-0.8,3.5-2,6.9-4.9,9.4c-4.6,4.1-10.6,2.4-12.2-3.5c-0.7-2.7-0.9-5.6-0.7-8.4
		c0.8-9.7,1.6-19.4,2.4-29.1c0.3-3.3,0.6-6.6,1-9.9c0.4-3.5,1.3-6.9,3.1-10c1.4-2.4,3.3-4.3,6.1-5.1c4.3-1.3,7.5,0.4,8.6,4.7
		c0.7,2.6,0.8,5.2,0.7,7.9c0,1-0.3,2,0.2,3c0.4,0,0.8,0,1.1-0.1l25.8-4.1c5-0.8,10.1-1.6,15.1-2.4c2.4-0.4,2.4-0.4,2.2-2.8
		c-0.4-5-1.2-10-3.2-14.7c-2.8-6.9-7.3-12.1-14.1-15.2c-4.6-2.1-9.6-3-14.6-3.2c-11.1-0.3-21.7,2-32.1,5.8c-8.7,3.2-16.6,8.1-23,15
		c-8.9,9.6-13.5,21.2-15.6,33.9c-1.2,6.8-1.4,13.8-1.9,20.6c-0.5,6.6-0.1,13.1,1.5,19.6c3.1,12.1,10.5,19.8,22.7,22.9
		c4.6,1.2,9.3,1.6,13.9,1.6c7.2-0.1,14.3-0.9,21.2-2.8C94.3,309.1,107.2,293.4,112.7,270.6L112.7,270.6z"/>
	<path class="st1" d="M292.3,130.2c-19.4,0.5-38.1,4.3-56.2,11c-6.3,2.4-12.8,3.5-19.3,4.5c-11.1,1.6-22.2,3.6-32.9,7
		c-5.5,1.8-11,3.6-16.7,4.8c-1.1-7.5-2.2-15-3.3-22.5c-1.7-11.6-3.3-23.1-5-34.7c-1.6-11.3-3.2-22.6-4.9-34
		c-0.8-5.3-1.6-10.6-2.4-15.9c-0.1-0.8-0.1-1.5-0.2-2.3c0.9-0.2,1.6,0.3,2.2,0.6c17.8,7.5,35.5,15,53.2,22.5c2.8,1.2,2.9,1.2,4.9-1
		c19.5-21.9,39-43.6,58.4-65.4c1.3-1.5,2.6-2.9,4.4-4.8C280.6,43.8,286.4,87,292.3,130.2L292.3,130.2z M204.6,106.9
		c2.4,2,4.6,4,6.9,5.7c1.2,0.9,1.7,1.9,1.6,3.5c-0.2,3.1-0.3,6.1-0.4,9.2c0,0.7-0.2,1.5,0.2,2.4c2.5-2.5,4.9-4.8,7.2-7.2
		c1.2-1.2,2.1-1.6,3.7-0.9c2.6,1.1,5.4,1.9,8.5,3c-0.9-3.7-1.6-7-2.5-10.3c-0.6-2-0.4-3.7,0.8-5.5c2-3,3.7-6.1,5.5-9.1
		c-0.7-0.6-1.3-0.3-1.9-0.3c-2.4,0.3-4.9,0.6-7.3,1c-1.4,0.2-2.2,0-2.8-1.4c-1-2.1-2.2-4.1-3.3-6.1c-0.5-0.9-0.8-2-1.9-2.8
		c-1.1,4-2.1,7.8-3.1,11.6c-0.4,1.4-1,2.2-2.3,2.8C210.5,103.9,207.7,105.3,204.6,106.9L204.6,106.9z M202.9,381.7
		c9.2,0,18.4-0.2,27.6,0.3c7,0.4,14,0,20.7-2.4c1.1-0.4,2.1-0.3,3.2,0.1c5.4,1.9,11.1,3,16.8,2.7c6.6-0.4,13.3-0.1,19.9-0.2h1
		c2.9,0,2.9,0,2.5,3c-1.2,9-2.4,18.1-3.7,27.1c0,0.2,0,0.4,0,0.5c-0.2,2.5-0.2,2.5,2.2,2.7c8.3,0.4,16.5,0.6,24.8,1
		c6.5,0.3,13,0.6,19.4,0.9c4.2,31.4,8.3,62.8,12.6,94.6c-1.3-0.8-2.3-1.3-3.2-1.9c-23.6-14.7-47.3-29.3-70.9-44.1
		c-1.7-1.1-2.8-1.1-4.5,0c-17.8,10.9-35.6,21.7-53.4,32.5c-0.7,0.4-1.3,0.8-2.1,1.2c-0.8-2.6-0.8-5.2-1.1-7.7
		c-1.2-10.4-2.2-20.9-3.3-31.3c-1.4-13.4-3-26.8-4.4-40.2c-1.1-10.3-2.2-20.7-3.2-31.1C203.5,386.9,203.2,384.3,202.9,381.7
		L202.9,381.7z M246.8,414.5c2.5,2.1,4.7,4.1,7,5.8c1.2,0.9,1.6,2,1.5,3.5c-0.1,3.7,0,7.4,0,11.2c0.5,0,0.8-0.6,1.2-1
		c2.1-2,4.2-4.1,6.1-6.2c1-1.1,1.8-1.2,3.1-0.7c2.2,0.9,4.5,1.6,6.8,2.4c0.6,0.2,1.2,0.7,1.9,0.2c-0.9-3.7-1.7-7.3-2.7-11
		c-0.4-1.2-0.2-2.3,0.5-3.4c1.8-2.9,3.5-5.8,5.3-8.8c0.3-0.5,0.9-1,0.6-1.8c-3,0.4-6,0.7-8.9,1.1c-2,0.3-2,0.3-3.1-1.6
		c-1.2-2.1-2.4-4.3-3.7-6.5c-0.4-0.7-0.5-1.6-1.5-2c-1,3.8-2.1,7.6-3,11.4c-0.4,1.5-1.1,2.3-2.4,2.9
		C252.6,411.5,249.9,412.9,246.8,414.5z"/>
	<path d="M421.6,126.6c0.2,2.2-0.7,3.9-0.6,5.7c0.7,0.4,1-0.1,1.4-0.4c13-8.2,27.2-13.2,42.3-15.9c11-2,22.1-3.4,33.3-3.1
		c8.2,0.2,16.3,1.3,24.1,4.2c14.3,5.3,23,15.6,26.4,30.5c1.9,8.3,2,16.8,0.9,25.2c-1.8,13.6-4.2,27.2-8.1,40.4
		c-4.4,15.1-11.6,28.8-22.1,40.6c-11.2,12.5-24.8,21.3-40.2,27.4c-13.3,5.2-27,8.3-41.2,9.8c-4.9,0.5-9.8,1-14.8,1.1
		c-9.4,0.2-18.6-1-27.3-4.5c-0.7,0.5-0.6,1.2-0.7,1.8c-2.1,15.1-4.2,30.3-6.3,45.4c-1.8,12.8-3.7,25.5-5.4,38.3
		c-0.8,5.4-1.5,10.8-2.2,16.2c-0.1,0.7-0.3,1.3-0.3,2c0,0.9-0.5,1.1-1.3,1.1c-10.6-0.2-21.3-0.4-32-0.6c-4.3-0.1-8.5-0.1-12.8-0.2
		c-5.7-0.1-11.4,0-17.3,0c0-2.7,0.5-5.1,0.9-7.5c2.5-18.1,5.1-36.1,7.6-54.3l4.9-34.5c2.1-15.1,4.2-30.3,6.3-45.4
		c2.1-15.1,4.3-30.2,6.4-45.4c2-13.9,3.9-27.9,5.8-41.8c0.9-6.4,1.8-12.8,2.7-19.3c0.3-2.2,0.4-2.2,2.6-2.7
		c18.1-3.8,36.2-7.6,54.3-11.4C413.1,128.4,417.3,127.5,421.6,126.6L421.6,126.6z M452.3,172.1c0-0.5,0-1.3,0-2
		c-0.5-8.9-5.3-13.3-13.9-12.5c-9.9,0.9-17.3,5.8-21.9,14.7c-2.4,4.6-3.8,9.5-4.6,14.6c-2.7,16.3-5.4,32.7-8,49
		c-0.8,4.6-1.1,9.3,0.3,14c1.4,4.6,4.4,7.6,9.2,8.1c9.7,1,17.7-2,23.3-10.3c3.7-5.5,5.3-11.8,6.5-18.2c2.4-14.3,5-28.6,7.4-42.9
		C451.3,181.8,452.4,177.2,452.3,172.1L452.3,172.1z M327.8,248.3c0.1,1.2-0.4,2-0.8,3c-8.9,22.2-25.1,37-47.2,45.5
		c-10.1,3.9-20.6,6.1-31.3,7.4c-6.6,0.8-13.3,1.2-19.9,1.2c-8.9,0-17.7-0.9-26.2-3.9c-9.3-3.2-16.8-8.6-21.5-17.5
		c-3.2-6.1-4.6-12.8-5-19.7c-0.4-7.5,0.6-15,1.4-22.4c0.7-7,1.8-13.9,3.7-20.6c1.7-5.7,3.9-11.3,6.8-16.6c0.3-0.6,0.8-1.1,0.8-1.8
		c-12,0.8-19.4,6.9-23.3,18.9c-1.7,5.3-2.4,10.8-3.1,16.3c-1.3,12.1-2.7,24.3-4,36.4c-1.2,11.1-2.4,22.2-3.7,33.3
		c-0.2,1.9-0.2,2-2.2,2.1c-9.3,0.7-18.7,1.4-28,2c-3.7,0.3-7.3,0.5-11.1,0.8c-0.1-2.5,0.3-4.9,0.5-7.3c0.9-9.8,2-19.7,2.9-29.5
		c1.3-12.7,2.6-25.5,3.9-38.2c0.9-9.3,1.8-18.5,2.7-27.7c0.6-6.5,1.4-12.9,2-19.4c0.1-1.4,0.8-1.7,1.9-1.9c9.8-2,19.7-4.1,29.5-6.2
		c3.9-0.8,7.8-1.6,11.8-2.5v4.3c6.3-4.4,12.9-7.7,20.1-9.6c7.1-1.8,14.3-3.2,21.8-4.3c0,3.2-0.8,6.1-0.9,9.2c0.7,0.3,1-0.2,1.4-0.4
		c11-7.7,23.2-12.9,36.1-16.5c10.4-2.9,20.9-5.1,31.6-6.1c10.1-0.9,20.1-0.9,29.9,2c15.5,4.5,24.3,15,27,30.8
		c1.4,8.3,0.9,16.5-0.2,24.7c-0.8,5.3-1.6,10.5-2.4,15.7c-0.3,2.1-0.3,2.1-2.4,2.4c-14.9,2-29.7,3.9-44.6,5.8l-37,4.9
		c-4.3,0.6-8.6,1.2-13,1.6c-1,0.1-1.5,0.5-1.6,1.5c-0.5,5.7-1.7,11.3-1.7,17c0,2,0.4,4.1,1,6.1c1.3,4.1,4.1,6.1,8.4,6.2
		c7.9,0.2,13.8-3.7,16.7-11.4c0.8-2.1,1.4-4.2,1.7-6.4c0.2-1.2,0.7-1.6,1.9-1.8c10.7-1.2,21.4-2.4,32-3.7
		c10.8-1.3,21.7-2.6,32.5-3.9C327.1,248.3,327.5,248.3,327.8,248.3L327.8,248.3z M237.6,220c3.5-0.5,6.7-1,9.9-1.5
		c5.7-0.9,11.4-1.8,17.2-2.6c1.1-0.2,1.6-0.6,1.7-1.7c0.2-2.1,0.7-4.2,0.8-6.3c0.3-3.8,0.4-7.7-0.8-11.4c-1.4-4.2-4-6.2-8.4-6.1
		c-7,0.1-12.1,3.6-15.4,9.7C239.3,206.1,238.5,212.8,237.6,220L237.6,220z M112.7,270.6c-5.5,22.8-18.4,38.6-41.6,44.9
		c-6.9,1.9-14.1,2.7-21.2,2.8c-4.7,0-9.3-0.4-13.9-1.6c-12.2-3-19.6-10.8-22.7-22.9c-1.6-6.4-2-13-1.5-19.6
		c0.5-6.9,0.8-13.8,1.9-20.6c2.2-12.7,6.7-24.3,15.6-33.9c6.4-6.9,14.2-11.7,23-15c10.3-3.8,21-6.1,32.1-5.8c5.1,0.1,10,1,14.6,3.2
		c6.8,3.1,11.4,8.3,14.1,15.2c1.9,4.7,2.8,9.7,3.2,14.7c0.2,2.5,0.1,2.5-2.2,2.8c-5,0.8-10.1,1.6-15.1,2.4l-25.8,4.1
		c-0.3,0-0.7,0-1.1,0.1c-0.5-1-0.3-2-0.2-3c0.1-2.7,0-5.3-0.7-7.9c-1.2-4.3-4.3-6-8.6-4.7c-2.8,0.8-4.7,2.7-6.1,5.1
		c-1.8,3.1-2.6,6.5-3.1,10c-0.4,3.3-0.7,6.6-1,9.9c-0.8,9.7-1.6,19.4-2.4,29.1c-0.2,2.8-0.1,5.7,0.7,8.4c1.6,5.9,7.6,7.6,12.2,3.5
		c2.8-2.5,4.1-5.8,4.9-9.4c0.4-1.9,0.8-3.9,1-5.8c0.1-0.9,0.4-1.2,1.4-1.4c10-1.2,20-2.4,30-3.6c3.6-0.4,7.1-0.9,10.7-1.3
		C111.1,270.4,111.8,270.2,112.7,270.6L112.7,270.6z M165.9,332.8c-1.9,0-2.6,1.5-3.2,2.8c-0.9,1.7-1.1,3.6-1.3,5.4
		c-0.6,5.3-1.1,10.7-1.8,16c-0.4,2.9,0.2,2.4-2.9,2.5c-2,0-3.9,0-5.9,0.2c-3,0.3-3.1,0.2-2.7-2.8c0.2-1.5,0.5-3,0.4-5
		c-4.5,7.7-11.1,9.6-19.3,7.3c-0.4,3.2-0.8,6.4-1,9.6c-0.1,1.4-0.5,1.9-2,1.9c-2.9-0.1-5.8,0-8.9,0c0.2-2.4,0.4-4.5,0.6-6.7
		c1-9.7,2-19.4,3-29c0.2-1.8,0.4-3.6,0.5-5.3c0-1.2,0.5-1.5,1.7-1.6c2.6-0.3,5.3-0.7,7.9-0.3c1.8,0.3,3.3-0.1,4.9-0.5
		c2.5-0.6,5.1-0.5,7.6,0.2c3.4,0.9,5,2.6,6.9,7.1c0.8-2.2,0.6-4.5,1-6.8c0.1-0.8,0.4-1.2,1.2-1.2c3.2-0.2,6.5-0.4,9.7-0.6
		c1.4,1.4,2.8,0.2,4.1-0.2c2-0.5,4.1-0.4,6.1-0.6c0.3,0,0.7,0,0.7,0.1c0.9,1.9,2.2,0.7,3.3,0.4c4.4-1.2,8.7-1.4,13.2-0.8
		c2.3,0.3,4.4,1.2,6.2,2.5c1.1-0.9,0-2.5,1.2-3c0.9-0.4,2-0.2,3-0.3c0.1,0,0.2,0,0.3,0c2.7-0.3,2.6-0.3,2.9-2.9
		c0.2-1.9,0.4-3.7,0.7-5.6c0.1-0.6,0-1.4,1-1.5c4-0.2,8-0.4,12.2-0.7c-0.4,2.8-0.7,5.3-1,7.8c-0.3,2.1-0.2,2.2,1.9,2
		c0.4,0,0.7-0.1,1-0.1h3.2c0.4,1-0.4,2,0,3.2c5.9-4,12.5-4.7,19.4-4.5c2.4,0.1,4.7,0.6,7,1.5c2.2,0.8,3.9,2.4,5.5,4.4
		c4.5-4.9,10.3-6.9,16.6-7.6c6.2-0.7,12.2-0.6,17.9,2.5c0.2-0.2,0.4-0.3,0.4-0.4c0.5-2.9,0.5-2.9,3.4-3c1.5,0,3.3,0.3,4.5-0.6
		c1.1-0.9,0.6-2.7,0.8-4.1c0.4-1.7,0.5-3.4,0.8-5.1c0.1-0.9,0.4-1.3,1.4-1.4c4.8-0.2,9.5-0.5,14.4-0.8c0.2,1.8-0.4,3.5-0.5,5.1
		c-0.1,1.3-0.4,2.7-0.6,4.1c-0.2,1.6-0.1,1.7,1.6,1.6c2-0.1,3.9-0.4,6-0.2c-0.1,3.3-1,6.5-1.3,9.7c-0.1,0.7-0.4,1-1.2,1
		c-1.5,0-3.1,0-4.6,0.1c-2.3,0.2-2.4,0.2-2.7,2.4c-0.6,3.9-1.1,7.8-1.7,11.7c-0.6,4.4-1.4,8.8-1.9,13.2c-0.1,1.2-0.6,1.5-1.7,1.6
		c-4.6,0.4-9.2,0-14,0.4c1.3-9.6,2.7-18.8,4-28.1c-2,0-2,0-2.1,2.8c-3.8,0.5-7.6,0.4-11.4,0.6c-1.4,0.1-2.9,0.1-4.3,0.2
		c-1.2,0.1-2.1-0.1-1.8-1.6v-0.3c0-1.6-0.3-2.9-2-3.5c-1.7-0.6-3.7,0.1-4.8,1.6c-0.7,1-1.1,2.2-1.2,3.3c-0.6,4.1-1.1,8.3-1.6,12.4
		c0,0.5-0.1,1-0.1,1.5c0,1.4,0.4,2.8,1.9,3.3c1.6,0.5,3,0.3,4.3-0.9c0.9-0.9,1.4-2.1,1.7-3.4c0.2-0.8,0.4-1.4,1.4-1.5
		c5.3-0.1,10.5-0.3,15.8-0.4c0.1,0,0.3,0.1,0.6,0.3c-1.3,4.3-3.9,7.7-7.7,10.1c-2.8,1.8-6,2.8-9.3,3.3c-4.7,0.7-9.3,0.8-14,0
		c-3.9-0.7-7.3-2.3-9.6-5.7c-0.2,0-0.4,0-0.5,0.1c-4.8,5-10.9,6.5-17.4,6.7c-2.8,0.1-5.6,0-8.4-0.7c-7.5-1.7-10.8-6.6-10.1-14.5
		c0.3-3.6,0.7-7.1,2.1-10.5c-2.1-0.4-2.1-0.4-2.4,1.4c-0.9,7.3-1.8,14.6-2.7,21.9c0,0.4-0.2,0.8-0.2,1.2c0,0.8-0.4,1.2-1.2,1.2
		c-3.8,0.3-7.7,0.1-11.8,0.2c0.4-3.6,0.8-6.9,1.2-10.2c0.6-4.7,1.2-9.3,1.7-14c0.1-0.7,0.4-1.4-0.8-1.4c-1.2,0-1.1,0.6-1.1,1.5
		c0.3,4.4-0.2,8.7-1.5,12.9c-1.7,5.5-5.4,9-10.9,10.7c-4.9,1.5-9.9,1.7-14.9,0.6c-5.9-1.2-9.2-5.2-9.3-11.2
		c-0.1-4.9,0.4-9.7,2.7-14.2C166.2,333.4,166.4,333.1,165.9,332.8c0.2,0.3,0.3,0.3,0.4,0c0,0,0-0.2,0-0.2
		C166,332.5,165.9,332.7,165.9,332.8L165.9,332.8z M177.1,348.3L177.1,348.3c0.1,0.4,0,0.8,0.1,1.3c0.1,1.2,0.6,2.4,2,2.7
		c1.3,0.3,2.6,0,3.4-1.2c0.4-0.6,0.8-1.3,1-2c0.8-4.6,1.3-9.3,1.6-13.9c0.1-2-0.8-3.1-2.1-3.3c-1.6-0.3-3.1,0.5-3.9,2.2
		c-0.3,0.5-0.5,1.1-0.6,1.7C178.2,339.9,177.6,344.1,177.1,348.3L177.1,348.3z M137.4,338.4c0.1-0.4,0-1.4-0.1-2.3
		c-0.5-2.2-2.6-2.9-4.3-1.4c-0.9,0.8-1.4,2-1.5,3.2c-0.4,3.7-0.8,7.3-1.3,10.9c-0.1,0.8-0.1,1.7,0.1,2.5c0.3,1,0.5,2,1.8,2.2
		c1.3,0.1,2.4-0.1,3.1-1.3c0.6-1,0.9-2,1-3.1C136.6,345.7,137,342.3,137.4,338.4L137.4,338.4z M249.4,342.2h-2.2
		c-4,0.1-8,0.4-12,0.4c-4.9,0.1-5.1,0.3-4.8,5.2c0,0.3,0,0.5,0,0.8c0.3,1.9,1.6,2.8,3.4,2.6c2-0.3,3.2-1.5,3.7-3.4
		c0.2-1.1,0.7-1.4,1.7-1.4c2.1,0,4.2-0.1,6.4-0.1C249.4,346.2,249.4,346.2,249.4,342.2L249.4,342.2z M231.9,336.3c1.5,0,2.8,0,4,0
		c4-0.2,3.4-0.1,3.5-3.7c0-0.3,0-0.5,0-0.8c-0.3-2-1.4-2.8-3.4-2.6c-1.5,0.2-2.4,1-3.1,2.3C232.1,333,231.8,334.6,231.9,336.3
		L231.9,336.3z M204.6,106.9c3.1-1.5,5.8-3,8.7-4.3c1.3-0.6,2-1.4,2.3-2.8c0.9-3.8,2-7.6,3.1-11.6c1.1,0.8,1.4,1.9,1.9,2.8
		c1.2,2,2.4,4,3.3,6.1c0.7,1.3,1.5,1.6,2.8,1.4c2.4-0.4,4.9-0.7,7.3-1c0.5,0,1.2-0.4,1.9,0.3c-1.8,3-3.5,6.2-5.5,9.1
		c-1.2,1.8-1.4,3.5-0.8,5.5c0.9,3.2,1.6,6.6,2.5,10.3c-3.1-1.1-5.8-1.9-8.5-3c-1.6-0.7-2.6-0.4-3.7,0.9c-2.2,2.4-4.7,4.7-7.2,7.2
		c-0.4-1-0.2-1.7-0.2-2.4c0.1-3.1,0.2-6.1,0.4-9.2c0.1-1.5-0.4-2.5-1.6-3.5C209.2,110.8,207.1,108.9,204.6,106.9L204.6,106.9z
		 M246.8,414.5c3.1-1.5,5.8-2.9,8.5-4.2c1.3-0.6,2.1-1.4,2.4-2.9c0.9-3.8,2-7.6,3-11.4c1,0.4,1.1,1.3,1.5,2c1.2,2.1,2.4,4.3,3.7,6.5
		c1.1,1.9,1.1,1.9,3.1,1.6c2.9-0.4,5.9-0.7,8.9-1.1c0.3,0.8-0.3,1.3-0.6,1.8c-1.7,2.9-3.4,5.9-5.3,8.8c-0.7,1.1-0.8,2.1-0.5,3.4
		c1,3.6,1.8,7.3,2.7,11c-0.8,0.5-1.3,0-1.9-0.2c-2.3-0.8-4.5-1.5-6.8-2.4c-1.3-0.5-2.1-0.4-3.1,0.7c-2,2.1-4.1,4.1-6.1,6.2
		c-0.4,0.4-0.7,1-1.2,1c0-3.7-0.1-7.5,0-11.2c0-1.5-0.3-2.5-1.5-3.5C251.5,418.5,249.3,416.6,246.8,414.5L246.8,414.5z"/>
</g>
</svg>
