<?xml version="1.0" encoding="utf-8"?>
<!-- Generator: Adobe Illustrator 26.3.1, SVG Export Plug-In . SVG Version: 6.00 Build 0)  -->
<svg version="1.1" id="Warstwa_1" xmlns="http://www.w3.org/2000/svg" xmlns:xlink="http://www.w3.org/1999/xlink" x="0px" y="0px"
	 viewBox="0 0 2248 512" style="enable-background:new 0 0 2248 512;" xml:space="preserve">
<style type="text/css">
	.st0{fill:#161615;}
</style>
<g>
	<path class="st0" d="M586.8,440.5c-2.8-2.1-5.9-3.8-9.3-4.8c-3.5-1.1-7.1-1.7-10.8-1.7c-3.6,0-7.3,0.5-10.8,1.6
		c-3.4,1-6.5,2.5-9.3,4.6c-5.8,4.3-9.1,11.2-8.9,18.3v27.8c-0.1,3.7,0.7,7.4,2.3,10.8c1.5,3,3.6,5.7,6.2,7.8
		c2.7,2.2,5.9,3.8,9.3,4.8c7.3,2.1,15.1,2.1,22.4,0c3.4-1,6.5-2.6,9.3-4.8c2.6-2.1,4.8-4.8,6.2-7.8c1.6-3.4,2.4-7,2.3-10.8
		l-0.2-27.3C595.8,451.7,592.5,444.9,586.8,440.5z M580.8,483.6c0.1,2.2-0.3,4.3-1.2,6.3c-0.7,1.7-1.8,3.1-3.2,4.3
		c-1.3,1.1-2.8,1.9-4.5,2.4c-1.7,0.5-3.4,0.7-5.1,0.7c-1.8,0-3.6-0.2-5.4-0.7c-3.4-0.9-6.3-3.4-7.7-6.6c-0.8-2-1.2-4.2-1.2-6.3
		v-22.1c-0.1-2.2,0.3-4.3,1.2-6.3c0.7-1.6,1.8-3,3.2-4.2c1.3-1.1,2.9-1.9,4.5-2.4c1.7-0.5,3.6-0.8,5.4-0.8c1.7,0,3.5,0.2,5.1,0.8
		c1.6,0.5,3.2,1.3,4.5,2.4c1.4,1.1,2.4,2.6,3.2,4.2c0.8,2,1.3,4.1,1.2,6.3V483.6z"/>
	<path class="st0" d="M656.4,475.7c1.5-1.6,2.8-3.4,3.9-5.4c1.1-1.9,1.9-3.8,2.4-5.9c0.5-2,0.8-4,0.8-6.1c0-2.8-0.4-5.6-1.2-8.3
		c-0.8-2.8-2.1-5.4-3.9-7.6c-1.9-2.2-4.2-4.1-6.8-5.4c-3-1.5-6.4-2.2-9.8-2.2l-33.8,0.1v75.6h15v-28.4h13.6l1.5,3.4l2.1,5l2.4,5.8
		l2.4,5.8l2.1,5c0.6,1.5,1.1,2.6,1.4,3.4h16.1L651,479.6C653,478.6,654.8,477.3,656.4,475.7z M646.2,465.7c-2.1,2-5,3-7.9,2.8h-15.2
		v-20.2h15.2c3-0.2,5.9,0.9,8,3C650.2,455.4,650.2,461.8,646.2,465.7z"/>
	<rect x="675.6" y="434.9" class="st0" width="15" height="75.6"/>
	<path class="st0" d="M734,481h10.8v12.6c-1.5,1.3-3.2,2.2-5.1,2.7c-1.6,0.4-3.2,0.6-4.8,0.6c-1.8,0-3.6-0.2-5.4-0.8
		c-1.7-0.5-3.2-1.3-4.5-2.4c-1.4-1.2-2.4-2.6-3.2-4.2c-0.8-2-1.3-4.1-1.2-6.3v-22.1c-0.1-2.2,0.4-4.4,1.3-6.3
		c0.8-1.7,1.9-3.1,3.3-4.3c1.4-1.1,2.9-1.9,4.6-2.4c1.8-0.5,3.6-0.7,5.4-0.7c2.7,0,5.5,0.4,8.1,1.1c2.9,0.8,5.5,2.2,7.8,4.1
		l7.4-11.6c-3.1-2.6-6.8-4.4-10.8-5.4c-4.2-1.2-8.5-1.8-12.9-1.8c-3.6,0-7.3,0.6-10.8,1.6c-3.4,1-6.5,2.6-9.4,4.7
		c-2.7,2.1-5,4.7-6.6,7.8c-1.7,3.3-2.6,7-2.5,10.8v28c-0.1,3.7,0.8,7.5,2.6,10.8c1.7,3,3.9,5.6,6.7,7.6c2.8,2.1,6,3.6,9.3,4.6
		c3.4,1,6.9,1.5,10.5,1.6c2.1,0,4.2-0.2,6.3-0.5c2.3-0.4,4.5-1,6.6-1.8c2.2-0.9,4.4-2,6.3-3.3l0.5-0.5c2-1.4,3.8-3.2,5.4-5.1v-31.8
		h-26V481z"/>
	<rect x="774.6" y="434.9" class="st0" width="15" height="75.6"/>
	<polygon class="st0" points="850.9,482.7 850.5,482.7 836.1,460.7 818.6,434.9 805,434.9 805,510.4 820,510.4 820,462.8 820.6,463 
		833.1,482.1 852.2,510.6 865.9,510.6 865.9,434.9 850.9,434.9 	"/>
	<path class="st0" d="M899.6,434.9l-26.5,75.6h16.1l4.9-15.6h26.3l4.7,15.6h16.1L915,434.9H899.6z M898.2,482.2l3.1-10l5.8-19.6h0.4
		l5.9,20l3,9.6H898.2z"/>
	<polygon class="st0" points="964,435 949.2,435 949.2,510.5 1001.7,510.5 1001.7,497 964,497 	"/>
	<path class="st0" d="M1069,466.7c-2.7-0.6-5-1.2-7.1-1.8c-1.9-0.5-3.7-1.2-5.4-2c-1.3-0.6-2.5-1.6-3.3-2.7
		c-0.8-1.1-1.2-2.5-1.1-3.9c0-1.4,0.3-2.8,1-4c0.7-1.1,1.6-2.1,2.7-2.7c1.2-0.7,2.5-1.3,3.8-1.6c1.4-0.4,2.9-0.5,4.4-0.5
		c6.8-0.1,13.5,1.8,19.3,5.4l6.6-12c-4.1-2.7-8.6-4.7-13.4-5.7c-4.5-0.9-9.2-1.4-13.8-1.3c-3.7-0.1-7.3,0.5-10.8,1.7
		c-3,1-5.7,2.6-8.1,4.7c-2.3,2-4.1,4.4-5.4,7.2c-1.2,2.9-1.9,6-1.8,9.1c-0.1,3,0.5,5.9,1.8,8.6c1.2,2.3,2.8,4.4,4.9,6
		c2.1,1.7,4.5,3.1,7.1,4.1c2.7,1.1,5.5,2,8.4,2.7l7.2,2c1.8,0.5,3.6,1.3,5.4,2.1c1.4,0.6,2.6,1.6,3.6,2.8c0.9,1.2,1.3,2.7,1.2,4.1
		c0,2.4-1.1,4.6-3,6.1c-1.2,0.9-2.6,1.6-4.1,2c-2,0.5-4.1,0.7-6.1,0.7c-3.7,0-7.3-0.7-10.8-2c-3.7-1.4-7.2-3.4-10.3-5.9l-8.4,10.8
		c4.1,3.6,8.9,6.4,14.1,8.1c5,1.6,10.2,2.3,15.5,2.3c3.8,0,7.7-0.5,11.4-1.5c3.3-0.8,6.4-2.3,9.1-4.2c2.6-1.8,4.6-4.2,6.1-7
		c1.5-3,2.3-6.3,2.2-9.7l0.8,0.3c0.2-5.4-1.9-10.6-5.9-14.3C1081.7,470.5,1075.5,467.8,1069,466.7z"/>
	<path class="st0" d="M1152.3,442.4c-1.8-2.2-4.1-4.1-6.7-5.4c-3-1.5-6.3-2.2-9.7-2.2l-33.8-0.1v75.6h15V482h18.3
		c3.2,0.1,6.5-0.7,9.4-2.2c2.6-1.3,5-3.1,6.9-5.4c3.7-4.6,5.8-10.3,5.8-16.1c0-2.8-0.4-5.6-1.2-8.3
		C1155.4,447.3,1154.1,444.7,1152.3,442.4z M1140.3,465.7c-2.1,2-4.9,3.1-7.8,2.9h-15.3l0.1-20.2h15.3c2.9-0.2,5.7,0.8,7.7,2.9
		C1143.8,455.4,1143.8,461.5,1140.3,465.7z"/>
	<path class="st0" d="M1213.7,440.5c-2.8-2.1-5.9-3.8-9.3-4.8c-3.5-1.1-7.1-1.7-10.8-1.7c-3.6,0-7.3,0.5-10.8,1.6
		c-3.4,1-6.5,2.5-9.3,4.6c-5.8,4.3-9.1,11.2-8.9,18.3v27.8c-0.1,3.7,0.7,7.4,2.3,10.8c1.5,3,3.6,5.7,6.2,7.8
		c2.7,2.2,5.9,3.8,9.3,4.8c7.3,2.1,15.1,2.1,22.4,0c3.4-1,6.5-2.6,9.3-4.8c2.6-2.1,4.8-4.8,6.2-7.8c1.6-3.4,2.4-7,2.3-10.8
		l-0.2-27.3C1222.8,451.7,1219.5,444.9,1213.7,440.5z M1207.8,483.6c0.1,2.2-0.3,4.3-1.2,6.3c-0.7,1.7-1.8,3.1-3.2,4.3
		c-1.3,1.1-2.8,1.9-4.5,2.4c-1.7,0.5-3.4,0.7-5.1,0.7c-1.8,0-3.6-0.2-5.4-0.7c-3.4-0.9-6.3-3.4-7.7-6.6c-0.8-2-1.2-4.2-1.2-6.3
		v-22.1c-0.1-2.2,0.3-4.3,1.2-6.3c0.7-1.6,1.8-3,3.2-4.2c1.3-1.1,2.9-1.9,4.5-2.4c1.7-0.5,3.6-0.8,5.4-0.8c1.7,0,3.5,0.2,5.1,0.8
		c1.6,0.5,3.2,1.3,4.5,2.4c1.4,1.1,2.4,2.6,3.2,4.2c0.9,2,1.3,4.1,1.2,6.3V483.6z"/>
	<path class="st0" d="M1283.7,475.7c1.5-1.6,2.8-3.4,3.9-5.4c1.1-1.9,1.9-3.8,2.4-5.9c0.5-2,0.8-4,0.8-6.1c0-2.8-0.4-5.6-1.2-8.3
		c-0.8-2.8-2.1-5.4-3.9-7.6c-1.9-2.2-4.2-4.1-6.8-5.4c-3-1.5-6.4-2.2-9.8-2.2l-33.8,0.1v75.6h15v-28.4h13.6l1.5,3.4l2.1,5l2.4,5.8
		l2.4,5.8l2.1,5c0.6,1.5,1.1,2.6,1.4,3.4h16.1l-13.6-30.9C1280.3,478.6,1282.1,477.3,1283.7,475.7z M1273.5,465.7
		c-2.1,2-5,3-7.9,2.8h-15.2v-20.2h15.2c3-0.2,5.9,0.9,8,3C1277.5,455.4,1277.5,461.8,1273.5,465.7z"/>
	<polygon class="st0" points="1295.4,448.5 1315.5,448.5 1315.5,510.6 1330.5,510.6 1330.5,448.4 1350.4,448.5 1350.4,435 
		1295.4,435 	"/>
	<path class="st0" d="M1390.7,466.7c-2.6-0.6-5-1.2-7.1-1.8c-1.9-0.5-3.7-1.2-5.4-2c-1.3-0.6-2.5-1.6-3.3-2.7
		c-0.8-1.1-1.2-2.5-1.1-3.9c0-1.4,0.3-2.8,1-4c0.7-1.1,1.6-2.1,2.7-2.7c1.2-0.7,2.5-1.3,3.8-1.6c1.4-0.4,2.9-0.5,4.4-0.5
		c6.8-0.1,13.5,1.8,19.3,5.4l6.6-12c-4.1-2.7-8.6-4.7-13.4-5.7c-4.5-0.9-9.2-1.4-13.8-1.3c-3.7-0.1-7.3,0.5-10.8,1.7
		c-3,1-5.7,2.6-8.1,4.7c-2.3,2-4.1,4.4-5.4,7.2c-1.2,2.9-1.9,6-1.8,9.1c-0.1,3,0.5,5.9,1.8,8.6c1.2,2.3,2.8,4.4,4.9,6
		c2.1,1.7,4.5,3.1,7.1,4.1c2.7,1.1,5.5,2,8.4,2.7l7.2,2c1.8,0.5,3.6,1.3,5.4,2.1c1.4,0.6,2.6,1.6,3.6,2.8c0.9,1.2,1.3,2.7,1.2,4.1
		c0,1.1-0.2,2.2-0.7,3.2c-0.5,1.1-1.3,2.1-2.3,2.9c-1.2,0.9-2.6,1.6-4.1,2c-2,0.5-4.1,0.7-6.1,0.7c-3.7,0-7.3-0.7-10.8-2
		c-3.7-1.4-7.2-3.4-10.3-5.9l-8.4,10.8c4.1,3.6,8.9,6.4,14.1,8.1c5,1.6,10.2,2.3,15.5,2.3c3.8,0,7.7-0.5,11.4-1.5
		c3.3-0.8,6.4-2.3,9.1-4.2c2.6-1.8,4.6-4.2,6.1-7c1.5-3,2.3-6.3,2.2-9.7l0.8,0.3c0.2-5.4-1.9-10.6-5.9-14.3
		C1403.5,470.5,1397.3,467.8,1390.7,466.7z"/>
	<polygon class="st0" points="1493,465.7 1488.3,488 1487.7,488 1482.3,466 1474.4,434.8 1460.3,434.8 1452.9,464.5 1447.1,488 
		1446.3,488 1441.3,464.7 1434.7,434.8 1418.6,434.8 1437.9,510.4 1454.4,510.4 1461.4,482 1466.8,460.5 1468.1,460.4 1473.5,481.9 
		1480.5,510.4 1496.6,510.4 1516.1,434.8 1500,434.8 	"/>
	<polygon class="st0" points="1523.7,510.4 1575.8,510.4 1575.8,496.9 1538.7,496.9 1538.7,479.1 1570.4,479.1 1570.4,465.6 
		1538.7,465.6 1538.7,448.3 1575.8,448.3 1575.8,434.8 1523.7,434.8 	"/>
	<path class="st0" d="M1607.6,434.9l-26.6,75.6h16.1l4.9-15.6h26.3l4.7,15.6h16.1l-26.3-75.6H1607.6z M1606.2,482.2l3.1-10l5.8-19.6
		h0.4l5.9,20l3,9.6H1606.2z"/>
	<path class="st0" d="M1705.2,475.7c1.5-1.6,2.8-3.4,3.9-5.4c1.1-1.9,1.9-3.8,2.4-5.9c0.5-2,0.8-4,0.8-6.1c0-2.8-0.4-5.6-1.2-8.3
		c-0.8-2.8-2.1-5.4-3.9-7.6c-1.9-2.2-4.2-4.1-6.8-5.4c-3.1-1.5-6.4-2.2-9.8-2.2l-33.8,0.1v75.6h15v-28.4h13.6l1.5,3.4l2.1,5l2.4,5.8
		l2.4,5.8l2.1,5c0.6,1.5,1.1,2.6,1.4,3.4h16.1l-13.6-30.9C1701.8,478.6,1703.6,477.3,1705.2,475.7z M1695,465.7c-2.1,2-5,3-7.9,2.8
		h-15.2v-20.2h15.2c3-0.2,5.9,0.9,8,3C1699,455.4,1699,461.8,1695,465.7z"/>
	<rect x="0.1" y="363.8" class="st0" width="2250.9" height="12.3"/>
	<polygon class="st0" points="63.2,138.9 64.9,138.9 93.7,194.9 126.8,257.2 169.4,257.2 202.9,193.6 230.4,138.9 232.3,138.9 
		232.3,298.4 291.5,298.4 291.5,1.4 237.1,1.4 186.3,104.4 149.7,179.4 147.1,179.4 111.3,106.1 58.3,1.4 4,1.4 4,298.4 63.2,298.4 
			"/>
	<path class="st0" d="M392.7,248c6.4,11.7,15.2,21.8,25.9,29.7c10.9,8.1,23.2,14.1,36.2,17.9c13.4,4,27.4,6,41.4,6
		c17,0.1,33.9-2.5,50-7.7c14.6-4.5,28.2-11.8,40.1-21.5l-28-45.7c-9.1,7.3-19.6,12.8-30.8,16.1c-9.9,2.8-20.1,4.3-30.4,4.3
		c-6.7,0-13.3-1-19.6-3c-6.5-2-12.5-5.2-17.7-9.5c-5.5-4.5-9.9-10.2-12.9-16.6c-3.5-7.8-5.2-16.3-4.9-24.8v-86.8
		c-0.2-8.6,1.4-17.1,4.9-25c3-6.5,7.3-12.2,12.7-16.8c5.2-4.3,11.2-7.5,17.7-9.3c6.5-1.8,13.1-2.8,19.8-2.8c10.5,0.1,21,1.7,31,4.7
		c11,3.2,21.1,8.7,29.7,16.1l28.5-45.7c-11.9-10.3-26-17.8-41.1-22c-16.2-4.6-33-6.9-49.8-6.9c-14,0-27.9,2-41.4,6
		c-13,3.8-25.2,9.9-36,18.1c-10.5,8.1-19.2,18.3-25.4,30c-6.7,12.8-10,27.1-9.7,41.6V206C382.4,220.6,385.9,235,392.7,248z"/>
	<path class="st0" d="M724.8,215.6c6.6-8,13.4-16,20.3-23.9c6.9-7.9,13.8-15.9,20.7-23.9l75,130.6h69.4L804.6,121.2L903.3,1.4h-69.9
		L775.2,72l-23.7,28.9c-8.1,9.8-16.3,19.3-24.6,28.5h-2V1.4h-59.2v297h59.2V215.6z"/>
	<polygon class="st0" points="1183.1,245.7 1037.4,245.7 1037.4,175.7 1161.9,175.7 1161.9,122.7 1037.4,122.7 1037.4,54.4 
		1183.1,54.4 1183.1,1.4 978.3,1.4 978.3,298.7 1183.1,298.7 	"/>
	<polygon class="st0" points="1327.2,111.3 1329.8,111.2 1378.8,186.3 1454.1,298.4 1507.8,298.4 1507.8,1.4 1448.7,1.4 
		1448.7,189.1 1447,189.1 1390.5,103.1 1321.5,1.4 1268.1,1.4 1268.1,298.4 1327.2,298.4 	"/>
	<polygon class="st0" points="1793.3,245.3 1657.5,245.3 1793.4,50.4 1793.4,1.4 1593.8,1.4 1593.8,54.4 1722.2,54.4 1588.1,247.6 
		1588.1,298.4 1793.3,298.4 	"/>
	<rect x="1882.7" y="1.4" class="st0" width="59.1" height="297"/>
	<polygon class="st0" points="2247.9,245.7 2102.2,245.7 2102.2,175.7 2226.8,175.7 2226.8,122.7 2102.2,122.7 2102.2,54.4 
		2247.9,54.4 2247.9,1.4 2043.2,1.4 2043.2,298.7 2247.9,298.7 	"/>
</g>
</svg>
