<?xml version="1.0" encoding="iso-8859-1"?>
<!-- Generator: Adobe Illustrator 25.2.0, SVG Export Plug-In . SVG Version: 6.00 Build 0)  -->
<svg version="1.1" id="Layer_1" xmlns="http://www.w3.org/2000/svg" xmlns:xlink="http://www.w3.org/1999/xlink" x="0px" y="0px"
	 viewBox="0 0 926.55 512" style="enable-background:new 0 0 926.55 512;" xml:space="preserve">
<g id="Warstwa_2">
	<path d="M660.28,382.62c4.17-3.22,8.16-6.67,11.95-10.33c1.85-1.71,3.24-2.92,4.26-3.98c2.78-2.69,1.71-2.73,0-4.63
		c-2.18-1.96-5.29-2.52-8.01-1.44c-2.18,0.94-4.27,2.07-6.25,3.38c-2.67,1.74-5.86,2.51-9.03,2.18c-5.93,0.56-10.19-1.34-17.37-0.56
		c1.86-3.03,4.05-5.84,6.53-8.39c1.9-1,3.89-1.84,5.93-2.5c0-0.42,0.37-1.67-0.83-1.67c-1.89-0.01-3.76,0.35-5.51,1.07
		c-1.91,1.1-3.61,2.51-5.05,4.17c0,0-1.3-0.88-2.08,0c-2.27,2.41-1.81,1.9-4.63,2.46c-1.94-0.61-3.68-1.73-5.05-3.24
		c-1.48,0.32-1.48,0.69-2.32,0.42c-0.83-0.28-2.41-1.71-3.24-2.64c0.54-1.09,1.01-2.2,1.44-3.34c0,0,0-0.28-0.32-0.93
		c-2.04-1.2-3.1-2.32-5.7-3.89c-17.64-16.73-36.63-31.99-56.75-45.63c-3.37-3.09-7.64-5.02-12.18-5.51
		c-3.76-4.31-7.83-8.34-12.18-12.05c-10.15-9.27-22.61-13.9-30.76-18.53c6.12-8.39-4.4-13.9-8.66-16.12l-3.2-8.76
		c4.23-14.75,5.54-30.19,3.85-45.45c-0.56-7.88-5.51-11.21-7.18-18.9c-2.1-6.33-2.5-13.11-1.16-19.64
		c6.9-15.15,6.3-16.59,6.72-26.27c1.63-3.63,2.48-7.56,2.5-11.54c3.16-6.87,5.4-14.13,6.67-21.59c1.8-0.94,3.08-2.64,3.47-4.63
		c0.93-4.22,1.64-8.49,2.13-12.79c0-1.9,0-2.27-0.69-3.06c0.32-5.42,1.9-15.47,2.27-18.9c0.23-0.63,0.37-1.28,0.42-1.95
		c3.38-8.85-1.25-8.57,0-10.56c0.36-0.32,0.82-0.51,1.3-0.56h2.36c12.79-0.38,22.85-11.05,22.47-23.84
		C535.97,9.7,525.3-0.37,512.51,0.01c-12.79,0.38-22.85,11.05-22.47,23.84c0.01,0.19,0.01,0.37,0.02,0.56
		c-0.08,0.55-0.08,1.12,0,1.67c-0.04,0.35-0.04,0.71,0,1.07c0.49,2.86,1.14,5.69,1.95,8.48c1.2,2.78,2.92,6.72,4.63,9.78
		c0.33,1.09,0.56,2.21,0.69,3.34c1.47,3.05,1.59,6.58,0.32,9.73c-0.37,1.81-2.69,10.93-4.17,15.8c-0.94,0.05-1.75,0.68-2.04,1.58
		c-1.16,3.89-3.2,9.78-4.63,14.22c-0.28,1.58-0.37,1.81,0,2.73c-3.2,6.76-5.51,7.97-4.63,15.75c-1.11,2.73-2.59,6.39-3.75,9.87
		c-1.16,3.47-2.22,7.55-3.61,11.4c-3.64,2.31-6.51,5.65-8.25,9.59c-0.11-1.97-0.97-3.83-2.41-5.19c0-4.63,0.51-3.8-5.61-5.61
		c-0.88-2.69-1.76-1.2-3.89-3.57c-2.57-3.56-6.56-5.83-10.93-6.21c-5.82-0.42-11.51,1.83-15.47,6.12
		c-4.55,4.22-6.89,10.31-6.35,16.49c0.46,6.49,6.81,11.3,9.27,13.9c-1.71,1.9-1.3,4.63-3.38,6.3c-1.4,1.54-2.95,2.94-4.63,4.17
		c-7.97,0.69-10.24,6.58-12.37,9.78c-0.83,1.34-1.67,2.55-2.55,3.94c-2.26,3.55-4.3,7.23-6.12,11.03c-4.14,3.65-7.03,8.51-8.25,13.9
		c-4.74,4.72-8.99,9.9-12.69,15.47c-4.61,6.81-8.58,14.04-11.86,21.59c-2.27,2.83-4.35,4.63-6.86,7.18
		c-1.63,1.33-3.05,2.89-4.22,4.63c-2.5,1.11-6.95,3.61-9.27,4.63c-4.39,1.03-8.88,1.57-13.39,1.62c-1.9,0-1.25,1.9-0.46,2.36
		c2.28,0.66,4.6,1.15,6.95,1.48c3.37,0.34,6.77-0.01,10.01-1.02c2.59-0.88,1.2,0.93,1.2,0.93c-1.83,0.85-3.74,1.51-5.7,1.99
		c-3.24,2.04,0.28,3.75,3.52,2.92l10.38-2.92c0.79,0.56-0.56,1.81-1.34,3.34c-0.79,1.53-0.74,2.36,0,2.83
		c5.28,0.97,6.63-5.28,9.91-7.32c4.26-1.34,2.08,2.92,8.66,4.17c1.71,0.37,5.33,0.88,5.65-1.85c0.32-2.73-1.81-2.22-3.75-2.78
		c-1.16-0.5-2.04-1.48-2.41-2.69c0,0,0-0.32,0.74-2.97c-0.76-2.51-0.65-5.21,0.32-7.64c1.95-5.68,5.11-10.86,9.27-15.2
		c16.77-9.87,19-15.1,25.16-27.38c3.41-0.34,6.28-2.7,7.27-5.98h2.18c0.5,0.15,1.01,0.26,1.53,0.32c1.74,3.75,3.85,7.32,6.3,10.66
		c-1.44,4.22,3.1,7.6,3.15,7.97c0.49,4.11,1.45,8.16,2.87,12.05c-1.67,1.88-3.22,3.86-4.63,5.93c-11.81,0.46-7.6,15.43-9.27,20.99
		c-1.53,2.64-2.27,2.64-5.51,5.1c-4.12,1.02-5.47,0.42-8.71,5.98c-11.83,7.57-22,17.47-29.88,29.09c-5.52,0.11-10.66,2.8-13.9,7.27
		c-14.59,5.48-28.29,13.06-40.68,22.52c-6.18,4.7-11.93,9.94-17.19,15.66c-1.52,1.52-3.16,2.92-4.91,4.17c-1.67,1.39,0,3.29,0,3.29
		c-1.21,0.65-2.32,1.48-3.29,2.46l-2.41-1.95c-3.2-1.02-3.61,3.24-5.24,4.63c-2.73,1.95-3.52-1.62-3.66-4.35
		c-0.22-1.14-0.63-2.24-1.2-3.24c-0.37-0.46-0.6-0.97-1.34-0.6s-0.97,0.88-1.3,1.99c0.08,1.49,0.49,2.95,1.2,4.26
		c-0.51,3.47,0.83,4.26,1.02,5.84c0,0.51-0.23,0.6-0.79,0.93c-1.3-0.97-1.62-1.25-3.43,0s-1.76,1.07-1.58,4.12
		c-1.07,0.32-3.06,1.44-5,2.22c-2.27-0.32-2.92,0.28-2.92,0.28s-2.32,0.83-4.63,1.53c-1.03,0.2-2.03,0.55-2.97,1.02
		c-3.01,0-3.01,0-4.63,0c-2.59,0.88-2.22,0-3.66,0.56c-1.85,0.04-3.63,0.74-5,1.99c-4.22,2.87-5.05,4.63-3.8,8.01
		c2.1,3.58,4.72,6.83,7.78,9.64c3.06,2.18,6.87,3.03,10.56,2.36c1.64-0.45,3.2-1.16,4.63-2.08c8.29-3.52,8.66,1.48,15.52-0.69
		c0.79,0,5.24-3.15,5.14-5.47c2.36,0,1.62-2.55,4.63-4.63c5.37-0.28,5.51-5.47,7.78-7.23c0.46-0.37,0.74-1.11,1.34-1.3
		c2.83-0.93,1.44-0.46,2.83-2.5c2.08-2.22,2.32-1.16,4.63-3.1c1.2,0,1.48,0.69,4.63-1.62c0.83-0.56,1.81-1.2,3.1-2.22
		c4.63,2.08,4.35,1.02,6.81-1.02c0,0,3.2-2.55,7.41-5.51c5.47-3.89,12.42-8.57,14.36-10.05c3.38-0.97,10.75-5.37,14.55-7.04
		c9.21-5.09,18.06-10.8,26.5-17.1c7.04-2.32,19.97-8.39,19.97-8.39c4.63-1.99,8.99-3.98,12.83-6.02c3.85-2.04,8.25-4.63,12.6-6.81
		c4.35-2.18,9.73-4.63,15.15-7.23c1.42-0.74,3.07-0.95,4.63-0.6c1.13,0.47,2.2,1.06,3.2,1.76c4.28,2.38,8.86,4.17,13.62,5.33
		c5.63,1.82,11.11,4.06,16.4,6.72c2.92,1.34,5.84,2.22,9.27,3.94c6.78,3.89,14.15,6.63,21.82,8.11c2.67,0.37,5.29,1,7.83,1.9
		c1.71,0.51,3.57,0.93,7.04,1.67c2.91,2.05,6.01,3.8,9.27,5.24c2.87,1.58,19.83,15.1,26.92,21.08c2.39,2.2,5.37,3.66,8.57,4.22
		c15.66,11.77,16.96,15.57,23.16,14.45l5.24,4.35c1.92,2.95,4.43,5.48,7.37,7.41c1.78,3.87,4.49,7.24,7.88,9.82
		c-0.42,0,0.46,2.92,1.76,5.51c0.54,1.19,1.14,2.35,1.81,3.47c1.53,3.01,2.27,4.35,4.63,2.83c1.35-0.61,2.66-1.29,3.94-2.04
		c3.85-3.5,8.04-6.61,12.51-9.27C651.91,388.26,656.24,385.65,660.28,382.62z"/>
	<path d="M275.05,439.01c-5.12-2.4-10.7-3.68-16.35-3.75c-13.9-0.28-27.8,0-41.7,0l0,0c-12.14,0-24.32,0-36.46,0
		c-5.72,0.09-11.41,0.84-16.96,2.22c-8.26,1.13-14.16,8.56-13.39,16.86c0.42,12.97,0.23,25.9,0,38.87
		c-0.34,6.37,3.37,12.26,9.27,14.69c6.52,2.91,13.62,4.31,20.76,4.08c24.23,0,48.46,0,72.69,0c5.55,0.06,11.08-0.65,16.45-2.08
		c10.24-3.01,14.45-7.18,14.59-17c0.23-13.11,0-26.27,0-39.38C284.35,447.28,280.79,441.47,275.05,439.01z M253.74,489.27
		c0.35,4.46-2.99,8.36-7.46,8.71c-0.42,0.03-0.84,0.03-1.25,0h-55.6c-4.57,0.72-8.87-2.4-9.59-6.98c-0.14-0.87-0.14-1.75,0-2.61
		V458.6c-0.67-4.58,2.5-8.84,7.08-9.51c0.72-0.11,1.46-0.12,2.18-0.03h55.18c4.57-0.54,8.72,2.72,9.27,7.3
		c0.08,0.65,0.08,1.32,0,1.97C253.37,468.64,253.43,478.96,253.74,489.27L253.74,489.27z"/>
	<path d="M618.53,452.35c0.3-5.61-2.91-10.81-8.06-13.06c-6.61-3.01-13.83-4.4-21.08-4.08c-33.26,0-66.53,0-99.79,0h-3.29v2.69
		c0,23.63,0,47.21,0,70.84c0,2.59,0.74,3.24,3.29,3.24c27.06,0,54.11,0,81.17,0c7.64,0,15.24,0,22.84-0.46
		c4.73-0.32,9.41-1.25,13.9-2.78c7.07-1.99,11.75-8.71,11.17-16.03C618.3,479.17,618.53,465.74,618.53,452.35z M589.81,493.49
		c0,3.38-1.02,4.63-4.63,4.63h-69.49h-1.3v-49.06h69.49c4.63,0,5.42,0.69,5.42,5.28L589.81,493.49z"/>
	<path d="M428.21,478.94c8.01-2.08,15.94-4.35,21.4-11.35c3.45-3.78,4.29-9.26,2.13-13.9c-3.28-5.97-8.8-10.4-15.34-12.32
		c-11.33-3.98-23.29-5.88-35.3-5.61c-24.69-0.28-49.34,0-74.13,0c-2.59,0-3.29,0.74-3.24,3.29c0,23.16,0,46.33,0,69.17
		c0,0.88,0,1.71,0,2.64h29.74v-27.8h37.06c0.68,0.06,1.33,0.34,1.85,0.79c1.76,1.48,3.38,3.06,5.1,4.63l22.38,20.2
		c1.59,1.52,3.73,2.34,5.93,2.27c7.18,0,14.36,0,21.54,0h8.66c-12-10.47-23.72-19.97-34.79-30.25
		C423.77,479.82,426.04,479.5,428.21,478.94z M418.95,465.04c-4.04,3.27-9.07,5.08-14.27,5.14c-16.72,0.6-33.5,0.69-50.59,0.97
		v-23.16c0.63-0.11,1.26-0.19,1.9-0.23c13.9,0,27.8,0,41.7,0.23c6.14-0.13,12.24,1.06,17.88,3.47c1.46,0.63,2.82,1.48,4.03,2.5
		c2.93,2.75,3.07,7.35,0.32,10.28c-0.32,0.34-0.68,0.66-1.06,0.93L418.95,465.04z"/>
	<path d="M924.35,435.67c-7.27,0-14.55,0-21.82,0c-2.55,0-3.1,0.83-3.06,3.2c0,15.52,0,31.04,0,46.33v4.26
		c-0.77-0.19-1.52-0.47-2.22-0.83l-8.43-6.76l-25.11-19.97c-9.27-7.32-18.53-14.73-27.57-22.01c-2.04-1.62-4.22-4.08-6.44-4.22
		c-8.57-0.46-17.19,0-26.04,0v75.19h26.87v-54.53c1.58,1.25,2.55,2.04,3.57,2.78l30.11,23.77c10.72,8.52,21.4,17.1,32.06,25.71
		c2.08,1.71,4.73,2.58,7.41,2.41c6.67,0,13.34,0,19.97,0h2.78c0-0.65,0-0.93,0-1.16c0-23.97,0-47.92,0-71.86
		C926.72,436.13,926.02,435.67,924.35,435.67z"/>
	<path d="M746.5,464.16c-6.39-8.99-12.74-18.02-19.23-26.96c-0.83-0.87-1.95-1.38-3.15-1.44c-10.19,0-20.38,0-30.58,0
		c-1.09,0.1-2.1,0.62-2.83,1.44c-7.27,10.1-14.41,20.29-21.68,30.39l-21.73,30.39c-2.92,4.08-5.79,8.25-9.27,12.97
		c10.24,0,19.83,0,29.37,0c0.79,0,1.81-0.97,2.32-1.71c2.55-3.85,4.96-7.83,7.55-11.67c0.57-0.78,1.45-1.29,2.41-1.39
		c19.32,0,38.64,0,58,0c1.14,0.13,2.16,0.74,2.83,1.67c2.59,3.66,5,7.41,7.32,11.26c0.71,1.33,2.17,2.08,3.66,1.9h25.3
		c0.74,0,1.48,0,2.59,0l-6.02-8.66C764.41,489.49,755.45,476.76,746.5,464.16z M686.27,484.04l22.52-35.3l22.61,35.3H686.27z"/>
	<path d="M113.27,438.5v-3.34c-9.27,0-18.11,0-26.96,0c-2.46,0-3.15,0.69-3.1,3.15c0,16.03,0,32.11,0,48.18
		c0.76,4.67-2.42,9.07-7.09,9.83c-0.09,0.01-0.18,0.03-0.27,0.04c-5.3,1.27-10.72,1.96-16.17,2.08c-18.81,0.28-37.62,0-56.43,0
		c-2.64,0-3.43,0.79-3.2,3.34c0.19,2.3,0.19,4.61,0,6.9c0,2.59,0.69,3.29,3.24,3.24c18.53,0,36.55,0,54.81,0
		c8.99,0,18.02-0.65,26.96-1.53c6.85-0.57,13.53-2.47,19.64-5.61c5.41-2.26,8.82-7.67,8.52-13.53
		C113.08,473.8,113.27,456.06,113.27,438.5z"/>
</g>
</svg>
