<?xml version="1.0" encoding="iso-8859-1"?>
<!-- Generator: Adobe Illustrator 25.2.0, SVG Export Plug-In . SVG Version: 6.00 Build 0)  -->
<svg version="1.1" id="Warstwa_1" xmlns="http://www.w3.org/2000/svg" xmlns:xlink="http://www.w3.org/1999/xlink" x="0px" y="0px"
	 viewBox="0 0 810.16 512" style="enable-background:new 0 0 810.16 512;" xml:space="preserve">
<g>
	<path d="M0,396.35h781.41V0H0V396.35z M264.86,274.2c-18.4,10.44-33.8,9.83-38.92-3.33c-3.21-8.12-12.84-7.11-30.34-0.32
		c-12.92,5-94.93,37.33-104.85,40.91s-20.51-1.02-21.9-11.66S42.04,101.31,42.04,101.31c-1.64-7.54,3.15-14.98,10.69-16.62
		c2.43-0.53,4.95-0.4,7.31,0.37l111.06,27.79c17.95,4.51,30.3,14.83,34.73,24.62l84.78,15.15c10.38,1.25,19.58,7.25,24.9,16.25
		c3.33,5.32,35.34,55.81,35.34,55.81S281.43,264.77,264.86,274.2z M775.43,390.34H388.87V6.01h386.56L775.43,390.34z"/>
	<path d="M640.28,192.1h56.67c10.77-0.29,19.36-9.09,19.38-19.86V92.7h-19.46v79.54c0,1.41-1.15,2.56-2.56,2.56l0,0h-16.01V92.7
		h-19.42v81.98h-16.01c-1.41,0-2.56-1.15-2.56-2.56l0,0V92.7h-19.42v79.54C620.9,183.02,629.5,191.84,640.28,192.1z"/>
	<path d="M696.95,203.92h-44.68c-10.78,0.31-19.36,9.12-19.38,19.9v79.5h19.42v-79.5c0-1.44,1.16-2.6,2.6-2.6h39.28
		c1.42,0.02,2.56,1.18,2.56,2.6v20.76h-31.44c-1.43,0.01-2.71,0.85-3.29,2.15l-6.62,15.11h41.35v41.48h19.46v-79.5
		C716.19,213.09,707.68,204.29,696.95,203.92z"/>
	<path d="M555.71,192.06h54.84v-17.39h-52.24c-1.42,0-2.58-1.14-2.6-2.56v-21.53h50.09v-17.26h-50.09V112.6
		c0-1.44,1.16-2.62,2.6-2.64h52.24v-17.3h-54.84c-10.8,0.26-19.42,9.1-19.42,19.9v59.63C536.29,183,544.91,191.82,555.71,192.06z"/>
	<path d="M555.71,223.83c0-1.44,1.16-2.6,2.6-2.6h40.62c1.44,0,2.6,1.16,2.6,2.6v18.12c0,1.46-1.18,2.64-2.64,2.64h-30.67
		c-1.42-0.01-2.7,0.84-3.25,2.15l-6.58,15.11h24.62l20.31,41.48h22.5l-21.85-41.52c9.61-1.64,16.71-9.87,16.9-19.62v-18.36
		c-0.02-10.78-8.6-19.6-19.38-19.9h-45.78c-10.78,0.31-19.38,9.12-19.42,19.9v79.5h19.42V223.83z"/>
	<path d="M469.27,131.09l37.21,57.76c1.52,2.02,3.89,3.22,6.42,3.25h5.77c4.09-0.02,7.39-3.34,7.39-7.43V92.66h-19.58v60.93
		l-37.29-57.64c-1.51-2.01-3.86-3.21-6.38-3.25h-5.61c-4.09,0-7.41,3.3-7.43,7.39v92.01h19.42L469.27,131.09z"/>
	<path d="M469.22,303.32h56.87v-17.26h-54.23c-1.44,0-2.6-1.16-2.6-2.6v-21.61h51.96v-17.26h-51.96v-20.76c0-1.44,1.16-2.6,2.6-2.6
		h54.11v-17.35H469.1c-10.78,0.31-19.36,9.12-19.38,19.9v59.63C449.7,294.27,458.38,303.13,469.22,303.32z"/>
	<path d="M308.52,174.35l-2.84-4.59c-2.74-4.28-7.36-6.98-12.43-7.27l-63.7-7.11l8.12,16.9L308.52,174.35z"/>
	<polygon points="256.16,210.42 323.11,198.15 316.12,186.74 247.1,191.82 	"/>
	<path d="M124.34,140.71l27.09,3.25c12.67,1.54,17.3,8.12,21.25,18.69c3.94,10.56,16.94,46.27,16.94,46.27l4.59-0.61
		c18.77-2.4,26.2-1.02,31.81,2.6l-25.84-60.24c-8.12-18.89-18.52-22.79-40.62-27.22l-24.82-4.96c-5.68-1.76-11.71,1.42-13.46,7.1
		c-0.27,0.87-0.43,1.77-0.47,2.69c-0.32-1.42-3.86-13.36-3.86-13.36l-41.8-8.37l23.28,113.99l47.2-6.01L124.34,140.71z"/>
	<path d="M234.67,230.81c-4.87-11.46-16.61-13.32-35.06-9.91l-97.49,17.95l6.91,33.76l99.04-28.88c19.42-5.73,29.53-6.05,31.85-0.69
		c4.96,11.54,18.89,12.19,34.57,5.36l62.44-27.74l-7.68-12.51l-92.66,27.09L234.67,230.81z"/>
	<path d="M809.84,383.23c0.07-6.46-5.12-11.75-11.58-11.82c-6.46-0.07-11.75,5.12-11.82,11.58c-0.07,6.46,5.12,11.75,11.58,11.82
		c0.05,0,0.11,0,0.16,0c6.37,0.07,11.59-5.04,11.66-11.41C809.84,383.34,809.84,383.28,809.84,383.23z M788.68,383.23
		c0.13-5.23,4.48-9.35,9.71-9.22c5.23,0.13,9.35,4.48,9.22,9.71c-0.13,5.11-4.3,9.2-9.42,9.22c-5.18,0.07-9.44-4.07-9.51-9.26
		C788.67,383.53,788.67,383.38,788.68,383.23L788.68,383.23z"/>
	<path d="M803.79,389.97l-3.78-5.85c1.93,0,3.5-1.56,3.5-3.49c0-0.07,0-0.14-0.01-0.21c0-2.6-1.58-3.78-4.75-3.78h-5.08v13.32h2.03
		v-5.81h2.32l3.53,5.81H803.79z M795.66,382.5v-4.06h2.76c2.36,0,2.97,0.73,2.97,1.99s-0.81,2.19-3.29,2.19L795.66,382.5z"/>
	<path d="M311.08,440.46H298.9c-2.11,0-4.06,13.24-4.51,15.8c-1.06,5.77-2.48,11.37-3.82,17.02c-2.44,10.48-2.68,26.73-14.83,26.73
		h-0.93c-3.45,0.43-6.6-2.01-7.03-5.46c-0.05-0.38-0.06-0.77-0.04-1.16v-1.42c0-5.04,4.63-19.54,5.61-25.55
		c1.22-7.64,5.16-19.25,5.73-25.96h-13.85c0,2.92-4.59,23.28-5.61,26.57c-2.4,8.84-4.31,17.8-5.73,26.85v5.2
		c0,8.12,8.98,12.76,17.51,12.76c7.5,0.49,14.9-1.93,20.68-6.74c6.66-6.34,6.22-9.59,9.02-18.85c1.75-5.73,4.06-17.02,5.16-22.71
		C307.43,456.19,310.51,447.05,311.08,440.46z"/>
	<path d="M197.34,440.59l-17.71,27.79l-5.12-27.91h-14.66c1.62,7.03,3.21,13.73,4.92,21.08c0.89,4.06,5.04,18.12,5.04,21
		c0,5.97-5.52,20.64-6.17,28.44h12.19c1.83,0,2.97-8.12,3.25-9.99c0.57-3.41,1.54-7.72,2.32-10.93c2.6-10.68,3.53-10.03,8.69-17.75
		c2.97-4.47,20.31-29.17,21.16-31.77L197.34,440.59z"/>
	<path d="M235,439.53h-2.84c-5.56,0.44-10.87,2.53-15.23,6.01c-3.96,3.6-6.78,8.27-8.12,13.45c-3.47,11.73-6.03,23.71-7.64,35.83
		v2.84c0,9.75,7.64,14.18,17.51,14.18c11.77,0.79,22.55-6.6,26.04-17.87c3.47-11.81,6.18-23.83,8.12-35.99v-5.69
		C252.47,443.84,243.89,439.53,235,439.53z M239.06,457.97c-1.29,8.41-3.07,16.74-5.32,24.94c-1.99,8.12-2.4,17.1-12.67,17.1h-0.45
		c-3.13,0-6.13-1.67-6.13-4.71v-2.84c0-6.46,4.06-18.16,5.16-24.62c1.34-8.41,3.01-16.49,12.8-16.49c3.23-0.41,6.17,1.88,6.58,5.11
		c0.04,0.34,0.06,0.69,0.04,1.03L239.06,457.97z"/>
	<path d="M800.17,449.93c-2.48-1.83-3.17-10.4-5.69-10.4h-2.84v14.66H794l0.41-11.98l4.35,11.98h1.79l4.83-11.78v11.82h2.36v-14.71
		h-3.7L800.17,449.93z"/>
	<polygon points="27.54,452.29 49.36,452.33 51.63,440.51 16.86,440.51 1.26,510.82 14.62,510.86 21.41,480.64 38.31,480.64 
		40.78,468.37 24.17,468.33 	"/>
	<path d="M73.36,440.46H61.18c-2.36,0-4.06,14.34-4.75,17.02c-1.22,5.85-2.68,11.5-4.06,17.79c-1.02,5.16-2.6,13.04-4.06,17.71
		c-1.62,5.89-2.9,11.87-3.82,17.91h34.85l2.48-11.78H60.49L73.36,440.46z"/>
	<path d="M105.5,468.37l-5.24-27.91H85.67c2.68,11.58,5.85,22.75,8.12,34.81c2.07,10.44,1.54,7.52-0.53,17.75
		c-1.66,5.88-3.02,11.85-4.06,17.87h13.69c0.94-7.31,2.39-14.55,4.35-21.65c2.07-9.18,4.06-10.44,8.69-17.3
		c2.97-4.43,20.31-28.84,21-31.48h-13.97L105.5,468.37z"/>
	<path d="M614.45,452.29h21.77l2.8-11.86h-34.04c-2.4,0-4.06,14.14-4.92,16.86c-1.5,5.44-2.88,12.59-4.06,17.75
		c-2.11,10.32-6.87,26.16-7.68,35.83h13.24l6.62-30.26h16.94l2.88-12.19h-16.98L614.45,452.29z"/>
	<polygon points="547.38,482.18 537.92,440.51 523.25,440.51 507.69,510.9 519.92,510.9 530.16,465.45 540.72,510.9 553.48,510.86 
		569.07,440.51 556.85,440.51 	"/>
	<path d="M697.16,440.46c-1.79,0-13.2,25.55-14.66,28.84c-2.88,6.38-12.47,24.37-13.69,29.78h-21.33l12.8-58.62h-13.2l-15.68,70.36
		h43.55c2.72,0,6.5-14.66,8.98-14.66h17.95v14.66h12.88l-1.54-70.44L697.16,440.46z M688.34,483.81l12.67-27.91l0.37,28.07
		L688.34,483.81z"/>
	<polygon points="504.97,440.55 485.31,485.84 485.92,440.51 472.84,440.55 452.69,486.33 453.79,440.51 441.2,440.51 440.22,510.9 
		453.1,510.82 474.71,462.68 473.61,510.9 486.61,510.78 517.57,440.51 	"/>
	<path d="M755.29,439.53c-15.27,0-22.14,6.82-26.65,17.83c-3.53,11.98-6.16,24.2-7.88,36.56v5.73c0,6.99,8.12,12.19,15.15,12.19
		h3.29c5.16,0,9.99-4.43,13.24-6.62c0,1.83,0,5.69,1.87,5.69h5.89l7.84-35.83h-22.75l-2.32,10.89h8.98
		c0,6.82-4.06,14.18-10.85,14.18h-0.49c-3.41,0-6.62-1.79-6.62-5.2v-0.45c1.06-8.12,2.65-16.17,4.75-24.09
		c1.3-6.46,3.09-18.44,10.36-18.44h4.27c2.24-0.11,4.15,1.61,4.26,3.85c0,0.07,0.01,0.14,0.01,0.21v3.33l-0.57,4.06h13.65l0.53-5.2
		v-3.78C771.33,444.97,764.79,439.53,755.29,439.53z"/>
	<path d="M417.88,439.53h-2.84c-11.53,0.58-21.32,8.63-24.13,19.82c-1.79,6.62-7.52,29.9-7.52,36.56v0.97
		c0,9.71,7.19,15.11,16.98,15.11c14.79,0,23.07-6.95,26.77-18.12c3.52-11.99,6.24-24.21,8.12-36.56v-2.84
		C435.35,444.4,427.75,439.53,417.88,439.53z M421.66,458.91c-1.21,7.9-2.85,15.72-4.92,23.44c-1.75,6.91-2.52,17.22-10.68,17.22
		H402c-2.58,0.02-4.69-2.05-4.71-4.63c0-0.04,0-0.08,0-0.12v-1.42c0-6.58,4.06-18.2,5.2-25.02c1.26-8.45,3.05-17.02,12.76-17.02
		h0.93c2.15,0,5.69,2.23,5.69,4.06L421.66,458.91z"/>
	<path d="M338.02,440.46h-17.95c-0.85,10.03-6.01,24.05-7.56,34.53c-0.81,5.44-2.97,11.41-3.78,16.98
		c-0.69,4.43-3.78,13.77-3.78,17.51v1.42h13l6.34-28.8h6.62v1.3c0,1.71,2.07,11.41,2.64,13.89c0.57,2.48,1.5,13.53,3.53,13.53h13.45
		l-6.54-31.48c7.64-0.61,15.11-12.76,15.11-21.73v-4.06C359.26,443.67,348.05,440.46,338.02,440.46z M345.57,459.84
		c0,7.39-5.97,11.37-13.69,11.37h-5l4.06-19.3h8.12c3.25,0,6.62,2.07,6.62,5.2L345.57,459.84z"/>
</g>
</svg>
