<?xml version="1.0" encoding="iso-8859-1"?>
<!-- Generator: Adobe Illustrator 26.1.0, SVG Export Plug-In . SVG Version: 6.00 Build 0)  -->
<svg version="1.1" id="Layer_1" xmlns="http://www.w3.org/2000/svg" xmlns:xlink="http://www.w3.org/1999/xlink" x="0px" y="0px"
	 viewBox="0 0 1500.9 512" style="enable-background:new 0 0 1500.9 512;" xml:space="preserve">
<g id="Pink-Soda-Sport" transform="translate(0 -9)">
	<path id="Shape" d="M505,420.5c4.8,0,9.5,1.1,13.8,3.3c4.4,2.5,8.3,5.6,11.7,9.3l2.3,2.6l-13.4,11.8c-3-5.5-8.5-9.2-14.7-9.9
		c-2.1-0.1-4.2,0.6-5.9,1.9c-1.4,1-2.2,2.6-2.3,4.3c0,1.7,0.6,3.3,1.6,4.6c4.2,4.4,8.7,8.6,13.5,12.4c7,5.8,11.3,9.5,12.8,11
		c3.2,3.1,5.9,6.7,7.8,10.7c1.6,3.5,2.4,7.3,2.3,11.2c0.2,7.4-2.8,14.5-8.2,19.5c-5.9,5.3-13.5,8.1-21.4,7.8
		c-6.4,0.2-12.7-1.5-18.1-4.9c-5.7-4-10.2-9.4-13.1-15.6l15.6-9.3c4.6,8.5,10,12.7,16.1,12.7c2.9,0.1,5.6-0.9,7.8-2.7
		c2-1.5,3.2-3.8,3.2-6.3c-0.1-2.4-0.9-4.7-2.5-6.5c-3.2-3.7-6.8-7.1-10.7-10c-7.6-5.7-14.5-12.3-20.4-19.8c-2.9-4-4.5-8.9-4.6-13.8
		c0-6.6,2.8-12.8,7.8-17.2C491.1,422.8,497.9,420.3,505,420.5z M1043.5,420.5c4.8,0,9.5,1.1,13.8,3.3c4.4,2.5,8.3,5.6,11.7,9.3
		l2.3,2.6l-13.5,11.8c-3-5.5-8.4-9.2-14.6-9.9c-2.1-0.1-4.3,0.6-5.9,1.9c-1.4,1-2.2,2.6-2.3,4.3c0,1.7,0.6,3.3,1.6,4.6
		c4.2,4.4,8.7,8.6,13.5,12.4c7,5.8,11.3,9.5,12.8,11c3.2,3.1,5.8,6.7,7.8,10.7c1.6,3.5,2.4,7.3,2.3,11.2c0.2,7.4-2.8,14.5-8.2,19.5
		c-5.8,5.3-13.5,8.1-21.4,7.8c-6.4,0.2-12.7-1.5-18.1-4.9c-5.6-4-10.2-9.4-13.1-15.6l15.6-9.3c4.7,8.5,10,12.7,16.1,12.7
		c2.9,0.1,5.6-0.9,7.8-2.7c2-1.5,3.2-3.8,3.2-6.3c-0.1-2.4-0.9-4.7-2.4-6.5c-3.2-3.7-6.8-7-10.7-10c-7.7-5.7-14.5-12.3-20.4-19.8
		c-2.9-4.1-4.5-8.9-4.6-13.8c0-6.6,2.8-12.8,7.8-17.2C1029.7,422.8,1036.5,420.3,1043.5,420.5L1043.5,420.5z M1254.9,420
		c13.3-0.1,26,5.2,35.2,14.7c19.7,19.6,19.8,51.5,0.2,71.3c-19.6,19.7-51.5,19.8-71.3,0.2s-19.8-51.5-0.2-71.3
		c3.2-3.2,6.7-5.9,10.6-8.2c7.7-4.4,16.4-6.8,25.3-6.7H1254.9z M619.6,419.9v0.1c13.3-0.1,26,5.2,35.2,14.7c9.7,9.4,15,22.4,14.8,36
		c-0.3,27.8-23,50-50.8,49.8s-50-23-49.8-50.8C569.3,441.9,592,419.7,619.6,419.9L619.6,419.9z M732.9,422.5
		c10.7-0.6,21.4,1.2,31.3,5.2c7.2,3.8,13.1,9.7,16.9,16.9c7.7,14.7,8.8,32.1,2.9,47.6c-2.2,5.9-5.7,11.2-10.2,15.6
		c-4,3.9-8.9,6.8-14.2,8.5c-8.7,1.9-17.5,2.7-26.4,2.3H711l0.1-96.2L732.9,422.5z M1157.5,425.4c4.6,1.9,8.5,5.2,11,9.4
		c2.8,4.7,4.1,10.2,3.9,15.6c0.2,6-1.7,11.9-5.4,16.7c-3.7,4.5-8.7,7.8-14.3,9.3c-6.4,1.2-13,1.7-19.5,1.5v40.6h-18.4l0.3-96.1h19.5
		C1142.3,422.1,1150.1,423.1,1157.5,425.4L1157.5,425.4z M42.4,425.4c4.6,1.8,8.5,5.1,11.1,9.4c2.8,4.7,4.1,10.2,3.9,15.6
		c0.2,6-1.6,11.9-5.3,16.7c-3.7,4.5-8.7,7.8-14.4,9.3c-6.4,1.3-13,1.8-19.5,1.5v40.6H0v-96h19.5C27.3,422.1,35,423.1,42.4,425.4
		L42.4,425.4z M1500.9,422.5v18h-17.6v78h-18.6v-78h-17.2v-18H1500.9z M122.1,422.5v96h-18.3v-96H122.1z M195.5,422.5l41.4,63.2
		v-63.2h18.4v96h-17.7l-41.4-63v63h-18.4v-96H195.5z M877.6,422.5l37.2,96h-19.2l-7.6-19.8h-39.4l-7.8,19.8h-19.1l37.3-96H877.6z
		 M325.8,422.5v33.1l26.3-33.1h22.1l-33.8,42.9l37.1,53.2h-21.8l-29.8-42.6v42.6h-18.6v-96H325.8z M619.4,437.8l-0.2,0.1
		c-8.5-0.2-16.7,3.2-22.6,9.3c-6.1,6.2-9.4,14.7-9.1,23.4c-0.3,9.8,4,19.1,11.7,25.2c5.8,4.8,13,7.3,20.5,7.3
		c8.4,0.1,16.5-3.3,22.3-9.4c12.3-13,12.3-33.4,0-46.4C636.1,441.1,627.9,437.7,619.4,437.8z M1254.7,437.8l-0.1,0.1
		c-8.5-0.2-16.6,3.2-22.5,9.3c-6.1,6.2-9.4,14.7-9.1,23.4c-0.4,9.7,3.9,19.1,11.5,25.2c5.8,4.8,13.1,7.4,20.6,7.3
		c8.4,0.1,16.5-3.3,22.3-9.4c12.3-13,12.3-33.4,0-46.4C1271.5,441.1,1263.2,437.7,1254.7,437.8L1254.7,437.8z M735.6,440.1h-6.3
		v60.6h8.6c6.2,0.4,12.5-0.6,18.3-2.9c4-2.2,7.3-5.5,9.3-9.6c2.6-5.2,3.8-10.9,3.6-16.7c0.5-8.8-2.6-17.4-8.6-23.7
		C753.5,442,744.6,439.3,735.6,440.1L735.6,440.1z M868.6,448l-13,33h25.9L868.6,448z M23.4,440.3h-5V460h5.9c3.2,0.2,6.5-0.2,9.6-1
		c1.7-0.6,3.2-1.7,4.3-3.2c1.1-1.6,1.6-3.5,1.6-5.5c0.2-3.3-1.6-6.5-4.5-8.1C31.5,440.7,27.5,440,23.4,440.3z M1138.6,440.3h-5.2
		V460h5.9c3.2,0.2,6.5-0.2,9.6-1c1.7-0.6,3.2-1.7,4.2-3.2c1.1-1.6,1.6-3.5,1.6-5.5c0.2-3.3-1.4-6.4-4.3-8.1
		C1146.7,440.7,1142.7,440,1138.6,440.3L1138.6,440.3z M855,9l68.9,50.3l-10.1,149l-0.7,0.5L750.5,326.7l-1-0.7L587.1,208.3
		L577,59.1L646,9l104.5,72.3L855,9z M709,222l-38.3,27.7l64.2,46.6L709,222z M791.8,222l-25.8,74.2l64.1-46.5L791.8,222z
		 M750.5,191.9L722,212.5l28.5,81.4l28.5-81.4L750.5,191.9z M817.4,149l-20.2,57.9l46.1,33.4l49.8-36.2L817.4,149z M683.4,149
		l-75.8,55.1l49.9,36l46.1-33.4L683.4,149z M798,157.8l-34.2,24.8l20.4,14.8L798,157.8z M702.9,157.8l13.8,39.7l20.4-14.8
		L702.9,157.8z M630.1,105.3l-22,79.6L674,137L630.1,105.3z M870.8,105.3L826.9,137l66.1,47.8L870.8,105.3z M750.5,100.1L700.1,137
		l50.4,36.1l50.3-36.5L750.5,100.1z M593.9,78.7l5.4,79.6l17.5-63L593.9,78.7z M907.2,78.7l-23,16.6l17.5,63L907.2,78.7z
		 M839.8,38.2l-75.9,52.5l45.9,33.5L839.8,38.2z M661.3,38.2l30,85.9l45.9-33.4L661.3,38.2z M647,44.1l-12.4,44.9l37.8,27.2
		L647,44.1z M854.1,44.1L829,116.3l37.5-27.4L854.1,44.1z M632.5,37.7L598,62.8l22.8,16.6L632.5,37.7z M868.1,37.7l11.7,41.7
		l23.1-16.6L868.1,37.7z M1363.5,460h5.8c4.2,0.4,8.3-0.4,12.1-2.3c2.3-1.8,3.6-4.7,3.3-7.6c0.1-3.9-2.4-7.5-6.1-8.8
		c-3.3-0.8-6.7-1.2-10.1-1h-5L1363.5,460z M1345.1,422.5h19.5c7.7-0.4,15.4,0.6,22.8,2.9c4.5,1.9,8.4,5.2,10.9,9.4
		c2.8,4.7,4.3,10.1,4.1,15.6c0.2,5.6-1.4,11-4.6,15.6c-3.5,4.6-8.3,8-13.8,9.6l22.8,42.9h-20.1l-21.7-40.5h-1.7v40.6h-18.4
		L1345.1,422.5z"/>
</g>
</svg>
