<?xml version="1.0" encoding="iso-8859-1"?>
<!-- Generator: Adobe Illustrator 25.2.0, SVG Export Plug-In . SVG Version: 6.00 Build 0)  -->
<svg version="1.1" id="Layer_1" xmlns="http://www.w3.org/2000/svg" xmlns:xlink="http://www.w3.org/1999/xlink" x="0px" y="0px"
	 viewBox="0 0 3372.42 512" style="enable-background:new 0 0 3372.42 512;" xml:space="preserve">
<g>
	<path d="M412.46,112.63L268.74,435.52h59.15l32.14-72.65h170.73l33.79,72.65h67.58L476.62,112.63L412.46,112.63L412.46,112.63z
		 M380.32,312.08l60.86-143.66l65.93,143.66H380.32z"/>
	<path d="M818.14,384.8c-64.22,0-111.58-49.01-111.58-109.87c0-62.57,47.36-109.87,113.23-109.87c49.01,0,76.08,25.36,91.29,40.57
		l40.57-38.86c-13.5-15.22-52.43-57.5-131.87-57.5c-92.94,0-174.09,62.57-174.09,167.37c0,106.51,81.15,167.37,174.09,167.37
		c71.01,0,120.01-38.86,135.23-52.43l-32.14-45.65C894.16,366.22,853.65,384.8,818.14,384.8z"/>
	<polygon points="57.5,112.63 0,112.63 0,435.52 229.88,435.52 229.88,383.09 57.5,383.09 	"/>
	<path d="M1450.28,193.78c0-18.57,15.22-33.79,55.79-33.79c49.01,0,81.15,22,92.94,32.14l23.65-47.36
		c-15.22-13.5-59.15-38.86-116.65-38.86c-86.22,0-121.72,49.01-121.72,96.36c0,111.58,177.51,79.44,177.51,145.37
		c0,28.72-28.72,40.57-59.15,40.57c-49.01,0-86.22-22-103.08-33.79l-18.57,49.01c13.5,10.14,52.43,38.86,121.72,38.86
		c69.29,0,126.8-37.22,126.8-96.36C1627.79,222.5,1450.28,261.36,1450.28,193.78z"/>
	<polygon points="2052.04,298.58 2216.06,298.58 2216.06,247.86 2052.04,247.86 2052.04,163.35 2239.7,163.35 2239.7,112.63 
		2237.99,112.63 1994.61,112.63 1994.61,435.52 2244.77,435.52 2244.77,383.09 2052.04,383.09 	"/>
	<polygon points="1663.29,163.35 1773.16,163.35 1773.16,435.52 1830.6,435.52 1830.6,163.35 1942.18,163.35 1942.18,112.63 
		1663.29,112.63 	"/>
	<path d="M1161.25,105.91c-92.94,0-174.09,62.57-174.09,167.37c0,106.51,82.8,167.37,174.09,167.37
		c92.94,0,174.09-62.57,174.09-167.37S1254.25,105.91,1161.25,105.91z M1161.25,384.8c-64.22,0-111.58-49.01-111.58-109.87
		c0-62.57,49.01-109.87,111.58-109.87c64.22,0,111.58,49.01,111.58,109.87S1225.47,384.8,1161.25,384.8z"/>
	<path d="M3363.74,366.22c-6.78-5.07-13.5-5.07-18.57-6.78c-8.43-1.71-11.86-13.5-15.22-15.22c-6.78-1.71-11.86,6.78-16.93,5.07
		c-3.36-1.71-5.07-13.5-8.43-15.22c-6.78-1.71-13.5,6.78-16.93,6.78c-3.36,0-5.07-13.5-10.14-15.22c-6.78-1.71-13.5,8.43-16.93,6.78
		s-5.07-15.22-8.43-15.22c-6.78-1.71-13.5,8.43-18.57,6.78c-3.36,0-11.86-1.71-23.65-10.14c-3.36-1.71-10.14-6.78-10.14-6.78
		c-1.71,0-3.36-1.71-3.36,5.07c1.71,13.5,25.36,23.65,52.43,30.43c27.07,6.78,54.08,15.22,69.29,22
		c10.14,5.07,15.22,10.14,10.14,15.22c-3.36,3.36-10.14,5.07-16.93,1.71c-8.43-3.36-8.43-10.14-13.5-11.86
		c-6.78-1.71-13.5,10.14-18.57,10.14c-6.78-1.71-6.78-15.22-13.5-16.93c-6.78-1.71-15.22,10.14-20.29,8.43
		c-5.07-1.71-6.78-15.22-11.86-16.93c-6.78-1.71-15.22,10.14-20.29,8.43s-6.78-15.22-11.86-16.93c-6.78-3.36-18.57,8.43-28.72,3.36
		c-33.79-23.65-28.72-35.5-54.08-42.29c-13.5-3.36-30.43,0-40.57,1.71c-23.65,1.71-22-18.57-22-18.57c6.78,1.71,16.93,5.07,33.79,0
		c18.57-6.78,30.43-8.43,54.08,0c20.29,6.78,33.79,0,40.57-1.71c3.36-1.71,6.78-3.36,13.5,1.71c6.78,3.36,13.5,8.43,16.93,6.78
		c5.07-1.71,3.36-16.93,11.86-18.57c3.36-1.71,15.22,10.14,20.29,6.78c5.07-1.71,3.36-16.93,11.86-18.57
		c3.36-1.71,15.22,10.14,20.29,6.78c5.07-1.71,3.36-16.93,11.86-18.57c3.36-1.71,15.22,10.14,20.29,6.78
		c5.07-1.71,3.36-16.93,11.86-18.57c3.36-1.71,15.22,10.14,20.29,6.78c5.07-1.71,3.36-5.07,8.43-15.22c0-1.71,1.71-3.36,3.36-5.07
		c5.07-5.07,13.5-13.5,8.43-23.65c-3.36-10.14-13.5-10.14-32.14-5.07c-16.93,3.36-118.3,25.36-118.3,25.36
		c-15.22-30.43-27.07-10.14-50.72-13.5c-15.22-1.71-38.86-16.93-77.72,18.57c-20.29-5.07-38.86,0-52.43,6.78
		c-23.65-10.14-67.58-32.14-150.44-32.14c-23.65,0-79.44,5.07-169.02,28.72c-22,5.07-43.93,5.07-49.01-8.43
		c-5.07-15.22,13.5-28.72,47.36-45.65c86.22-40.57,143.66-32.14,258.6-92.94c62.57-32.14,65.93-71.01,65.93-81.15
		c0-6.78-6.78-8.43-10.14-3.36c-20.29,28.72-25.36,27.07-32.14,20.29c-8.43-8.43-15.22,5.07-23.65,11.86
		c-6.78,5.07-8.43-1.71-13.5-5.07c-10.14-6.78-18.57,11.86-25.36,16.93c-10.14,5.07-11.86,0-15.22-3.36
		c-1.71-1.71-6.78-1.71-10.14,0c-20.29,18.57-22,16.93-28.72,10.14c-5.07-5.07-6.78-8.43-20.29,5.07
		c-6.78,6.78-20.29,16.93-23.65,6.78c-3.36-10.14-6.78-15.22-25.36,1.71c-10.14,10.14-18.57,10.14-22,5.07
		c-3.36-5.07-3.36-16.93-20.29-3.36c-15.22,11.86-22,18.57-28.72,6.78c-5.07-11.86-16.93-1.71-23.65,6.78
		c-5.07,3.36-11.86,15.22-18.57,3.36c-5.07-10.14-15.22,0-27.07,13.5c-6.78,6.78-11.86,3.36-18.57,0
		c-6.78-5.07-16.93,15.22-27.07,25.36c-1.71,1.71-5.07,3.36-11.86-1.71c-8.43-5.07-22,25.36-27.07,32.14
		c-6.78,11.86-13.5-3.36-22,8.43c-16.93,25.36-37.22,54.08-42.29,104.8c-6.78,60.86,16.93,109.87,38.86,128.44
		c0,0-3.36,6.78-5.07,15.22c-6.78,16.93-10.14,38.86,0,55.79c8.43,15.22,27.07,40.57,33.79,16.93c3.36-11.86,6.78-11.86,16.93-3.36
		c16.93,11.86,13.5-10.14,16.93-16.93c1.71-5.07,5.07-6.78,18.57,3.36c8.43,5.07,10.14-1.71,13.5-11.86
		c6.78-30.43-6.78-37.22-20.29-40.57c-10.14-1.71-20.29,0-20.29,0c22-33.79,25.36-52.43,0-71.01c3.36-1.71,6.78,0,10.14,0
		c6.78,3.36,11.86,6.78,15.22,13.5s10.14,20.29-1.71,43.93c5.07,0,23.65,1.71,32.14,20.29c11.86,3.36,82.8,10.14,113.23,3.36
		c11.86-1.71,16.93-11.86,28.72-22c11.86-11.86,27.07-23.65,38.86-15.22c-22,8.43-37.22,25.36-37.22,47.36
		c0,16.93,6.78,22,18.57,32.14c10.14,8.43,13.5,22,16.93,33.79c5.07,13.5,15.22,13.5,16.93,1.71c3.36-18.57,8.43-15.22,15.22-6.78
		c8.43,10.14,15.22,8.43,15.22-5.07s3.36-18.57,18.57-3.36c5.07,5.07,13.5,5.07,13.5-6.78c0-15.22,6.78-15.22,15.22-6.78
		c3.36,1.71,5.07,3.36,6.78,3.36c6.78,0,11.86-13.5,6.78-23.65c-3.36-5.07-6.78-13.5-42.29-20.29
		c-11.86-1.71-10.14-10.14-10.14-10.14c87.87,3.36,162.3-6.78,212.95-37.22c60.86,15.22,148.73,15.22,177.51,15.22
		c28.72,0,50.72-1.71,69.29-10.14C3377.3,386.51,3373.88,372.94,3363.74,366.22z M3182.86,229.28c1.71-5.07,5.07-6.78,10.14-6.78
		c6.78,0,10.14,6.78,10.14,10.14l-16.93,3.36C3181.22,236.07,3181.22,232.64,3182.86,229.28z M3140.64,227.57
		c11.86,0,18.57,8.43,18.57,13.5c0,0-16.93,3.36-23.65,5.07c-5.07,1.71-8.43-1.71-8.43-5.07
		C3127.14,237.72,3132.21,227.57,3140.64,227.57z M2672.39,124.49c6.78-3.36,15.22-6.78,23.65-8.43c1.71,0,3.36,0,1.71,1.71
		c-1.71,5.07-3.36,11.86-3.36,16.93c0,1.71-1.71,1.71-3.36,1.71c-6.78-3.36-13.5-6.78-20.29-10.14
		C2670.74,126.14,2670.74,126.14,2672.39,124.49z M2635.24,141.35c6.78-3.36,15.22-6.78,23.65-8.43c1.71,0,3.36,0,1.71,1.71
		c-1.71,5.07-3.36,11.86-3.36,16.93c0,1.71-1.71,1.71-3.36,1.71c-6.78-3.36-13.5-6.78-20.29-10.14
		C2635.24,144.78,2635.24,143.06,2635.24,141.35z M2628.45,190.42c-1.71,0-1.71-1.71,0-3.36c6.78-3.36,15.22-5.07,23.65-6.78
		c1.71,0,3.36,0,1.71,1.71c-1.71,5.07-3.36,11.86-3.36,16.93c0,1.71-1.71,1.71-3.36,1.71
		C2641.96,197.14,2635.24,193.78,2628.45,190.42z M2636.88,212.36c-1.71,5.07-3.36,11.86-3.36,16.93c0,1.71-1.71,1.71-3.36,1.71
		c-6.78-3.36-13.5-6.78-20.29-10.14c-1.71,0-1.71-1.71,0-3.36c6.78-3.36,15.22-6.78,23.65-8.43
		C2635.24,210.71,2636.88,210.71,2636.88,212.36z M2603.09,165.06c6.78-3.36,15.22-6.78,23.65-8.43c1.71,0,3.36,0,1.71,1.71
		c-1.71,5.07-3.36,11.86-3.36,16.93c0,1.71-1.71,1.71-3.36,1.71c-6.78-3.36-13.5-6.78-20.29-10.14
		C2601.45,166.71,2601.45,165.06,2603.09,165.06z M2577.74,193.78c6.78-3.36,15.22-6.78,23.65-8.43c1.71,0,3.36,0,1.71,1.71
		c-1.71,5.07-3.36,11.86-3.36,16.93c0,1.71-1.71,1.71-3.36,1.71c-6.78-3.36-13.5-6.78-20.29-10.14
		C2576.09,195.49,2576.09,193.78,2577.74,193.78z M2567.59,229.28c-1.71,0-1.71-1.71,0-1.71c6.78-3.36,15.22-6.78,23.65-8.43
		c1.71,0,3.36,0,1.71,1.71c-1.71,5.07-3.36,11.86-3.36,16.93c0,1.71-1.71,1.71-3.36,1.71
		C2581.16,236.07,2574.38,232.64,2567.59,229.28z M2572.66,263.07c-1.71,0-1.71-1.71,0-3.36c6.78-3.36,15.22-6.78,23.65-8.43
		c1.71,0,3.36,0,1.71,1.71c-1.71,5.07-3.36,11.86-3.36,16.93c0,1.71-1.71,1.71-3.36,1.71
		C2586.23,269.86,2579.45,266.43,2572.66,263.07z M2620.02,286.72c-1.71,6.78-3.36,11.86-3.36,18.57c0,1.71-1.71,1.71-3.36,1.71
		c-6.78-3.36-13.5-6.78-20.29-10.14c-1.71,0-1.71-1.71,0-3.36c6.78-3.36,15.22-6.78,23.65-8.43
		C2618.31,283.36,2620.02,285.07,2620.02,286.72z M2613.24,254.64c-1.71,0-1.71-1.71,0-3.36c6.78-3.36,15.22-6.78,23.65-8.43
		c1.71,0,3.36,0,1.71,1.71c-1.71,5.07-3.36,11.86-3.36,16.93c0,1.71-1.71,1.71-3.36,1.71C2626.74,261.36,2620.02,258,2613.24,254.64
		z M2655.53,305.36c-1.71,6.78-3.36,11.86-3.36,18.57c0,1.71-1.71,1.71-3.36,1.71c-6.78-3.36-13.5-6.78-20.29-10.14
		c-1.71,0-1.71-1.71,0-3.36c6.78-3.36,15.22-6.78,23.65-8.43C2655.53,303.65,2657.17,303.65,2655.53,305.36z M2663.96,269.86
		c-1.71,6.78-1.71,11.86-3.36,18.57c0,1.71-1.71,1.71-3.36,1.71c-6.78-3.36-13.5-6.78-20.29-10.14c-1.71,0-1.71-1.71,0-3.36
		c6.78-3.36,15.22-6.78,23.65-8.43C2663.96,266.43,2663.96,268.15,2663.96,269.86z M2692.67,322.22c0,1.71-1.71,1.71-3.36,1.71
		c-6.78-3.36-13.5-6.78-20.29-10.14c-1.71,0-1.71-1.71,0-3.36c6.78-3.36,15.22-6.78,23.65-8.43c1.71,0,1.71,1.71,1.71,3.36
		C2696.1,310.43,2692.67,315.51,2692.67,322.22z M2697.75,285.07c-6.78-3.36-13.5-6.78-20.29-10.14c-1.71,0-1.71-1.71,0-3.36
		c6.78-3.36,15.22-6.78,23.65-8.43c1.71,0,3.36,0,1.71,1.71c-1.71,5.07-3.36,11.86-3.36,16.93
		C2701.17,285.07,2699.46,286.72,2697.75,285.07z M2728.18,332.37c-1.71,5.07-3.36,11.86-3.36,16.93c0,1.71-1.71,1.71-3.36,1.71
		c-6.78-3.36-13.5-6.78-20.29-10.14c-1.71,0-1.71-1.71,0-3.36c6.78-3.36,15.22-6.78,23.65-8.43
		C2728.18,329.01,2729.89,330.72,2728.18,332.37z M2736.67,295.22c-1.71,5.07-3.36,11.86-3.36,16.93c0,1.71-1.71,1.71-3.36,1.71
		c-6.78-3.36-13.5-6.78-20.29-10.14c-1.71,0-1.71-1.71,0-3.36c6.78-3.36,15.22-6.78,23.65-8.43
		C2736.67,293.51,2738.32,293.51,2736.67,295.22z M2740.03,274.93c-6.78-3.36-13.5-6.78-20.29-10.14c-1.71,0-1.71-1.71,0-3.36
		c6.78-3.36,15.22-6.78,23.65-8.43c1.71,0,3.36,0,1.71,1.71c-1.71,6.78-3.36,11.86-3.36,18.57
		C2741.75,274.93,2740.03,274.93,2740.03,274.93z M2772.11,318.86c-1.71,6.78-3.36,11.86-3.36,18.57c0,1.71-1.71,1.71-3.36,1.71
		c-6.78-3.36-13.5-6.78-20.29-10.14c-1.71,0-1.71-1.71,0-3.36c6.78-3.36,15.22-6.78,23.65-8.43
		C2770.46,317.15,2772.11,317.15,2772.11,318.86z M2778.9,283.36c-1.71,6.78-3.36,11.86-3.36,18.57c0,1.71-1.71,1.71-3.36,1.71
		c-6.78-3.36-13.5-6.78-20.29-10.14c-1.71,0-1.71-1.71,0-3.36c6.78-3.36,15.22-6.78,23.65-8.43
		C2778.9,281.65,2778.9,281.65,2778.9,283.36z M2780.61,264.79c-6.78-3.36-13.5-6.78-20.29-10.14c-1.71,0-1.71-1.71,0-3.36
		c6.78-3.36,15.22-6.78,23.65-8.43c1.71,0,3.36,0,1.71,1.71c-1.71,5.07-3.36,11.86-3.36,16.93
		C2782.25,264.79,2782.25,264.79,2780.61,264.79z M2809.33,327.3c0,1.71-1.71,1.71-3.36,1.71c-6.78-3.36-13.5-6.78-20.29-10.14
		c-1.71,0-1.71-1.71,0-3.36c6.78-3.36,15.22-6.78,23.65-8.43c1.71,1.71,1.71,1.71,1.71,3.36
		C2812.69,315.51,2811.04,320.58,2809.33,327.3z M2821.18,274.93c-1.71,5.07-3.36,11.86-3.36,16.93c0,1.71-1.71,1.71-3.36,1.71
		c-6.78-3.36-13.5-6.78-20.29-10.14c-1.71,0-1.71-1.71,0-3.36c6.78-3.36,15.22-6.78,23.65-8.43
		C2821.18,273.22,2822.83,273.22,2821.18,274.93z M2822.83,258c-6.78-3.36-13.5-6.78-20.29-10.14c-1.71,0-1.71-1.71,0-3.36
		c6.78-3.36,15.22-6.78,23.65-8.43c1.71,0,3.36,0,1.71,1.71c-1.71,5.07-3.36,11.86-3.36,16.93C2826.25,258,2824.54,258,2822.83,258z
		 M2851.61,322.22c0,1.71-1.71,1.71-3.36,1.71c-6.78-3.36-13.5-6.78-20.29-10.14c-1.71,0-1.71-1.71,0-3.36
		c6.78-3.36,15.22-6.78,23.65-8.43c1.71,0,1.71,1.71,1.71,3.36C2853.26,312.08,2851.61,317.15,2851.61,322.22z M2863.4,271.51
		c-1.71,5.07-3.36,11.86-3.36,16.93c0,1.71-1.71,1.71-3.36,1.71c-6.78-3.36-13.5-6.78-20.29-10.14c-1.71,0-1.71-1.71,0-3.36
		c6.78-3.36,15.22-6.78,23.65-8.43C2861.76,268.15,2863.4,269.86,2863.4,271.51z M2866.83,252.93c0,1.71-1.71,1.71-3.36,1.71
		c-6.78-3.36-13.5-6.78-20.29-10.14c-1.71,0-1.71-1.71,0-3.36c6.78-3.36,15.22-6.78,23.65-8.43c1.71,0,3.36,0,1.71,1.71
		C2868.48,241.14,2868.48,247.86,2866.83,252.93z M2895.55,308.72c-1.71,5.07-3.36,11.86-3.36,16.93c0,1.71-1.71,1.71-3.36,1.71
		c-6.78-3.36-13.5-6.78-20.29-10.14c-1.71,0-1.71-1.71,0-3.36c6.78-3.36,15.22-6.78,23.65-8.43
		C2895.55,305.36,2897.19,307.01,2895.55,308.72z M2900.62,288.43c0,1.71-1.71,1.71-3.36,1.71c-6.78-3.36-13.5-6.78-20.29-10.14
		c-1.71,0-1.71-1.71,0-3.36c6.78-3.36,15.22-6.78,23.65-8.43c1.71,0,1.71,1.71,1.71,3.36
		C2902.27,276.58,2900.62,283.36,2900.62,288.43z M2910.76,237.72c-1.71,5.07-3.36,11.86-3.36,16.93c0,1.71-1.71,1.71-3.36,1.71
		c-6.78-3.36-13.5-6.78-20.29-10.14c-1.71,0-1.71-1.71,0-3.36c6.78-3.36,15.22-6.78,23.65-8.43
		C2910.76,234.36,2912.41,236.07,2910.76,237.72z M2942.84,278.29c-1.71,6.78-3.36,13.5-3.36,18.57c0,1.71-1.71,1.71-3.36,1.71
		c-6.78-3.36-13.5-6.78-20.29-10.14c-1.71,0-1.71-1.71,0-3.36c6.78-3.36,15.22-6.78,23.65-8.43
		C2942.84,276.58,2944.55,276.58,2942.84,278.29z M2947.91,259.72c0,1.71-1.71,1.71-3.36,1.71c-6.78-3.36-13.5-6.78-20.29-10.14
		c-1.71,0-1.71-1.71,0-3.36c6.78-3.36,15.22-6.78,23.65-8.43c1.71,0,1.71,1.71,1.71,3.36
		C2951.34,249.57,2949.62,254.64,2947.91,259.72z M2985.13,273.22c0,1.71-1.71,1.71-3.36,1.71c-6.78-3.36-13.5-6.78-20.29-10.14
		c-1.71,0-1.71-1.71,0-3.36c6.78-3.36,15.22-6.78,23.65-8.43c1.71,0,1.71,1.71,1.71,3.36
		C2988.49,263.07,2986.84,268.15,2985.13,273.22z"/>
</g>
</svg>
