<?xml version="1.0" encoding="iso-8859-1"?>
<!-- Generator: Adobe Illustrator 25.2.1, SVG Export Plug-In . SVG Version: 6.00 Build 0)  -->
<svg version="1.1" id="Layer_1" xmlns="http://www.w3.org/2000/svg" xmlns:xlink="http://www.w3.org/1999/xlink" x="0px" y="0px"
	 viewBox="0 0 1885 512" style="enable-background:new 0 0 1885 512;" xml:space="preserve">
<g>
	<path d="M1873.3,254.4c-5.6,6.5-22.4,16.8-36.5,17.8c-14,0.9-30.9-13.1-44-30.9c-13.1-17.8-28.1-11.2-37.4,2.8
		c-6.5,7.5-10.3,15-17.8,23.4c-4.7-8.4-10.3-26.2-19.6-32.7c-9.4-6.5-16.8-7.5-39.3-1.9c-22.4,5.6-47.7,8.4-72.9,9.4
		c-14-0.9-10.3,5.6-9.4,11.2c0.9,5.6,11.2,29-7.5,29.9c-18.7,0.9-16.8-27.1-3.7-42.1c6.5-6.5-2.8-20.6-13.1-15
		c-10.3,5.6-16.8,8.4-25.2,21.5c-8.4,13.1-26.2,32.7-55.2,33.7c-29,0.9-20.6-32.7-19.6-47.7c0-8.4-5.6-15.9-20.6-12.2
		c-15,3.7-34.6,1.9-32.7,43c-10.3,15-33.7,24.3-52.4,21.5c-5.6-0.9-7.5-3.7-5.6-10.3c1.9-6.5,6.5-43-21.5-52.4
		c-28.1-9.4-49.6,3.7-63.6,15.9c-7.5,3.7-9.4,0-9.4-6.5l0.9-34.6c0-15.9-31.8-19.6-36.5-0.9c-4.7,18.7-10.3,55.2-38.3,68.3
		c-28.1,13.1-37.4-3.7-52.4-22.4s-29.9-17.8-46.8-0.9l-16.8,15.9c-6.5,5.6-10.3,3.7-15.9-4.7c-5.6-8.4-9.4-19.6-19.6-20.6
		c-10.3-0.9-12.2,2.8-19.6,8.4l-21.5,16.8c-8.4,6.5-10.3,6.5-18.7-4.7c0,0-14-23.4-28.1-23.4c-14,0-18.7,8.4-27.1,15
		c0,0-21.5,15-29,21.5c-7.5,6.5-29,19.6-49.6-11.2c-7.5-11.2-20.6-19.6-29.9-3.7c-9.4,15.9-24.3,40.2-35.5,32.7
		c-11.2-7.5,7.5-29,21.5-30.9c14-1.9,5.6-19.6-8.4-20.6s-36.5,8.4-46.8,20.6c-10.3,12.2-27.1,26.2-44,25.3
		c-16.8-0.9-20.6-14-29-31.8c-8.4-17.8-23.4-15.9-34.6-6.5s-14,12.2-22.4,22.4c-8.4,10.3-8.4,4.7-9.4-1.9
		c-0.9-6.5-6.5-127.2,2.8-204.8c3.7-19.6-36.5-26.2-44.9,3.8h0c-6.5,44-19.6,150.6,8.4,256.2c5.6,14,19.6,10.3,25.3,3.7
		c1.9-2.8,20.6-20.6,20.6-20.6c6.5-9.4,13.1-6.5,17.8,0c4.7,6.5,17.8,27.1,37.4,28.1c19.6,0.9,50.5-22.4,62.7-31.8
		c8.4,15.9,18.7,30.9,35.5,29.9c16.8-0.9,32.7-13.1,46.8-28.1c10.3,12.2,21.5,25.2,34.6,24.3c13.1-0.9,37.4-15,60.8-36.5
		c9.4-10.3,19.6-5.6,26.2,4.7s15.9,27.1,28.1,27.1c12.2,0,29.9-16.8,35.5-21.5c5.6-4.7,11.2-8.4,17.8-0.9l14,13.1
		c8.4,8.4,26.2,6.5,39.3-5.6c13.1-12.2,15.9-15.9,21.5-15.9c5.6,0,8.4,7.5,14,13.1c5.6,5.6,48.6,43,105.7-15
		c0.9,29-5.6,191.7-5.6,215.1c0,11.2,13.1,15,31.8,11.2c18.7-3.7,28.1-9.4,27.1-36.5c-0.9-27.1-4.7-160.8-4.7-160.8
		c2.8-21.5,21.5-57,41.1-58c19.6-0.9,10.3,23.4,0.9,23.4c-9.3,0-19.6,4.7-19.6,13.1c0,8.4,2.8,32.7,58,32.7
		c55.2,0,61.7-17.8,76.7-24.3c9.4,17.8,37.4,45.8,115-3.7c15.9,18.7,45.8,42.1,78.6,18.7c10.3-8.4,20.6-28.1,16.8-44.9
		c-2.8-6.5-0.9-9.3,3.7-9.3h30.9c6.5,0,17.8,4.7,21.5,23.4c3.7,18.7,16.8,34.6,27.1,33.7c10.3-0.9,29.9-16.8,41.1-28.1
		c9.4,13.1,49.6,73.9,123.4-28.1C1889.2,252.5,1879,247.8,1873.3,254.4z"/>
	<path d="M520.1,233.8c-3.7,2.8-109.4,38.3-167.4,42.1v-217c33.7,0.9,97.3,15,137.5,29.9c9.4,4.7,29-0.9,8.4-21.5
		C450.9,29,376.1,0,277,0S0.2,55.2,0.2,167.4s142.1,168.3,277.7,168.3c95.4,0,184.2-34.6,248.8-96.3
		C537,229.1,523.9,231,520.1,233.8z M199.4,275.7c-80.7-16.6-137.9-58.4-137.9-107.4c0-48.9,57.3-90.7,137.9-107.4V275.7z"/>
	<ellipse transform="matrix(0.8507 -0.5257 0.5257 0.8507 124.8516 789.255)" cx="1451.6" cy="174.9" rx="29.1" ry="29.1"/>
	<path d="M1841,232.2c7.5,0,13.6-5.9,13.6-13.3c0-7.2-6.1-13.2-13.6-13.2c-7.5,0-13.7,5.9-13.7,13.2
		C1827.4,226.3,1833.5,232.2,1841,232.2z M1841,208.3c6.1,0,11,4.7,11,10.6c0,6-4.9,10.7-11,10.7c-6.2,0-11.1-4.7-11.1-10.7
		C1829.9,213,1834.9,208.3,1841,208.3z"/>
	<path d="M1838.2,219.5h2.7l4.4,6.8h2.6l-4.6-6.8c2.7-0.1,4.8-1.2,4.8-4.1c0-1.2-0.6-2.6-1.7-3.2c-1.2-0.6-2.4-0.7-3.7-0.7h-6.6
		v14.8h2.3V219.5z M1838.2,213.2h3.9c1.9,0,3.6,0.3,3.6,2.2c0,2.7-2.9,2.3-5.1,2.3h-2.5V213.2z"/>
</g>
</svg>
