<?xml version="1.0" encoding="iso-8859-1"?>
<!-- Generator: Adobe Illustrator 25.2.0, SVG Export Plug-In . SVG Version: 6.00 Build 0)  -->
<svg version="1.1" id="Warstwa_1" xmlns="http://www.w3.org/2000/svg" xmlns:xlink="http://www.w3.org/1999/xlink" x="0px" y="0px"
	 viewBox="0 0 848.17 512" style="enable-background:new 0 0 848.17 512;" xml:space="preserve">
<path d="M634.31,484.1c0-5-1.15-12.72,8.48-12.72h16.71c9.88,0,8.82,7.85,8.82,12.72c0,4.88,0.25,13.91-7.34,13.91h-19.76
	c-7.59,0-7.08-8.48-7.08-13.91 M616.58,483.71c0,11.07-0.68,28.12,14.29,28.12h39.78c15.18,0,14.46-16.96,14.46-28.12
	c0-10.05,1.19-26.12-17.6-26.12h-33.08c-18.74,0.13-17.68,15.99-17.68,26.12H616.58z M527.9,461.79v46.14
	c0,1.48-0.25,3.77,3.18,3.77h9.12c3.22,0,3.05-2.29,3.05-3.77v-33.55c6.32,12.13,15.65,30.62,19,37.32h14.04
	c3.48-6.7,12.72-25.19,19.13-37.32v33.55c0,1.48-0.25,3.77,3.1,3.77h9.2c3.35,0,2.88-2.29,2.88-3.77v-46.14
	c0-1.57,0.34-3.9-2.88-3.9h-15.73c-2.59,0-5.89-0.59-9.58,7.42c-2.8,6.4-8.95,19.68-13.15,26.76c-4.24-7.08-10.09-20.36-12.72-26.76
	c-3.77-8.02-7.17-7.42-9.5-7.42h-15.78c-3.35,0-3.18,2.33-3.18,3.9H527.9z M475.49,474.51c0-1.06,0-2.29,3.18-2.29h20.1
	c7,0,7.38,0.93,7.38,6.49c0,2.8,0,5.43-10.01,5.43h-20.65L475.49,474.51z M458.52,462.64v47.41c0,1.91,2.08,1.78,1.31,1.78h13.32
	c1.26,0.09,2.36-0.85,2.45-2.11c0-0.03,0-0.06,0.01-0.09v-22.48c0,0,3.65,7.72,5.51,11.15h19.47c1.36,0,4.83-0.3,4.83,6.36
	c0,2.42-0.64,7.04,2.12,7.04h13.23c0.81,0,1.82,0,1.82-2.84c0-5.73,1.06-16.96-7.08-18.28c4.83-3.52,7.12-4.24,7.12-15.44
	c0-17.35-8.78-17.26-14.84-17.26h-44.78c-2.34,0.04-4.21,1.97-4.17,4.31c0,0.11,0.01,0.21,0.02,0.31L458.52,462.64z M408.31,489.27
	c0.55-1.19,7.59-14.76,8.48-16.12h0.81c0.68,1.44,7.42,15.01,7.93,16.2l-0.81,0.81h-15.69L408.31,489.27z M406.7,458.23
	c0,0-23.83,45.63-27.31,52.63V512h16.96c2.37-4.24,9.2-18.07,10.47-20.27c1.02,2.33,4.54,10.86,4.54,10.86h20.74l4.88,9.41h16.96
	v-1.78c-3.44-6.57-19.8-38.17-22.18-43.21c-3.48-7.21-6.7-8.78-10.01-8.78H406.7z M296.86,474.38c0-1.06,0-2.29,3.22-2.29h20.1
	c7,0,7.38,0.93,7.38,6.49c0,2.8,0,5.43-10.01,5.43h-20.7V474.38z M279.9,462.51v47.41c0,1.91,2.08,1.78,1.36,1.78h13.27
	c1.26,0.12,2.38-0.81,2.49-2.07c0-0.05,0.01-0.09,0.01-0.14v-22.35c0,0,3.65,7.72,5.51,11.15h19.76c1.36,0,4.83-0.3,4.83,6.36
	c0,2.42-0.68,7.04,2.08,7.04h13.27c0.76,0,1.78,0,1.78-2.84c0-5.73,1.06-16.96-7.04-18.28c4.83-3.52,7.12-4.24,7.12-15.44
	c0-17.35-8.82-17.26-14.84-17.26h-45.17c-2.34,0.01-4.23,1.92-4.22,4.27c0,0.12,0.01,0.24,0.02,0.36H279.9z M217.26,469.29v29.69
	c0,11.83,6.96,12.98,10.52,12.98h42.83c3.39,0,3.1-2.42,3.1-6.79c0-4.37,0.3-6.57-3.1-6.57h-33.93c-0.81,0-3.56,0.64-3.56-2.63
	v-14.16l4.66,9.58h29.69c2.54,0,2.63-1.23,1.95-2.5c-0.68-1.27-4.62-9.84-4.62-9.84h-28.84c-3.31,0-2.67-1.31-2.67-4.58
	s2.93-2.8,3.82-2.8h33.04c3.56,0,3.05-2.33,3.05-6.57s0.42-6.91-3.05-6.91h-41.14c-5.86-0.47-10.99,3.89-11.47,9.75
	c-0.04,0.45-0.04,0.91-0.02,1.36L217.26,469.29z M186.6,472.31c5.39,0,8.74,0.51,8.74,13.23c0,3.77,0.64,12.04-7.51,12.04h-26.68
	v-25.45L186.6,472.31z M190.16,457.97h-44.61v53.82h15.82v-11.28l5.22,11.28h24.26c22.82,0,20.7-12.72,20.7-33.71
	s-18.49-20.19-21.25-20.19L190.16,457.97z M63.7,490.24v-28.37c0-1.57,0.34-3.99-3.31-3.99h-9.88c-3.22,0-3.01,2.42-3.01,3.99v28.37
	c0.49,3.64-2.07,6.99-5.72,7.48c-0.51,0.07-1.02,0.08-1.53,0.03H23.58c-3.66,0.4-6.94-2.24-7.35-5.89
	c-0.06-0.51-0.05-1.02,0.01-1.53v-28.37c0-1.57,0-3.99-3.01-3.99H3.31c-3.44,0-3.31,2.29-3.31,3.99v28.37
	c0,5.98,0.34,21.54,19.55,21.54h24.64c19.42-0.17,19.64-15.73,19.64-21.71L63.7,490.24z M108.02,476.04
	c-4.75-7.21-12.04-18.15-16.96-18.15H72.94c-3.1,0-2.93,2.42-2.93,3.99v46.06c0,1.48-0.42,3.77,2.93,3.77h9.29
	c3.35,0,3.01-2.29,3.01-3.77v-34.48c9.88,12.72,19.55,25.11,26.34,34.82c2.24,2.77,5.83,4.09,9.33,3.44h18.53v-49.91
	c0-1.57,0-3.99-3.01-3.99h-10.09c-3.35,0-3.14,2.42-3.14,3.99v33.93c-4.45-6.02-11.37-14.29-15.06-19.76L108.02,476.04z
	 M509.88,191.52c-23.71,15.82-56.06,26.17-95.76,26.17h-2.59c-39.65,0-72.09-10.31-95.67-26.08c23.71-15.82,56.06-26.17,95.76-26.17
	h2.54c39.82-0.08,72.14,10.26,95.84,26L509.88,191.52z M605.43,191.52c67.01-31.34,110.73-78.33,113.15-130.53
	c0,0-17.68-14.46-74.77-36.77c-28.38-11.44-58-19.55-88.25-24.17v116.28c-0.4,18.62-7.08,36.55-18.96,50.89
	c-40.38-10.22-81.88-15.37-123.54-15.31l0,0c-41.74-0.11-83.33,5.02-123.79,15.27c-11.91-14.33-18.62-32.26-19.04-50.89V0
	c-30.29,4.6-59.95,12.7-88.38,24.13c-56.95,22.35-74.64,36.81-74.64,36.81c2.37,52.21,46.18,99.24,113.32,130.58
	c-67.01,31.3-110.77,78.33-113.15,130.49c0,0,17.64,14.5,74.77,36.81c28.43,11.41,58.09,19.49,88.38,24.09V266.67
	c0.41-18.62,7.1-36.56,19-50.89C329.95,226,371.49,231.12,413.19,231l0,0c41.74,0.11,83.33-5.02,123.79-15.27
	c11.89,14.34,18.58,32.27,19,50.89v116.24c30.3-4.59,59.98-12.67,88.42-24.09c57.08-22.31,74.72-36.81,74.72-36.81
	c-2.71-52.16-46.52-99.19-113.57-130.49L605.43,191.52z M754.45,490.2v-28.37c0-1.57,0.34-3.99-3.31-3.99h-10.01
	c-3.22,0-3.01,2.42-3.01,3.99v28.37c0.44,3.65-2.17,6.97-5.82,7.4c-0.48,0.06-0.96,0.06-1.44,0.02h-16.67
	c-3.63,0.4-6.9-2.21-7.31-5.84c-0.06-0.53-0.05-1.06,0.01-1.58v-28.37c0-1.57,0-3.99-3.05-3.99h-9.92c-3.44,0-3.31,2.29-3.31,3.99
	v28.37c0,5.98,0.34,21.54,19.55,21.54h24.68c19.38-0.04,19.72-15.61,19.72-21.59L754.45,490.2z M808.44,478.62
	c0,2.8,0,5.43-10.01,5.43h-20.65v-9.63c0-1.06,0-2.29,3.22-2.29h20.06c7.12,0.17,7.51,0.89,7.51,6.45L808.44,478.62z M825.1,475.19
	c0-17.35-8.78-17.26-14.84-17.26h-45c-2.34-0.01-4.25,1.88-4.26,4.22c0,0.13,0.01,0.27,0.02,0.4v47.41c0,1.91,2.12,1.78,1.36,1.78
	h13.32c1.24,0.12,2.33-0.79,2.45-2.03c0.01-0.06,0.01-0.12,0.01-0.18v-22.39c0,0,3.65,7.72,5.51,11.15h19.47
	c1.36,0,4.88-0.3,4.88,6.36c0,2.42-0.68,7.04,2.08,7.04h13.23c0.81,0,1.82,0,1.82-2.84c0-5.73,1.06-16.96-7.08-18.28
	c4.88-3.52,7.17-4.07,7.17-15.44L825.1,475.19z M841.13,499.53c0,0.64-0.21,1.02-1.57,1.02h-2.59v-2.42h2.71
	c1.36,0,1.57,0.47,1.57,1.23L841.13,499.53z M843.38,499.53c0.12-1.71-1.17-3.18-2.88-3.3c-0.05,0-0.09-0.01-0.14-0.01h-4.24
	c-1.1,0-1.27,0.3-1.27,1.57v8.48l0.76,1.44c0.42,0,1.27,0,1.27-1.1v-3.82h1.4c0.81,1.27,1.57,2.84,2.76,4.66
	c0.3,0.34,2.29,0,1.57-1.4c-0.72-1.4-1.27-2.46-1.82-3.48c1.95,0.17,2.71-1.19,2.71-2.93L843.38,499.53z M845.84,501.57
	c0.26,3.97-2.75,7.4-6.73,7.66c-0.15,0.01-0.29,0.01-0.44,0.02c-4.08-0.04-7.34-3.38-7.3-7.46c0-0.07,0-0.15,0.01-0.22
	c0.06-3.94,3.15-7.18,7.08-7.42c3.95-0.19,7.32,2.86,7.51,6.81c0.01,0.25,0.01,0.49,0,0.74L845.84,501.57z M848.05,501.57
	c0.16-5.24-3.95-9.63-9.2-9.79c-0.06,0-0.12,0-0.18,0c-5.2,0.29-9.27,4.59-9.29,9.8c-0.27,5.3,3.78,9.82,9.08,10.14
	c5.43-0.12,9.76-4.58,9.71-10.01L848.05,501.57z"/>
</svg>
