<?xml version="1.0" encoding="iso-8859-1"?>
<!-- Generator: Adobe Illustrator 25.2.0, SVG Export Plug-In . SVG Version: 6.00 Build 0)  -->
<svg version="1.1" id="Warstwa_1" xmlns="http://www.w3.org/2000/svg" xmlns:xlink="http://www.w3.org/1999/xlink" x="0px" y="0px"
	 viewBox="0 0 2910.53 512" style="enable-background:new 0 0 2910.53 512;" xml:space="preserve">
<style type="text/css">
	.st0{fill-rule:evenodd;clip-rule:evenodd;}
</style>
<path class="st0" d="M2056.94,100.71c15.59,0,28.23-12.64,28.23-28.23s-12.64-28.23-28.23-28.23c-15.59,0-28.23,12.64-28.23,28.23
	S2041.35,100.71,2056.94,100.71L2056.94,100.71z M2875.02,100.71c15.59,0.08,28.3-12.5,28.38-28.09s-12.5-28.3-28.09-28.38
	c-15.59-0.08-28.3,12.5-28.38,28.09c0,0.05,0,0.1,0,0.15C2846.93,88.02,2859.48,100.63,2875.02,100.71z M2834.56,221.8l-22.12,6.11
	c5.82,11.79,19.21,35.08,19.21,35.08l-26.63,0.87l-23.72-29.11l-37.99,8.44l10.62,19.94l-19.07,2.18l-14.55-19.36
	c0,0-54.43,15.86-80.92,24.16l-1.75,2.47c0.45,29.53,2.39,59.01,5.82,88.34l2.47,6.26c51.43,8.31,103.36,13.17,155.44,14.55
	l4.95-2.18c13.53-20.96,23.88-43.82,30.71-67.82c9.69-29.72,8.98-61.85-2.04-91.11L2834.56,221.8z M2603.44,0L2603.44,0
	c-1.12,0.14-2.21,0.48-3.2,1.02c-11.64,22.56-22.85,45.85-35.66,66.66c-10.77-17.9-18.34-36.97-28.23-55.01
	c-11.67,2.57-22.86,6.94-33.18,12.95c-0.87,14.55,0,42.06,0,42.06l-50.36-9.17c-9.53,6.87-17.81,15.34-24.45,25.03l59.38,67.82
	l-19.07,1.75c0,0-33.91-38.57-51.96-58.22c-5.39,5.1-9.52,11.37-12.08,18.34l34.64,41.92c0,0-56.18,4.95-59.96,5.53
	c-16.04,42.19-21.05,87.77-14.55,132.44c5.59,40.71,21.64,79.27,46.57,111.92l36.97-4.51c127.49-17.17,258.33,22.41,381.75-8.73
	c37.76-60.88,48.02-134.9,28.23-203.76c-45.7,9.17-89.8,23.72-135.06,32.02c5.15-9.3,10.99-18.2,17.46-26.63l50.65-10.77l56.91-23
	c-1.81-7.77-5.18-15.1-9.9-21.54c-27.94,10.77-54.58,21.83-54.58,21.83l-34.06,7.57l25.03-43.66l52.83-4.08
	c-3.39-7.98-8.34-15.21-14.55-21.25c-20.67-1.75-41.77-0.87-63.02-2.47c5.39-12.52,16.16-24.6,23.29-37.55
	c-3.44-5.18-8.59-8.99-14.55-10.77c-17.46,23.72-52.69,72.77-52.69,72.77l-14.55-41.19l49.77-43.66c-3.65-3.96-8.42-6.7-13.68-7.86
	c-16.59,8.73-49.05,27.07-49.05,27.07s-18.63-34.93-29.11-52.54c-6.91-1.63-14.02-2.22-21.1-1.75
	c8.73,23.87,29.11,70.44,29.11,70.44l-13.83,2.91l-38.13-73.21c-0.57-0.14-1.17-0.14-1.75,0L2603.44,0z M2395.9,209.29
	c-3.14,9.36-3.99,19.35-2.47,29.11c4.95-7.86,16.88-23.72,16.88-23.72l-14.55-5.39H2395.9z M2545.08,207.98l-62.44,51.23
	l-29.84,1.31c5.93-6.64,11.38-13.69,16.3-21.1c-11.07-5.3-22.5-9.82-34.2-13.54l-21.98,29.11c-6.88-0.09-13.74,0.79-20.38,2.62
	c-0.35,23.7,2.44,47.33,8.3,70.3c2.18,5.82,3.78,15.86,12.52,14.55c60.2,2.15,120.24,7.44,179.89,15.86v-93.29
	c-4.15-7.91-9.02-15.41-14.55-22.41l-28.09,16.59h-51.52c0-0.87,42.35-24.6,61.85-37.55c-5.39-5.39-8.73-11.64-15.28-14.55
	L2545.08,207.98z M2684.51,201.72l-18.19,29.98l20.81-1.89l18.48-30.71L2684.51,201.72z M2389.35,179.45l34.35,15.86l10.77-17.9
	C2434.47,177.41,2389.35,179.45,2389.35,179.45z M2470.56,173.48l-19.36,29.98l39.44,14.55l32.75-29.11l-12.37-13.24l-40.46-3.35
	V173.48z M2614.79,171.01l-13.83,6.69l0.87,19.36l11.35,3.93L2614.79,171.01z M2564.15,150.63l-11.21,22.41l21.54,24.74
	c-2.91-16.3-6.26-31.58-10.33-47.01L2564.15,150.63z M2642.16,156.75l2.18,48.32l36.09-46.14c2.19-2.87,3.69-6.21,4.37-9.75
	l-6.55-21.69l-35.66,29.11L2642.16,156.75z M2745.78,126.18l-16.74,1.89l-26.34,41.77h17.03L2745.78,126.18z M2528.93,106.54
	l1.6,47.01l17.76-40.9C2548.28,112.65,2528.93,106.54,2528.93,106.54z M2664.86,95.47l-11.64,7.71l2.47,8.59l10.62-9.9
	L2664.86,95.47L2664.86,95.47z M2462.41,83.54l39.88,44.68V94.75L2462.41,83.54z M2527.62,53.12v25.47l12.37,2.91
	c-3.18-10.08-7.32-19.83-12.37-29.11V53.12z M2605.19,50.21L2578.55,101l15.86,52.1l23.29-16.45l6.26-43.66
	c-6.26-14.55-12.08-29.11-18.77-43.66V50.21z M2644.78,463.11c33.62,3.64,67.68,6.55,101.88,10.77
	c-70.15,49.19-181.93,49.92-254.55,7.13c-21.18-11.84-40.38-26.91-56.91-44.68c0.87-2.47,4.95,0,7.42-1.6l48.17,4.22l154.56,24.16
	H2644.78z M2819.42,407.66c-16.08,22.14-35.76,41.43-58.22,57.05c-116.43-1.6-222.97-33.33-336.49-38.71
	c-4-3.12-7.02-7.31-8.73-12.08c88.63-15.43,178.29-6.69,265.9-1.31c46,2.32,92.11-0.76,137.39-9.17v4.22H2819.42z M2869.64,70.44
	h4.95c1.77,0.43,3.62,0.43,5.39,0c1.48-0.96,2.36-2.61,2.33-4.37c-0.12-1.57-0.92-3-2.18-3.93c-1.92-0.44-3.91-0.44-5.82,0h-4.66
	v9.75V70.44z M2869.64,92.13h-8.88V53.85h16.15c3.38-0.28,6.77,0.43,9.75,2.04c3.09,2.15,4.89,5.7,4.8,9.46
	c0.12,4.35-2.5,8.31-6.55,9.9l6.99,16.88h-9.9l-5.82-14.55h-6.55C2869.64,77.57,2869.64,92.13,2869.64,92.13z M2838.34,72.48
	c0-19.93,16.16-36.09,36.09-36.09s36.09,16.16,36.09,36.09c0,19.93-16.16,36.09-36.09,36.09l0,0
	C2854.5,108.57,2838.34,92.41,2838.34,72.48z M2117.19,432.4c17.03,0,31-43.66,31-98.24s-14.55-98.24-31-98.24
	c-16.45,0-30.85,43.66-30.85,98.24S2100.16,432.4,2117.19,432.4z M1601.98,363.12c-4.66,6.84-4.37,33.62-1.89,58.22
	c2.47,24.6,16.01,30.13,30.42,30.71c10.62,0,19.65-9.02,19.65-24.16c0-10.48-2.18-77.72-7.42-87.32
	c-5.24-9.61-14.55-1.89-21.54,2.04c-7.73,5.7-14.26,12.87-19.21,21.1L1601.98,363.12z M1058.54,319.46
	c4.51,15.57,17.76,7.57,31.73,0c16.49-8.47,24.62-27.48,19.36-45.26c-3.2-23.72-16.15-47.3-32.31-53.56
	c-8.3-3.06-15.57,8.88-20.08,17.76c-7.28,13.1-3.2,65.06,1.46,80.77L1058.54,319.46z M881.41,424.98
	c17.03,0,30.85-43.66,30.85-98.24s-14.55-98.39-30.85-98.39s-30.85,43.66-30.85,98.39S864.38,424.98,881.41,424.98z M775.61,129.53
	c0.13-13.8-1.83-27.54-5.82-40.75c-5.53-10.33-15.43-14.55-12.66-25.91c1.6-6.55,11.21-11.64,17.17-14.55l48.32-18.05
	c6.72-2.31,13.12-5.43,19.07-9.31c3.53-2.9,8.42-3.46,12.52-1.46c4.8,1.46,11.21,5.53,12.52,29.11c0,12.23-1.75,124.58,2.04,135.93
	c3.78,11.35,12.37,2.77,17.17,0c25.18-12.66,58.22,3.64,76.12,23.43c17.9,19.79,36.97,75.1,40.75,109.88
	c8-61.13,25.47-127.78,97.08-136.81c47.88-5.97,67.39,21.83,82.08,43.66s29.11,66.66,15.86,92.27
	c-8.88,4.37-97.22,40.17-100.71,41.04c-4.39,0.73-7.93,3.98-9.02,8.3c0.67,8.34,2.74,16.51,6.11,24.16
	c10.04,30.42,31.58,31.29,47.15,34.2c15.57,2.91,20.67-8.88,22.12-18.77c0.84-9.45,9.18-16.43,18.63-15.59
	c0.05,0,0.1,0.01,0.15,0.01c16.59,2.04,31.29,20.08,29.11,31.29c-1.6,6.4-9.46,29.11-11.06,32.31c-1.6,3.2-3.93,10.77,0,11.64
	c10.62,2.18,14.55-7.57,14.55-14.55s0-67.09,0-81.79c0-14.7,0-86.16,0-106.24c1.12-12.3-5.65-23.97-16.88-29.11
	c-5.08-2.02-7.55-7.78-5.53-12.86c0.24-0.59,0.53-1.16,0.87-1.7c5.32-5.57,11.77-9.94,18.92-12.81
	c4.22-1.75,62.87-23.14,70.59-25.91c8.11-1.92,16.65,0.38,22.7,6.11c2.37,11.68,3.35,23.6,2.91,35.51c0,10.77,7.71,7.42,12.08,1.02
	c11.08-17.03,27.21-30.16,46.14-37.55c14.62-3.02,29.81-1.65,43.66,3.93c5.82,1.02,7.57-1.31,7.57-9.46s0-52.83,0-60.25
	c0-30.27-9.02-28.38-16.01-37.69c-10.92-14.55,2.91-20.23,9.46-24.01c6.55-3.78,33.47-14.55,38.42-16.15
	c13.65-6.59,27.87-11.9,42.5-15.86c9.31-1.75,17.61,9.46,17.32,29.11c0,13.1,0.87,386.26,0,392.96
	c-0.27,7.91,3.66,15.38,10.33,19.65c7.36,4.42,9.93,13.86,5.82,21.39c-3.78,9.31-19.36,9.31-24.31,8.73c-4.95-0.58-70.59,0-81.36,0
	c-10.77,0-16.59-3.78-18.19-7.13c-5.18-7.46-3.34-17.71,4.12-22.89c0.27-0.19,0.55-0.37,0.83-0.54
	c6.55-4.02,10.44-11.24,10.19-18.92c0-8.73,0-159.08,0-165.92s-3.2-10.77-5.53-8.3c-3.63,4.94-8.72,8.6-14.55,10.48
	c-8.73,2.91-25.47-4.95-25.91-11.35c-0.44-6.4-4.51-17.32-11.79-18.34s-18.77,8.44-23.72,13.54
	c-17.54,20.24-27.42,45.99-27.94,72.77c0,17.17,0,92.13,0,104.79c-0.74,10.03,5.17,19.37,14.55,23c8.73,5.39,2.33,15.86-2.62,21.69
	c-4.95,5.82-27.8,4.95-42.35,4.95c-14.55,0-44.97-1.16-63.02,0c-18.05,1.16-15.57-11.5-18.48-16.3s-7.13-1.16-11.79,3.06
	c-10.47,8.01-22.69,13.45-35.66,15.86c-58.94,6.55-75.39-3.64-100.42-25.62c-20.96-18.34-38.28-66.22-42.79-91.69
	c-2.05,33.26-12.84,65.39-31.29,93.15c-23.43,28.09-62.29,26.05-87.32,22.56c-18.2-3.6-34.34-14.01-45.12-29.11
	c-6.4-6.84-9.9-2.18-13.24,0c-3.35,2.18-6.69,10.04-12.08,18.05c-5.87,6.77-14.47,10.57-23.43,10.33
	c-5.73-0.67-11.3-2.34-16.45-4.95c-2.64,1.22-5.54,1.77-8.44,1.6h-99.26c-5.87,0.09-10.93-4.11-11.93-9.9
	c-2.62-8.73,5.97-11.21,8.73-13.24c4.47-4.64,7.41-10.53,8.44-16.88c4.66-26.63-4.37-108.43-6.99-129.82
	c-2.62-21.39-9.02-78.01-29.11-78.01c-7.42,0-13.54,7.42-15.72,17.32c-2.77,13.1,0,109.3,0,124.29
	c-0.72,20.38-0.28,40.79,1.31,61.13c1.7,8.63,5.96,16.54,12.23,22.7c5.52,3.3,7.31,10.45,4.01,15.97c-1.84,3.07-4.98,5.12-8.52,5.57
	c-32.28,1.89-64.65,1.89-96.93,0c-5.53,0-12.37-3.64-12.37-16.01c0-3.78,7.71-7.86,10.48-10.33c5.3-3.93,8.73-9.89,9.46-16.45
	c0-8.3,0-165.77,0-177.85c0-12.08,0.73-31.87-19.79-31.44c-11.93,0-21.25,8-25.62,26.49c-0.66,7.41-0.66,14.86,0,22.27v146.85
	c-1.05,8.42,0.69,16.96,4.95,24.31c3.76,4.24,7.74,8.27,11.93,12.08c2.6,4.64,2.14,10.39-1.16,14.55
	c-3.35,4.64-8.85,7.22-14.55,6.84c0,0-84.85,0-93.87,0c-8.12,1.24-16.19-2.49-20.52-9.46c-4.18,5.77-10.78,9.31-17.9,9.61
	c-12.23,0-85.58,0-93.15,0c-7,0.48-13.9-1.82-19.21-6.4c-2.92-2.07-6.83-2.07-9.75,0c-1.1,0.7-2.27,1.28-3.49,1.75
	c-3.19,2.64-7.21,4.08-11.35,4.08H109.61c-14.55,0-24.6-16.15-8.59-26.05c9.17-7.77,14.09-19.45,13.24-31.44V100.57
	c0-12.81-1.46-31.87-16.3-27.36c-14.85,4.51-24.89,22.7-29.84,35.37c-4.95,12.66-17.03,34.64-20.67,42.5
	c-5.97,10.05-17.67,15.19-29.11,12.81c-12.04-2.22-20.08-13.69-18.05-25.76C3.08,124.58,22.58,34.06,25.93,21.69
	s6.4-10.33,14.55-12.37S55.04,16.74,67.7,19.5c9.46,2.18,56.32,0,100.57,1.16s91.4,1.02,100.86-1.16
	c12.37-2.77,19.36-12.08,27.22-10.19s11.06,0,14.55,12.37c3.49,12.37,22.85,101.88,25.62,116.43c2.07,11.84-5.57,23.21-17.32,25.76
	c-11.44,2.39-23.14-2.76-29.11-12.81c-3.64-7.86-14.55-30.27-20.67-42.5c-6.11-12.23-14.55-30.85-29.84-35.51
	c-15.28-4.66-16.3,14.55-16.3,27.36v332.41c0,11.06,7.42,32.46,21.69,34.93c9.31,1.02,22.7-5.68,22.7-28.09s0-145.54,0-163.59
	c0-11.06,0-29.11-9.75-35.51c-6.4-4.22-14.55-11.5-13.68-17.03c1.82-6.42,6.33-11.73,12.37-14.55c5.24-2.33,30.27-11.79,36.82-14.55
	c15.83-6.46,32.26-11.33,49.05-14.55c7.97-1.08,15.3,4.51,16.37,12.47c0.15,1.08,0.17,2.16,0.07,3.25v239.56
	c-0.88,9.67,2.52,19.25,9.31,26.2c9.31,6.99,13.39,17.03,26.92,0c6.3-7.06,9.22-16.52,8-25.91V260.81c0,0-0.73-13.39-5.68-17.32
	s-14.55-9.46-17.03-14.55c-2.47-5.09,0.87-14.55,9.9-18.77c9.02-4.22,69.42-24.45,74.23-26.92c5.71-2.13,11.88-2.73,17.9-1.75
	c4.22,1.31,9.9,2.91,10.33,10.77c0.44,7.86,1.31,16.45,8.44,16.45c7.13,0,16.45-15.57,21.25-19.07c12.78-7.62,27.72-10.79,42.5-9.02
	c17.95-0.51,34.72,8.88,43.66,24.45c5.39,7.13,13.1,5.09,17.76-1.6c4.77-7.9,11.75-14.22,20.08-18.19
	c16.13-5.26,33.63-4.43,49.19,2.33c19.47,10.84,33.12,29.77,37.26,51.67c11.89,47.79,19.87,96.46,23.87,145.54
	c1.16,33.18,3.49,74.81,9.9,80.92c2.77,2.77,5.68,4.95,8,7.13c0.96-4.5,1.5-9.08,1.6-13.68c0-8.44,0-58.22,0-79.9
	c0-21.69,0-238.83,0-248.73v-1.31L775.61,129.53z M1780.56,441.42c0-5.82-1.46-169.55-1.46-180.76c0-13.54-20.67-20.81-21.54-27.07
	s5.97-12.23,13.1-17.03c7.13-4.8,54.87-24.31,68.84-29.11c9.76-3.5,20.51,1.57,24.01,11.33c0.11,0.29,0.2,0.59,0.29,0.89
	c0.92,3.41,4.44,5.43,7.85,4.51c0.91-0.25,1.76-0.69,2.48-1.31c8.32-12.54,22.51-19.91,37.55-19.5c40.46,0,63.75,58.22,70,77.28
	c13.71,60.09,22.24,121.25,25.47,182.8c-0.82,12.64,4.62,24.88,14.55,32.75c9.46,10.48-3.49,22.27-12.66,22.27
	c-9.17,0-80.63,0-88.34,0c-7.83,0.63-15.13-4-17.9-11.35c-3.2-9.17,3.78-12.66,10.19-17.17c13.24-9.46,9.31-45.12,6.99-72.77
	c-4.69-40.92-13.16-81.31-25.32-120.65c-4.8-11.21-12.23-21.98-20.23-21.98c-8,0-10.04,12.23-10.04,20.67s0,151.22,0,171.01
	c-0.4,12.36,5.95,23.96,16.59,30.27c9.02,7.13,0,22.12-12.23,21.98c-8.44,0-75.39,0-80.48,0c-8.37,0.35-16.7-1.29-24.31-4.8
	c-2.93-3.1-7.75-3.42-11.06-0.73c-9.35,7.28-20.64,11.63-32.46,12.52c-20.08,2.62-40.17-17.32-44.97-21.54
	c-7.99-4.42-17.98-2.8-24.16,3.93c-16.08,13.84-37.09,20.56-58.22,18.63c-49.92-5.68-87.32-52.39-74.66-116.43
	c8.88-42.79,65.06-75.97,82.08-82.52c7.01-2.84,14.27-5.03,21.69-6.55c16.01-4.37,14.55-10.33,16.59-20.38
	c1.5-15.4-2.41-30.84-11.06-43.66c-7.28-12.37-28.09-10.62-34.35-10.04c-6.26,0.58-10.04,4.66-6.69,8
	c6.5,7.34,10.79,16.37,12.37,26.05c2.77,20.96-17.32,35.51-38.86,34.35c-40.31-2.33-49.92-46.57-29.11-74.66s61.13-30.71,87.32-31
	c80.63-1.31,90.38,33.04,99.99,72.77c7.86,32.89,12.81,154.56,13.1,165.92c0.29,11.35,5.09,18.05,14.55,18.05
	s11.93,14.55,14.55,20.81c2.62,6.26,9.9,4.66,13.1,0c4.05-7.14,6.44-15.1,6.99-23.29v-1.31L1780.56,441.42z M2091,183.23
	c14.7-2.79,29.9,0.69,41.92,9.61c8.73,8.15,10.77-2.18,10.77-7.71c0-5.53,0-58.22,0-65.06c0.2-9.07-2.06-18.02-6.55-25.91
	c-4.66-5.24-17.46-6.84-18.19-18.63c0.16-8.26,6.36-15.14,14.55-16.15c7.02-0.95,13.97-2.36,20.81-4.22
	c5.39-1.46,52.69-22.7,57.05-24.6c4.03-2.66,8.71-4.17,13.54-4.37c7.42,0,10.04,11.06,10.62,16.74s1.16,29.11,1.16,42.64
	s0,322.66,0,331.83s0,20.67,6.84,24.89c4.22,2.62,14.55,8,14.55,14.55c-0.22,7.9-5.15,14.89-12.52,17.76
	c-9.02,3.93-72.77,30.85-86.6,29.11c-6.18-0.08-11.2-5.03-11.35-11.21c0-4.37-2.91-5.24-7.13-3.78
	c-4.22,1.46-11.64,10.19-23.72,16.01s-34.06,0-50.36-7.57c-53.85-24.74-60.98-95.18-55.45-160.09
	c4.22-49.34,23.29-112.65,50.5-137.1C2069.65,191.89,2079.84,186.11,2091,183.23z M2050.83,71.17h4.95c1.82,0.43,3.71,0.43,5.53,0
	c2.29-1.63,2.82-4.81,1.19-7.1c-0.33-0.46-0.73-0.86-1.19-1.19c-1.91-0.45-3.91-0.45-5.82,0h-4.66v9.75V71.17z M2050.83,92.85h-8.88
	v-39h16.15c3.38-0.28,6.77,0.43,9.75,2.04c3.12,2.13,4.98,5.68,4.95,9.46c0.05,4.37-2.62,8.32-6.69,9.9l7.13,16.88h-10.04
	l-5.82-14.55h-6.55v14.55V92.85z M2020.85,73.21c0-19.93,16.16-36.09,36.09-36.09c19.93,0,36.09,16.16,36.09,36.09
	c0,19.93-16.16,36.09-36.09,36.09l0,0C2037.01,109.3,2020.85,93.14,2020.85,73.21z"/>
</svg>
