<?xml version="1.0" encoding="iso-8859-1"?>
<!-- Generator: Adobe Illustrator 25.2.0, SVG Export Plug-In . SVG Version: 6.00 Build 0)  -->
<svg version="1.1" id="Warstwa_1" xmlns="http://www.w3.org/2000/svg" xmlns:xlink="http://www.w3.org/1999/xlink" x="0px" y="0px"
	 viewBox="0 0 1554.34 512" style="enable-background:new 0 0 1554.34 512;" xml:space="preserve">
<g>
	<path d="M354.7,192.43H71.42C33.88,192.43,0,219.08,0,255.38v188.85c-0.09,37.34,30.12,67.68,67.46,67.77c0.1,0,0.21,0,0.31,0h8.47
		c37.38,0.09,67.76-30.15,67.85-67.54c0-0.08,0-0.16,0-0.23V349.8c0.24-9.91,8.2-17.9,18.11-18.19h192.5
		c37.34,0.09,67.68-30.12,67.77-67.46c0-0.13,0-0.26,0-0.39v-3.57c0.04-37.38-30.23-67.73-67.61-67.77
		C354.8,192.43,354.75,192.43,354.7,192.43z"/>
	<g>
		<path d="M388.58,10.88H69.01C31.63,10.14,0.74,39.85,0,77.22c0,0.01,0,0.02,0,0.03v4.9c0.51,37.7,31.31,67.94,69.01,67.77h319.57
			c37.34,0.09,67.68-30.12,67.77-67.46c0-0.1,0-0.21,0-0.31v-4.9c-0.12-36.78-30.04-66.5-66.83-66.38
			C389.21,10.87,388.9,10.87,388.58,10.88z"/>
		<path d="M573.86,0h-7.31c-37.51,0.04-67.89,30.48-67.85,67.99c0,0.31,0,0.63,0.01,0.94l1.24,375.3
			c-0.64,36.78,28.65,67.12,65.43,67.76c0.39,0.01,0.78,0.01,1.18,0.01h8.55c37.38,0.13,67.8-30.07,67.92-67.46c0-0.1,0-0.21,0-0.31
			l-1.32-375.3C641.88,31.22,611.58,0.43,573.86,0z"/>
		<path d="M1513.23,291.75L1361.91,44.77c-18.26-28.99-42.36-42.36-72.67-42.36c-30.85-0.61-59.59,15.62-75,42.36l-175.56,290.51
			c-12.12,20.6-25.41,29.07-48.42,29.07h-130.8c-9.87,0.17-18.01-7.69-18.19-17.56c0-0.21,0-0.42,0-0.63V68.93
			c0.09-37.34-30.12-67.68-67.46-67.77c-0.1,0-0.21,0-0.31,0h-8.39c-37.34-0.13-67.72,30.04-67.85,67.38c0,0.13,0,0.26,0,0.39v339
			c0,50.83,49.58,99.24,100.49,99.24h262.68c36.37,0,62.17-26.58,83.55-64.12l136.78-234.86c1.24-2.41,2.41-6.14,6.06-6.14
			c2.41,0,3.65,3.73,4.82,6.14l89.61,144.01c3.58,6.06,4.9,8.47,2.41,14.61c-2.41,4.74-7.23,5.98-14.53,5.98h-125.67
			c-37.39-0.09-67.76,30.15-67.85,67.54c0,0.1,0,0.21,0,0.31v3.57c0,37.54,30.31,62.95,67.85,62.95h204.4
			c49.58,0,106.47-47.25,106.47-108.8C1554.34,358.28,1547.11,344.99,1513.23,291.75z"/>
	</g>
</g>
</svg>
