<?xml version="1.0" encoding="iso-8859-1"?>
<!-- Generator: Adobe Illustrator 25.2.0, SVG Export Plug-In . SVG Version: 6.00 Build 0)  -->
<svg version="1.1" id="Layer_1" xmlns="http://www.w3.org/2000/svg" xmlns:xlink="http://www.w3.org/1999/xlink" x="0px" y="0px"
	 viewBox="0 0 1035 512" style="enable-background:new 0 0 1035 512;" xml:space="preserve">
<g>
	<g>
		<path d="M998.25,101.95c26.39-9.83,35.71-25.87,35.71-60.55h-48.64c0.52,19.66-9.32,38.29-28.98,39.85h-19.66V3.11h-49.16v179.05
			h49.16v-59.51h14.49c22.25-1.03,34.67,18.63,34.67,31.57v27.94H1035v-26.39C1035,116.44,1008.6,105.57,998.25,101.95z"/>
		<path d="M695.52,112.81c0-43.47-33.12-71.93-67.79-71.93h-33.12v40.88h23.29c15.01,0,27.94,12.94,27.94,29.5
			c0,19.66-15.52,29.5-26.91,30.01h-34.67V1.04h-49.16v181.12h83.83C654.12,182.16,695.52,156.28,695.52,112.81z"/>
		<path d="M875.09,113.33c0-40.88-30.01-74-83.83-74c-53.3,0-83.83,33.12-83.83,74s34.15,74,83.83,74
			C843,187.33,875.09,154.21,875.09,113.33z M790.74,148c-19.66,0-35.19-15.52-35.19-35.19c0-19.15,16.04-34.67,35.19-34.67
			c19.66,0,35.19,15.52,35.19,34.67C825.93,132.48,810.4,148,790.74,148z"/>
		<path d="M236.5,111.78c0-16.56,13.45-29.5,30.01-29.5h32.6l-30.01,49.16h47.61l30.53-47.61V41.4h-88.49
			c-38.81,0-70.38,31.57-70.38,70.38s31.57,70.38,70.38,70.38h89.01v-40.88h-81.76C249.43,141.79,236.5,128.34,236.5,111.78z"/>
		<path d="M516.46,141.79H434.7c-16.56,0-29.5-13.45-29.5-29.5c0-16.56,13.45-29.5,29.5-29.5h32.6l-29.5,49.16h47.61l30.53-47.61
			V41.92h-88.49c-38.81-0.52-70.38,31.05-70.38,69.86s31.57,70.38,70.38,70.38h89.01V141.79z"/>
		<path d="M184.23,63.13C184.23,22.77,145.93,0,112.81,0H0v182.16h47.61V42.43c10.35,0,55.37,0,55.37,0
			c16.56,0,30.53,8.8,30.53,29.5c0,17.59-13.45,29.5-30.01,29.5H61.58v40.36c0,0,27.94,0,28.98,0c23.8,1.03,36.22,10.87,36.22,37.26
			v41.92h50.2v-54.85c0-23.8-20.18-38.29-32.6-43.99c0,0-0.52,0,0-0.52l0.52-0.52C169.74,112.3,184.23,90.04,184.23,63.13z"/>
	</g>
	<path d="M54.85,255.13c256.68,43.47,528.37,134.03,804.19,256.68c1.03,0-448.15-262.37-449.71-262.37
		C242.19,249.43,53.3,254.61,54.85,255.13z"/>
	<path d="M1011.71,238.57c-102.46,3.62-315.16,20.7-478.17,51.75l115.92,66.76C776.77,304.29,819.2,287.73,1011.71,238.57z"/>
	<path d="M334.82,347.76c-110.23,28.46-205.96,113.85-260.3,163.53h155.77c0,0,57.96-90.56,190.44-141.28
		C380.88,358.63,336.89,347.76,334.82,347.76z"/>
	<path d="M288.25,510.25c66.24,1.55,161.46,2.07,161.46,1.55c45.54-75.04,65.2-72.97,102.46-97.81
		c-32.6-11.38-76.59-25.36-77.11-25.87C391.75,412.45,329.13,465.23,288.25,510.25z"/>
</g>
</svg>
