<?xml version="1.0" encoding="iso-8859-1"?>
<!-- Generator: Adobe Illustrator 25.2.0, SVG Export Plug-In . SVG Version: 6.00 Build 0)  -->
<svg version="1.1" id="Layer_1" xmlns="http://www.w3.org/2000/svg" xmlns:xlink="http://www.w3.org/1999/xlink" x="0px" y="0px"
	 viewBox="0 0 761.9 512" style="enable-background:new 0 0 761.9 512;" xml:space="preserve">
<g id="Warstwa_1">
	<g>
		<polygon points="165.33,248.76 238.48,224.76 285.71,286.48 285.71,209.14 359.62,181.71 284.95,157.33 283.43,81.14 
			238.1,142.48 164.19,120 207.24,184.38 		"/>
		<polygon points="295.62,0 451.81,183.62 295.24,367.62 427.43,367.62 593.52,184 426.67,0 		"/>
		<path d="M46.86,443.81c14.1,0,17.9,9.9,17.9,9.9l22.86-13.33c0,0-20.95-21.33-40-21.33C20.19,419.05,0,442.67,0,466.67
			c0,28.95,22.1,43.43,46.48,43.43s38.86-17.9,38.86-17.9L65.9,478.1c0,0-10.29,10.29-19.81,10.29c-12.19,0-22.1-10.67-22.1-22.48
			C24,455.62,32.76,443.81,46.86,443.81z"/>
		<path d="M142.48,420.57c-25.52,0-46.48,20.57-46.48,45.71S116.95,512,142.48,512s46.48-20.57,46.48-45.71
			C188.95,441.14,168,420.57,142.48,420.57z M142.48,489.14c-12.95,0-23.24-10.29-23.24-22.86s10.29-22.86,23.24-22.86
			c12.95,0,23.24,10.29,23.24,22.86S155.43,489.14,142.48,489.14z"/>
		<polygon points="265.52,471.62 228.95,421.71 206.48,421.71 206.48,507.43 228.95,507.43 228.95,460.95 265.9,507.43 288,507.43 
			288,421.71 265.52,421.71 		"/>
		<polygon points="353.14,489.52 330.67,421.71 305.9,421.71 336.38,507.43 369.52,507.43 400,421.71 375.24,421.71 		"/>
		<polygon points="416,507.43 484.57,507.43 484.57,487.62 438.48,487.62 438.48,473.14 480,473.14 480,455.62 438.48,455.62 
			438.48,442.29 484.57,442.29 484.57,421.71 416,421.71 		"/>
		<polygon points="761.9,442.29 761.9,421.71 692.95,421.71 692.95,507.43 761.9,507.43 761.9,487.62 715.43,487.62 715.43,473.14 
			757.33,473.14 757.33,455.62 715.43,455.62 715.43,442.29 		"/>
		<path d="M560,423.24h-49.9v84.19h19.81v-33.14h11.43l17.52,33.14h25.52l-17.14-36.19C589.71,458.29,585.14,429.71,560,423.24z
			 M552.38,456h-22.86v-12.19h22.86C560.38,443.81,560,456,552.38,456z"/>
		<path d="M646.86,456.76c0,0-21.33-0.38-22.1-10.29c-0.38-4.57,6.1-7.24,12.19-7.24c9.52,0,19.81,9.52,19.81,9.52l14.86-16
			c0,0-19.05-14.86-35.05-14.86c-15.24,0-36.95,9.9-36.95,30.86c0,17.9,25.14,25.9,25.14,25.9s26.67,2.67,26.67,11.05
			c0,5.71-9.52,7.24-15.24,7.24c-13.71,0-25.14-12.19-25.14-12.19L596.19,496c0.76,5.33,21.71,15.24,42.29,15.24
			c19.05,0,33.9-9.14,33.9-27.05C672.76,462.1,646.86,456.76,646.86,456.76z"/>
	</g>
</g>
<g id="Warstwa_2">
</g>
</svg>
