<?xml version="1.0" encoding="iso-8859-1"?>
<!-- Generator: Adobe Illustrator 25.2.0, SVG Export Plug-In . SVG Version: 6.00 Build 0)  -->
<svg version="1.1" id="Layer_1" xmlns="http://www.w3.org/2000/svg" xmlns:xlink="http://www.w3.org/1999/xlink" x="0px" y="0px"
	 viewBox="0 0 9192.46 512" style="enable-background:new 0 0 9192.46 512;" xml:space="preserve">
<g>
	<polygon points="0,71.3 172.36,71.3 172.36,505.07 244,505.07 244,71.3 415.99,71.3 415.99,6.85 0,6.85 	"/>
	<path d="M945.46,0.56c-141.12,0-255.49,114.37-255.49,255.49c0,141.12,114.37,255.49,255.49,255.49
		c141.12,8.44,262.49-99.11,270.93-240.23c8.44-141.12-99.11-262.49-240.22-270.93C965.93-0.15,955.69-0.15,945.46,0.56z
		 M945.46,445.82c-104.85,0-189.77-84.92-189.77-189.77S840.61,66.28,945.46,66.28s189.77,84.92,189.77,189.77
		C1135.23,360.9,1050.31,445.82,945.46,445.82L945.46,445.82z"/>
	<polygon points="1781.58,211.52 1616.58,6.85 1549.43,6.85 1549.43,505.07 1620.71,505.07 1620.71,117.26 1622.51,117.26 
		1775.47,310.27 1787.5,310.27 1940.47,117.26 1941.91,117.26 1941.91,505.07 2013.54,505.07 2013.54,6.85 1947.47,6.85 	"/>
	<polygon points="2650.19,211.52 2485.2,6.85 2418.05,6.85 2418.05,505.07 2489.87,505.07 2489.87,117.26 2491.12,117.26 
		2644.27,310.27 2656.12,310.27 2809.27,117.26 2811.06,117.26 2811.06,505.07 2882.34,505.07 2882.34,6.85 2816.09,6.85 	"/>
	<polygon points="3412.7,178.85 3278.95,6.85 3192.59,6.85 3377.33,241.33 3377.33,505.07 3448.97,505.07 3448.97,242.22 
		3633.72,6.85 3547.36,6.85 	"/>
	<polygon points="5498.06,223.91 5219.06,223.91 5219.06,6.85 5147.24,6.85 5147.24,505.07 5219.06,505.07 5219.06,288.19 
		5498.06,288.19 5498.06,505.07 5569.34,505.07 5569.34,6.85 5498.06,6.85 	"/>
	<rect x="5865.76" y="6.85" width="71.64" height="497.69"/>
	<polygon points="6302.4,6.85 6230.59,6.85 6230.59,505.07 6527.19,505.07 6527.19,440.8 6302.4,440.8 	"/>
	<polygon points="6732.58,505.07 6804.22,505.07 6804.22,273.46 6998.66,273.46 6998.66,209.19 6804.22,209.19 6804.22,71.3 
		6998.66,71.3 6998.66,6.85 6732.58,6.85 	"/>
	<rect x="7248.76" y="6.85" width="71.64" height="497.69"/>
	<path d="M7834.24,324.1h96.05v101.98c-34.83,12.21-71.46,19.03-108.44,19.75c-104.85,2.51-191.93-80.43-194.44-185.29
		c-2.51-104.85,80.43-191.93,185.29-194.44c62.66,1.08,124.24,17.77,178.82,48.66V42.58c-55.12-27.29-115.8-41.65-177.39-42.37
		c-142.38-5.39-261.95,105.75-267.34,247.95c-0.18,3.41-0.18,6.82-0.18,10.23c-0.9,138.78,110.78,252.25,249.56,253.15
		c5.21,0,10.41,0,15.62-0.36c65.53,0.9,130.53-13.11,189.77-40.94v-210.6h-167.33L7834.24,324.1L7834.24,324.1z"/>
	<polygon points="8345.39,285.85 8548.99,285.85 8548.99,221.58 8345.39,221.58 8345.39,71.3 8556.35,71.3 8556.35,6.85 
		8273.76,6.85 8273.76,505.07 8563.18,505.07 8563.18,440.8 8345.39,440.8 	"/>
	<path d="M9124.42,406.32c-26.39-53.5-64.1-100.72-110.78-137.89c51.35-18.13,85.1-67.33,83.13-121.73
		c0-86.36-63.02-137.89-163.56-137.89h-125.5v498.22h71.28V291.06h30.34c36.27,0,66.25,11.49,131.96,113.47L9107,507.05h85.46
		C9157.99,457.31,9146.5,439.9,9124.42,406.32z M8925.49,222.48h-45.96V66.28h45.96c69.48,0,96.95,28.55,97.49,74.87
		c0.54,46.5-21.19,83.67-97.49,83.67V222.48z"/>
	<polygon points="3976.28,131.09 4359.06,131.09 4359.06,379.75 3976.28,379.75 3976.28,504.17 4742.02,504.17 4742.02,380.65 
		4742.02,379.75 4742.02,131.09 4742.02,130.55 4742.02,6.85 3976.28,6.85 	"/>
</g>
</svg>
