<?xml version="1.0" encoding="iso-8859-1"?>
<!-- Generator: Adobe Illustrator 25.2.0, SVG Export Plug-In . SVG Version: 6.00 Build 0)  -->
<svg version="1.1" id="Warstwa_1" xmlns="http://www.w3.org/2000/svg" xmlns:xlink="http://www.w3.org/1999/xlink" x="0px" y="0px"
	 viewBox="0 0 1415.43 512" style="enable-background:new 0 0 1415.43 512;" xml:space="preserve">
<g>
	<path d="M446.73,103.49h918.09c3.26,0.64,6.42-1.48,7.06-4.74c0-0.02,0.01-0.05,0.01-0.07c7.08-20.46,14.16-40.84,21.73-61.23
		l12.18-34.12H356.19c-0.99,0.07-1.98,0.07-2.97,0c-2.48-0.42-3.54,0.85-4.25,3.04c-1.13,3.82-2.48,7.57-3.75,11.4
		c-36.29,106.18-72.63,212.36-109.01,318.53c-2.27,6.51-4.53,13.02-7.08,20.67l-1.77-5.03c-34.21-115.85-68.4-231.78-102.57-347.77
		c-0.35-2.63-2.77-4.49-5.41-4.13c-0.06,0.01-0.12,0.02-0.18,0.03H4.03H0C0.5,1.91,0.78,3.4,1.27,4.88
		c52.62,164.6,105.19,329.2,157.71,493.8c0.5,2.67,3.06,4.44,5.73,3.96h125.93c2.68,0.45,5.24-1.25,5.88-3.89
		c47.19-129.96,94.62-259.9,142.28-389.82C439.61,105.33,443.07,102.95,446.73,103.49z"/>
	<path d="M948.53,329.22c-1.27-1.03-2.29-2.34-2.97-3.82c-34.07-63.57-68.07-127.15-102-190.77c-1.09-2.61-3.78-4.17-6.58-3.82
		c-35.39,0-70.79,0-106.18,0h-4.53v371.77h106.53V300.48c1.36,1.02,2.45,2.36,3.19,3.89c35.82,64.84,71.61,129.73,107.38,194.66
		c1.08,2.62,3.77,4.2,6.58,3.89c33.55,0,67.1,0,100.66,0h4.11V131.17H948.53V329.22z"/>
	<path d="M1359.72,294.61c-18.91-9.29-38.81-16.41-59.32-21.24c-21.24-5.59-42.47-11.11-63.71-17.06
		c-9.33-2.31-17.92-6.93-24.99-13.45c-7.95-6.82-8.87-18.8-2.04-26.75c1.47-1.72,3.25-3.16,5.23-4.25c2.01-1.34,4.17-2.43,6.44-3.26
		c16.39-6.05,34.49-5.49,50.47,1.56c13.54,4.61,22.02,18.07,20.32,32.28c0,0,0,0.5,0.42,0.78h106.18c0-0.71,0-1.13,0-1.56
		c-0.5-5.1-0.78-10.19-1.49-15.29c-3.57-35.74-24.84-67.3-56.63-84.02c-21.74-11.23-45.58-17.79-70.01-19.25
		c-31.44-3.49-63.26,0.17-93.08,10.69c-23.68,7.85-44.33,22.86-59.11,42.97c-15,22.01-22.02,48.48-19.89,75.03
		c0.65,30.92,18.43,58.91,46.15,72.63c11.32,6.17,23.16,11.34,35.39,15.43c26.19,8.64,52.95,15.79,79.21,24.28
		c11.2,3.87,22.09,8.61,32.56,14.16c6.87,3.77,10.66,11.43,9.49,19.18c-0.46,13.45-9.75,24.99-22.79,28.31
		c-16.33,5.04-33.79,5.04-50.12,0c-15.99-3.61-27.96-16.92-29.87-33.2c-0.85-4.88-1.27-9.77-1.98-14.79h-111.84
		c0,4.25,0,8.14,0,11.89c1.21,22.06,8.4,43.37,20.81,61.65c15.77,21.95,38.07,38.37,63.71,46.93c46.87,16.5,97.68,18.18,145.53,4.81
		c18.49-4.48,35.99-12.35,51.6-23.22c29.53-20.45,47.28-53.98,47.57-89.9C1415.71,346.71,1398.08,314.92,1359.72,294.61z"/>
	<path d="M575.34,134.63c-0.5-2.53-2.9-4.21-5.45-3.82c-33.98,0-67.95,0-101.93,0c-2.83-0.47-5.51,1.42-6.02,4.25
		c-40.44,111.94-80.91,223.78-121.4,335.52l-11.4,31.78c0.48,0.2,0.98,0.34,1.49,0.42c36.38,0,72.79,0,109.22,0
		c1.47-0.34,2.68-1.37,3.26-2.76c2.19-6.37,4.03-12.74,6.02-19.18c3.19-10.26,6.44-20.6,9.56-30.79h116.09
		c4.74,16.42,9.49,32.7,14.16,49.05c0.78,2.97,2.12,3.89,5.24,3.89h112.76c-0.57-1.7-0.92-2.9-1.34-4.11
		C662.13,377.43,618.71,256.01,575.34,134.63z M483.32,369.85c11.75-38.22,23.43-76.17,35.39-114.18h0.85
		c10.83,37.94,21.73,75.81,32.7,114.25L483.32,369.85z"/>
	<path d="M1374.94,136.76c0.02,1.45,0.19,2.9,0.5,4.32c0.45,2.55,1.46,4.97,2.97,7.08l0.5,0.64c0,0.42,0.64,0.85,0.99,1.2
		c7.33,8.44,20.11,9.35,28.56,2.02s9.35-20.11,2.02-28.56c-7.33-8.44-20.11-9.35-28.56-2.02c-4.46,3.87-7.01,9.49-6.97,15.39
		L1374.94,136.76z M1383.79,148.93v-22.65h3.54v14.86c-0.42,3.33,0.85,7.08-1.63,8.71h-1.06L1383.79,148.93z M1398.51,137.39
		c-0.21-0.04-0.43-0.04-0.64,0c0.57,0,0.92,0,1.34,0C1398.98,137.42,1398.74,137.42,1398.51,137.39z M1400.07,130.88
		c0.1,0.82,0.1,1.65,0,2.48c-0.34,0.54-0.87,0.94-1.49,1.13c-0.93,0.32-1.92,0.47-2.9,0.42l0,0l0,0c0.5,0,0.64-3.19,0-3.33
		c-1.97-0.86-4.01-1.57-6.09-2.12v-1.2h6.51c0.85-0.02,1.7,0.15,2.48,0.5C1399.2,129.37,1399.71,130.09,1400.07,130.88
		L1400.07,130.88z M1391.93,141.78c-0.53-0.62-1.18-1.13-1.91-1.49v-3.04h4.46c0.43,0.13,0.83,0.32,1.2,0.57
		c0.32,0.22,0.6,0.48,0.85,0.78c-0.62,0.39-1.28,0.7-1.98,0.92l5.8,9.41c-0.22,0.4-0.48,0.78-0.78,1.13
		c-1.49-0.7-2.87-1.61-4.11-2.69C1394.47,145.75,1393.41,143.48,1391.93,141.78L1391.93,141.78z M1412.17,136.76
		c-0.06,8.55-6.51,15.7-15.01,16.63c3.27-1.41,5.95-3.91,7.57-7.08h0.57v-0.5c1.18-2.47,1.79-5.19,1.77-7.93
		c0.23-8.79-6.7-16.11-15.5-16.35c-0.19-0.01-0.38-0.01-0.57-0.01c-0.87-0.11-1.75-0.11-2.62,0c2.21-1.04,4.63-1.57,7.08-1.56
		C1404.69,120.06,1412.13,127.54,1412.17,136.76L1412.17,136.76z"/>
</g>
</svg>
