<?xml version="1.0" encoding="iso-8859-1"?>
<!-- Generator: Adobe Illustrator 25.2.0, SVG Export Plug-In . SVG Version: 6.00 Build 0)  -->
<svg version="1.1" id="Warstwa_1" xmlns="http://www.w3.org/2000/svg" xmlns:xlink="http://www.w3.org/1999/xlink" x="0px" y="0px"
	 viewBox="0 0 1010.09 512" style="enable-background:new 0 0 1010.09 512;" xml:space="preserve">
<style type="text/css">
	.st0{fill-rule:evenodd;clip-rule:evenodd;}
</style>
<g>
	<path class="st0" d="M121.21,253.63H8.54c-8.54,0-8.54,0-8.54,6.16v227.62c0.39,3.01,3.15,5.14,6.16,4.75H60.6
		c5.71,0,5.71,0,5.71-4.75V441.5c0-6.16,0-7.07,5.66-7.07h49.24c26.01-0.96,32.17-7.12,32.17-36.46V284.38
		C153.33,259.33,147.17,253.63,121.21,253.63z M87.57,394.68c-0.02,5.89-4.72,10.69-10.61,10.86h-0.25
		c-5.77-0.01-10.45-4.69-10.44-10.47c0-0.3,0.01-0.6,0.04-0.9V290.54c-0.42-5.56,3.75-10.41,9.31-10.83
		c0.36-0.03,0.73-0.04,1.09-0.02h0.25c5.8-0.07,10.56,4.57,10.64,10.37c0,0.31-0.01,0.63-0.03,0.94L87.57,394.68z"/>
	<path class="st0" d="M331.25,259.33c0-5.71-1.41-3.79-6.16-5.71h-53.94c-6.16,0-6.16,0-6.16,5.71V447.2
		c0,18.43-20.81,17.98-20.81,0V259.33c0-5.71,0-5.71-5.66-5.71h-56.31c-6.16,0-6.16,0-6.16,5.71v198.68
		c0,29.34,6.16,34.09,24.14,34.09h104.59c20.2,0,26.97-5.05,26.46-32.17V259.33z"/>
	<path class="st0" d="M565.99,253.63h-185.5c-22.27,0-28.89,5.71-28.89,27.47v206.31c0,4.75,0,4.75,6.62,4.75h52.07
		c7.12,0,7.12,0,7.12-4.75V292.92c0-17.02,20.81-18.94,20.81,0V487.4c0,4.75,0,4.75,8.03,4.75h52.07c6.16,0,6.16,0,6.16-4.75V292.92
		c0-16.11,20.81-17.02,20.81,0V487.4c0,4.75,0,4.75,6.62,4.75h53.48c5.71,0,5.71,0,5.71-4.75V279.69
		C590.89,259.33,584.47,253.63,565.99,253.63z"/>
	<path class="st0" d="M746.28,253.63H641.39c-17.52,0-25.25,5.71-25.25,26.06v207.72c0,4.75,0,4.75,7.58,4.75h52.07
		c6.62,0,6.62,0,6.62-4.75v-46.36c-0.17-5.85,4.44-10.74,10.3-10.91c0.04,0,0.07,0,0.11,0c5.57-0.24,10.29,4.08,10.53,9.66
		c0.02,0.57,0,1.14-0.07,1.71v45.91c0,4.75,0,4.75,6.62,4.75h53.94c5.05,0,5.05,0,5.05-4.75V279.69
		C769.01,259.33,763.81,253.63,746.28,253.63z M703.26,394.68c0.03,5.22-4.17,9.47-9.39,9.5c-0.36,0-0.71-0.02-1.06-0.05
		c-5.34,0.39-9.99-3.62-10.38-8.96c-0.01-0.16-0.02-0.32-0.02-0.48V292.92c-0.17-5.58,4.21-10.23,9.79-10.4
		c0.21-0.01,0.41-0.01,0.62,0c5.57-0.2,10.25,4.16,10.45,9.74c0.01,0.22,0.01,0.45,0,0.67V394.68z"/>
	<path class="st0" d="M827.24,455.23h-0.51c-15.68,0-28.38,12.71-28.38,28.38c0,15.68,12.71,28.38,28.38,28.38h0.51
		c15.68,0,28.38-12.71,28.38-28.38C855.62,467.94,842.92,455.23,827.24,455.23z M827.24,506.34h-0.51
		c-3.05-0.06-6.07-0.53-8.99-1.41c-9.16-3.88-14.72-13.29-13.69-23.18c0.78-11.89,10.76-21.07,22.68-20.86h0.51
		c6.61-0.04,12.88,2.93,17.02,8.08c3.69,4.87,5.48,10.92,5.05,17.02C848.1,497.35,838.66,506.05,827.24,506.34L827.24,506.34z"/>
	<path class="st0" d="M839.51,476.55c-0.2-2.79-1.8-5.3-4.24-6.67c-2.31-1.84-5.09-2.98-8.03-3.28h-12.78v34.54h5.66V487.4h4.24
		l2.63,3.48l0.25,0.3l7.07,9.49h5.05l-10.4-13.28c2.67-0.29,5.17-1.44,7.12-3.28C838.22,482.18,839.46,479.44,839.51,476.55z
		 M831.48,481.24c-1.02,1.29-2.6,2.01-4.24,1.92h-7.12v-12.78h5.71c0.41,0.09,0.8,0.25,1.16,0.45h0.25
		c1.53-0.02,3.03,0.48,4.24,1.41c1.31,1.08,2.16,2.61,2.37,4.29C834.01,478.43,833.09,480.25,831.48,481.24L831.48,481.24z"/>
	<path class="st0" d="M1006.12,11.31c-4.75-8.03-15.61-5.66-28.38,0.51c-17.07,7.07-47.37,41.16-54.9,59.64
		c-6.67,26.97-21.77,52.02-46.87,78.53c-25.25,20.81-70.05,12.32-95.6-3.79c-1.87,0-107.87-82.83-107.87-82.83
		c-37.88-29.8-64.39-43.03-96.56-46.82c-1.46-0.91-2.62-2.23-3.33-3.79c-5.05-10.91-6.11-10.1-9.44-12.78
		c-3.41,2.79-7.25,5.03-11.36,6.62c-1.87,0-2.37,0-3.33-0.96c-2.83-0.96-5.66-3.33-8.03-3.33c-3.28,0.51-6.16,7.12-10.4,13.28
		c0,0-7.12,6.62-14.19,12.27c-2.37,1.92-2.83,5.71-4.24,7.58c-3.79,3.79-8.08,10.4-8.54,10.4c-1.41,4.29-2.37,8.54,0.45,10.45
		c0,5.05,2.83,6.11,3.79,7.58c0.47,1.19,1.11,2.29,1.92,3.28l5.66,1.41c10.1,9.49,14.19,9.49,26.06,7.58
		c20.81,1.41,18.89,8.54,18.43,18.94c-0.9,1.05-2.05,1.86-3.33,2.37c-8.99,0-18.43-2.37-27.88-2.37
		c-19.9,1.87-37.42,5.66-35.35,29.8c1.41,9.49,18.43,22.73,27.42,4.75c1.41-8.03,8.08-4.75,14.19-2.37
		c36.01,15.15,64.39,23.18,83.78,7.12c5.66-7.12,8.99-1.92,15.15,2.37c28.84,34.04,70.05,56.77,133.93,57.22
		c21.26,5.05,37.37,14.24,45.45,35.05c19.9,50.5,44.95,91.31,81.41,112.62c-2.83,32.17-1.41,58.68,30.76,65.3
		c8.54-6.62-3.33-17.02,6.16-40.71c-0.51-10.4-9.49-18.89-12.78-38.79c-37.37-30.76-21.77-43.53-27.47-63.89
		c0.37-26.52-6.32-52.67-19.39-75.75c-1.41-3.79,0.96-6.67,4.24-8.54c21.31-15.61,32.68-31.26,37.88-46.36
		c6.56-24.69,20.69-46.72,40.4-62.98c16.06-12.78,31.21-17.02,48.23-28.38C1012.74,24.09,1011.32,19.39,1006.12,11.31z"/>
</g>
</svg>
