<?xml version="1.0" encoding="iso-8859-1"?>
<!-- Generator: Adobe Illustrator 26.1.0, SVG Export Plug-In . SVG Version: 6.00 Build 0)  -->
<svg version="1.1" id="Layer_1" xmlns="http://www.w3.org/2000/svg" xmlns:xlink="http://www.w3.org/1999/xlink" x="0px" y="0px"
	 viewBox="0 0 2000 512" style="enable-background:new 0 0 2000 512;" xml:space="preserve">
<path d="M209,223l11,22l-11,22v244h-66V290H77v221H11V267L0,245l11-22V2h66v221h66V2h66V223z M328,444h66V67h-66
	C328,67,328,444,328,444z M394,1l66,66v155l11,22l-11,22v177l-66,66h-66l-66-66V266l-12-21l11-22V68l66-66L394,1z M579,444h66V67
	h-66V444z M645,1l66,66v155l11,22l-11,22v177l-66,66h-66l-66-66V266l-11-22l11-22V67l66-66L645,1L645,1z M853.3,444h66V67h-66V444z
	 M919.3,1l66,66v155l11,22l-11,22v177l-66,66h-133V265l-11-22l11-22V0L919.3,1z M1126.3,223h66V68h-66V223z M1192.3,1l66,66v155
	l-33,33l33,33v221h-66V288h-66v221h-66V265l-11-22l11-22V0L1192.3,1z M1311.3,1v221l-11,22l11,22v244h66V266l11-22l-11-22V1
	L1311.3,1L1311.3,1z M1496.7,1l-66,66v155l-11,22l11,22v177l66,66h66l66-66v-89h-66v89h-66V267l14-21l-14-23V66h66v89h66V66l-66-66
	L1496.7,1z M1880.7,1h-66v221h-66V1h-66v221l-11,22l11,22v244h66V289h66v221h66V266l11-22l-11-22V1z M2000,467c0-24-19-44-45-44
	c-25,0-46,19-46,44c0,25,20,45,45,45C1979.7,511,2000,492,2000,467 M1920.7,466c0-19,15-35,34-35c20,0,34,16,33,36c0,19-15,35-34,35
	C1934.7,501,1920.7,485,1920.7,466 M1947.7,471h5c6,0,8,2,9,7s2,9,3,11h11c-1-2-2-4-3-11c-1-6-4-9-8-11v-1c5-2,9-5,9-10
	c0-4-2-8-4-10c-3-2-7-3-15-3c-7,0-13,0-17,1v44h10V471z M1947.7,452c1,0,3,0,6,0c6,0,9,3,9,7c0,5-5,6-10,6h-5V452z"/>
</svg>
