<svg id="worldwide" xmlns="http://www.w3.org/2000/svg" width="30.784" height="30.776" viewBox="0 0 30.784 30.776">
  <g id="Group_117" data-name="Group 117" transform="translate(1.197 1.115)">
    <path id="Path_367" data-name="Path 367" d="M292.02,30.067l-1.592,1.062-2.654-.531-1.592-.531-2.123.531-1.592-.531,1.062-2.123h2.123l2.081-1.04A15.2,15.2,0,0,1,292.02,30.067Z" transform="translate(-266.679 -26.404)" fill="#03aa6f"/>
    <path id="Path_368" data-name="Path 368" d="M33.048,20.143l-.531,1.592-1.592.531-1.592,2.654-2.654,1.592-3.716.531v1.592L24.024,29.7v2.123l-1.592-1.062L20.84,29.7l-.924-2.776a15.383,15.383,0,0,1,8.44-8.318l1.507,1.009Z" transform="translate(-19.916 -18.604)" fill="#03aa6f"/>
    <path id="Path_369" data-name="Path 369" d="M81.737,216.718l-.531,2.654L79.083,221.5v1.592L76.96,224.68v2.654l-1.592-.531-1.062-2.654v-5.308l-2.654-.531-1.062-2.123V214.6l1.062-1.062,1.592-1.592,1.062,2.123h3.716l1.592,2.654Z" transform="translate(-67.543 -200.316)" fill="#03aa6f"/>
    <path id="Path_370" data-name="Path 370" d="M286.007,115.8a15.378,15.378,0,0,1-.849,16.386l-1.433-1.433v-2.123l-1.062-2.123-1.062-2.123v-2.123l-1.592-1.062-2.123.531-3.716-1.592-.531-3.716,1.592-1.592h3.185l1.062,1.592,3.185.531,3.185-1.062Z" transform="translate(-258.384 -109.044)" fill="#03aa6f"/>
  </g>
  <path id="Path_371" data-name="Path 371" d="M18.576,5.374,20.7,4.844l1.592.531,2.654.531,1.592-1.062A15.159,15.159,0,0,1,28.82,7.938l-.159.09L25.476,9.09l-3.185-.531L21.23,6.967H18.045L16.453,8.559l.531,3.716L20.7,13.867l2.123-.531L24.415,14.4v2.123l1.062,2.123,1.062,2.123v2.123l1.433,1.433A15.393,15.393,0,0,1,1.2,9.5l.924,2.776,1.592,1.062L5.306,14.4,4.244,15.46v1.592l1.062,2.123,2.654.531v5.308l1.062,2.654,1.592.531V25.545l2.123-1.592V22.36l2.123-2.123.531-2.654H13.268l-1.592-2.654H7.96L6.9,12.806,5.306,14.4V12.275L4.244,11.213V9.621L7.96,9.09,10.614,7.5l1.592-2.654L13.8,4.313l.531-1.592L11.145,2.19,9.637,1.181a15.394,15.394,0,0,1,12.612.5L20.168,2.72H18.045L16.983,4.844Z" transform="translate(0 -0.067)" fill="#86daf1"/>
</svg>
